<svg width="44" height="44" viewBox="0 0 44 44" fill="none" xmlns="http://www.w3.org/2000/svg">
<path d="M24.6042 39.6C24.6042 38.8438 24.3492 38.1964 23.8392 37.6578C23.3292 37.1193 22.7161 36.85 22 36.85C21.2839 36.85 20.6708 37.1193 20.1608 37.6578C19.6508 38.1964 19.3958 38.8438 19.3958 39.6C19.3958 40.3563 19.6508 41.0036 20.1608 41.5422C20.6708 42.0807 21.2839 42.35 22 42.35C22.7161 42.35 23.3292 42.0807 23.8392 41.5422C24.3492 41.0036 24.6042 40.3563 24.6042 39.6ZM31.375 34.1V9.9C31.375 9.60208 31.2719 9.34427 31.0658 9.12656C30.8596 8.90885 30.6154 8.8 30.3333 8.8H13.6667C13.3845 8.8 13.1404 8.90885 12.9342 9.12656C12.7281 9.34427 12.625 9.60208 12.625 9.9V34.1C12.625 34.3979 12.7281 34.6557 12.9342 34.8734C13.1404 35.0911 13.3845 35.2 13.6667 35.2H30.3333C30.6154 35.2 30.8596 35.0911 31.0658 34.8734C31.2719 34.6557 31.375 34.3979 31.375 34.1ZM25.125 4.95C25.125 4.58333 24.9514 4.4 24.6042 4.4H19.3958C19.0486 4.4 18.875 4.58333 18.875 4.95C18.875 5.31667 19.0486 5.5 19.3958 5.5H24.6042C24.9514 5.5 25.125 5.31667 25.125 4.95ZM34.5 4.4V39.6C34.5 40.7917 34.0877 41.8229 33.263 42.6938C32.4384 43.5646 31.4618 44 30.3333 44H13.6667C12.5382 44 11.5616 43.5646 10.737 42.6938C9.91233 41.8229 9.5 40.7917 9.5 39.6V4.4C9.5 3.20833 9.91233 2.17708 10.737 1.30625C11.5616 0.435417 12.5382 0 13.6667 0H30.3333C31.4618 0 32.4384 0.435417 33.263 1.30625C34.0877 2.17708 34.5 3.20833 34.5 4.4Z" fill="#545454"/>
</svg>
