<svg width="252" height="252" viewBox="0 0 252 252" fill="none" xmlns="http://www.w3.org/2000/svg">
<g clip-path="url(#clip0_488_1382)">
<path d="M126 252C195.588 252 252 195.588 252 126C252 56.4121 195.588 0 126 0C56.4121 0 0 56.4121 0 126C0 195.588 56.4121 252 126 252Z" fill="url(#paint0_linear_488_1382)"/>
<path d="M115.111 169.482L104.395 196.766M136.543 169.482L147.259 196.766M93.679 196.766H157.975M190.123 71.2598H61.5309C60.1098 71.2598 58.7471 71.8346 57.7422 72.8582C56.7373 73.8814 56.1729 75.2693 56.1729 76.7167V164.025C56.1729 165.473 56.7373 166.86 57.7422 167.884C58.7471 168.907 60.1098 169.482 61.5309 169.482H190.123C191.545 169.482 192.907 168.907 193.912 167.884C194.917 166.86 195.481 165.473 195.481 164.025V76.7167C195.481 75.2693 194.917 73.8814 193.912 72.8582C192.907 71.8346 191.545 71.2598 190.123 71.2598Z" stroke="white" stroke-width="10" stroke-linecap="round" stroke-linejoin="round"/>
<path d="M58.1279 156.093H194.989" stroke="white" stroke-width="10" stroke-linecap="round" stroke-linejoin="round"/>
<path d="M93.852 84.916C85.6483 84.916 80.3301 90.7224 74.0411 92.839C71.4827 93.7018 70.2037 94.1301 69.6856 94.7371C69.1674 95.341 69.0174 96.2297 68.7146 98.001C65.469 116.97 72.5602 134.506 89.4695 141.334C91.2829 142.067 92.1913 142.432 93.8603 142.432C95.5296 142.432 96.4404 142.064 98.2566 141.331C115.163 134.506 122.246 116.97 119 98.001C118.698 96.2297 118.545 95.341 118.027 94.734C117.509 94.1273 116.232 93.699 113.674 92.839C107.382 90.7224 102.056 84.916 93.852 84.916Z" stroke="white" stroke-width="10" stroke-linecap="round" stroke-linejoin="round"/>
<path d="M94.0629 92.4307C88.0422 92.4307 84.1395 96.7292 79.524 98.2961C77.6466 98.935 76.7078 99.2523 76.3275 99.7013C75.9473 100.149 75.8373 100.806 75.6151 102.118C73.2333 116.161 78.4372 129.144 90.8464 134.198C92.1772 134.741 92.8437 135.012 94.0688 135.012C95.2935 135.012 95.9621 134.739 97.295 134.196C109.702 129.144 114.9 116.161 112.518 102.118C112.296 100.806 112.184 100.149 111.804 99.6993C111.424 99.2502 110.487 98.9329 108.609 98.2961C103.992 96.7292 100.083 92.4307 94.0629 92.4307Z" stroke="white" stroke-width="5" stroke-linecap="round" stroke-linejoin="round"/>
<path d="M86.7539 115.669C86.7539 115.669 88.5822 115.669 90.4105 119.565C90.4105 119.565 96.2189 109.824 101.38 107.876" stroke="white" stroke-width="5" stroke-linecap="round" stroke-linejoin="round"/>
<path d="M134.814 107.852H182.518" stroke="white" stroke-width="8" stroke-linecap="round"/>
<path d="M134.814 115.111L171.111 114.766" stroke="white" stroke-width="8" stroke-linecap="round"/>
<path d="M134.814 122.024H182.518" stroke="white" stroke-width="8" stroke-linecap="round"/>
<path d="M134.814 128.938H171.111" stroke="white" stroke-width="8" stroke-linecap="round"/>
<mask id="mask0_488_1382" style="mask-type:luminance" maskUnits="userSpaceOnUse" x="134" y="85" width="51" height="14">
<path d="M183.555 85.0371H136.197C135.434 85.0371 134.814 85.6562 134.814 86.4198V96.7902C134.814 97.5539 135.434 98.1729 136.197 98.1729H183.555C184.319 98.1729 184.938 97.5539 184.938 96.7902V86.4198C184.938 85.6562 184.319 85.0371 183.555 85.0371Z" fill="white"/>
</mask>
<g mask="url(#mask0_488_1382)">
<path d="M183.555 85.0371H136.197C135.434 85.0371 134.814 85.6562 134.814 86.4198V96.7902C134.814 97.5539 135.434 98.1729 136.197 98.1729H183.555C184.319 98.1729 184.938 97.5539 184.938 96.7902V86.4198C184.938 85.6562 184.319 85.0371 183.555 85.0371Z" stroke="white" stroke-width="16"/>
</g>
</g>
<defs>
<linearGradient id="paint0_linear_488_1382" x1="252" y1="126" x2="0" y2="126" gradientUnits="userSpaceOnUse">
<stop stop-color="#088F7E"/>
<stop offset="1" stop-color="#FF7400"/>
</linearGradient>
<clipPath id="clip0_488_1382">
<rect width="252" height="252" fill="white"/>
</clipPath>
</defs>
</svg>
