<svg width="501" height="520" viewBox="0 0 501 520" fill="none" xmlns="http://www.w3.org/2000/svg">
<path d="M384.98 13.1637L353.891 29.2904C352.753 29.791 351.782 30.627 351.1 31.6943C350.417 32.7617 350.054 34.0131 350.054 35.2926V50.331C350.026 64.0023 353.881 77.381 361.14 88.8064C366.741 97.6008 374.171 108.913 386.531 115.365H392.101C405.865 110.968 416.132 99.4586 422.403 89.5649C429.66 78.139 433.515 64.7606 433.488 51.0895V35.2926C433.488 34.0146 433.126 32.7647 432.446 31.6978C431.766 30.6309 430.798 29.7938 429.662 29.2904L394.248 13.6804C392.664 12.9878 386.553 12.4711 384.98 13.1637Z" fill="#E0E0E0"/>
<path d="M383.726 13.6804L348.312 29.2904C347.173 29.791 346.202 30.627 345.52 31.6944C344.838 32.7617 344.474 34.0131 344.475 35.2926V50.331C344.475 64.2632 348.472 77.8821 355.958 89.4645C363.445 101.047 374.085 110.072 386.532 115.398C400.285 111.001 410.552 99.4916 416.834 89.5979C424.093 78.1604 427.947 64.7711 427.919 51.0895V35.2926C427.92 34.0131 427.556 32.7617 426.874 31.6944C426.192 30.627 425.221 29.791 424.082 29.2904L388.668 13.6804C387.886 13.3402 387.046 13.165 386.197 13.165C385.348 13.165 384.508 13.3402 383.726 13.6804Z" fill="#F5F5F5"/>
<path d="M427.803 47.0107C427.851 47.2381 427.872 47.4706 427.867 47.7033C427.867 48.22 427.92 48.8795 427.952 49.693C427.983 50.5065 428.037 51.6168 427.952 52.848C427.867 54.0792 427.952 55.4863 427.76 57.0253C427.569 58.5644 427.516 60.3232 427.208 62.0711C427.069 62.9726 426.963 63.907 426.782 64.8634C426.602 65.8197 426.379 66.7871 426.177 67.7875C425.197 72.1278 423.827 76.3638 422.085 80.4404C420.294 84.497 418.16 88.3817 415.708 92.049C414.528 93.698 413.433 95.3469 412.264 96.6551C411.69 97.3476 411.201 98.0512 410.616 98.6668L409.001 100.437C407.991 101.536 406.96 102.503 406.099 103.361C405.238 104.218 404.452 104.889 403.804 105.427L402.411 106.681C402.246 106.837 402.064 106.974 401.869 107.087C402.011 106.905 402.171 106.739 402.347 106.593L403.782 105.263C404.409 104.702 405.175 103.998 406.004 103.064C406.833 102.13 407.853 101.272 408.831 100.107L410.414 98.315C410.957 97.6994 411.477 96.9958 412.03 96.3033C413.178 94.9292 414.241 93.3352 415.399 91.6862C417.806 88.0357 419.904 84.1775 421.67 80.1546C423.392 76.1079 424.762 71.9102 425.762 67.6116L426.389 64.7094C426.58 63.764 426.697 62.8296 426.846 61.9392C427.165 60.1584 427.293 58.4764 427.452 56.9374C427.611 55.3984 427.633 54.0133 427.718 52.7821C427.803 51.5508 427.792 50.5065 427.792 49.6381C427.792 48.7696 427.792 48.165 427.792 47.6483C427.775 47.436 427.778 47.2223 427.803 47.0107Z" fill="#E0E0E0"/>
<path d="M383.555 79.7038L363.244 63.0055L368.877 55.6732L382.503 66.875L402.4 43.8447L409.149 50.0887L383.555 79.7038Z" fill="white"/>
<path d="M479.51 95.4569H475.663V73.8117C475.663 71.3627 474.722 69.0139 473.048 67.2822C471.374 65.5505 469.103 64.5776 466.735 64.5776C464.367 64.5776 462.096 65.5505 460.422 67.2822C458.748 69.0139 457.807 71.3627 457.807 73.8117V95.4569H453.959V73.8117C453.959 70.3131 455.303 66.9577 457.695 64.4838C460.087 62.0099 463.331 60.6201 466.714 60.6201C470.096 60.6201 473.34 62.0099 475.732 64.4838C478.124 66.9577 479.468 70.3131 479.468 73.8117L479.51 95.4569Z" fill="#EBEBEB"/>
<path d="M480.668 80.7705H452.789C450.981 80.7705 449.516 82.2864 449.516 84.1563V105.296C449.516 107.166 450.981 108.682 452.789 108.682H480.668C482.476 108.682 483.941 107.166 483.941 105.296V84.1563C483.941 82.2864 482.476 80.7705 480.668 80.7705Z" fill="#EBEBEB"/>
<path d="M469.371 95.4466C469.713 95.0871 469.983 94.6611 470.165 94.1932C470.348 93.7253 470.439 93.2248 470.433 92.7203C470.438 91.9889 470.246 91.2705 469.877 90.6463C469.509 90.0221 468.979 89.5169 468.347 89.1876C467.715 88.8584 467.008 88.7182 466.303 88.783C465.599 88.8478 464.926 89.1149 464.36 89.5541C463.795 89.9934 463.359 90.5874 463.103 91.2691C462.847 91.9508 462.779 92.693 462.909 93.4121C463.039 94.1311 463.36 94.7983 463.837 95.3385C464.314 95.8786 464.927 96.2701 465.608 96.4689L464.8 100.185H468.403L467.681 96.4689C468.31 96.2831 468.881 95.9307 469.339 95.4466" fill="#FAFAFA"/>
<path d="M42.5605 411.373C38.4326 408.702 33.7679 407.043 28.9241 406.525C26.6921 406.284 24.2582 406.35 22.4726 407.746C22.2653 407.868 22.0937 408.046 21.9759 408.261C21.858 408.475 21.7983 408.719 21.803 408.966C21.9119 409.314 22.1382 409.611 22.4407 409.801C25.3361 411.938 28.7418 413.214 32.2885 413.491C35.8352 413.768 39.3876 413.036 42.5605 411.373Z" fill="#E0E0E0"/>
<path d="M42.2094 410.978C39.0522 408.578 36.1039 405.896 33.3983 402.964C30.6872 400.011 28.7835 396.365 27.8821 392.4C27.7026 391.813 27.6486 391.192 27.7239 390.581C27.7991 389.97 28.0018 389.383 28.3179 388.86C35.3327 394.533 40.8489 401.876 42.2094 410.978Z" fill="#E0E0E0"/>
<path d="M42.4858 411.319C41.8389 407.351 41.8965 403.294 42.6558 399.348C43.4364 395.369 45.6325 391.838 48.8098 389.454C50.0214 392.389 49.5006 395.775 48.6503 398.831C47.3288 403.58 45.2644 408.074 42.5389 412.133" fill="#E0E0E0"/>
<path d="M49.3732 424.081C45.2419 424.772 41.4202 426.773 38.4365 429.808C35.2982 432.758 33.1127 436.634 32.1763 440.911C36.2789 440.647 39.7544 437.613 42.2734 434.316C44.7923 431.018 46.5248 427.291 49.3201 424.158" fill="#E0E0E0"/>
<path d="M50.8708 426.115C49.2254 421.796 48.6485 417.122 49.1923 412.514C49.7361 407.907 51.3835 403.513 53.985 399.731C56.3658 408.526 55.4836 418.42 50.8708 426.115Z" fill="#E0E0E0"/>
<path d="M59.9589 437.317C56.1393 437.078 52.3357 438.003 49.0198 439.979C45.704 441.955 43.0218 444.894 41.3058 448.431C41.0826 448.904 40.8701 449.53 41.1889 449.937C41.3488 450.1 41.5449 450.219 41.76 450.284C41.9751 450.349 42.2025 450.359 42.4218 450.311C46.0993 450.069 49.3516 447.783 52.0407 445.177C54.7297 442.572 57.0786 439.56 60.044 437.306" fill="#E0E0E0"/>
<path d="M59.6723 436.723C57.714 430.203 57.5923 423.24 59.3215 416.65C60.0124 414.067 61.1603 411.352 63.4667 410.142C63.5591 410.078 63.6635 410.034 63.7733 410.013C63.883 409.992 63.9958 409.995 64.1044 410.021C64.2909 410.124 64.4318 410.297 64.4976 410.505C65.2773 412.309 65.6132 414.284 65.4755 416.254C65.3392 418.221 65.0477 420.174 64.6039 422.092C63.8812 425.653 63.5411 429.479 61.596 432.557C61.152 433.298 60.751 434.065 60.395 434.854C60.0443 435.635 60.0443 435.954 59.7148 436.525" fill="#E0E0E0"/>
<path d="M83.7454 440.417C82.9361 436.753 82.9097 432.95 83.6678 429.274C84.426 425.598 85.9505 422.138 88.1349 419.134C88.4432 418.706 88.8577 418.255 89.3785 418.299C90.165 418.376 90.3669 419.464 90.335 420.278C90.009 427.494 87.7253 434.469 83.7454 440.406" fill="#E0E0E0"/>
<path d="M85.9136 441.956C90.1254 442.984 94.5027 443.054 98.7434 442.162C102.984 441.27 106.987 439.437 110.476 436.789C106.366 434.651 101.666 434.057 97.1798 435.107C92.7371 436.206 88.677 438.207 85.9136 441.956Z" fill="#E0E0E0"/>
<path d="M87.7422 437.284C92.3656 429.501 101.219 424.422 110.062 423.949C108.999 427.665 106.098 430.545 102.771 432.293C99.3607 433.875 95.7554 434.963 92.0574 435.525C90.6331 435.811 88.6775 436.129 87.806 437.284" fill="#E0E0E0"/>
<path d="M84.2037 414.606C85.6056 410.221 86.5603 405.696 87.0521 401.106C87.5461 396.487 86.6399 391.824 84.4588 387.761C80.1436 396.39 79.7078 406.449 84.0761 415.078" fill="#E0E0E0"/>
<path d="M98.7212 407.042C103.77 397.566 114.058 389.992 124.464 388.926C120.446 399.27 109.499 407.262 98.7212 407.042Z" fill="#E0E0E0"/>
<path d="M95.5542 408.878C103.069 410.066 109.478 415.035 116.503 418.047C117.978 418.777 119.612 419.099 121.243 418.981C122.001 418.971 122.738 418.721 123.355 418.264C123.971 417.808 124.437 417.167 124.691 416.428C124.945 415.689 124.973 414.888 124.773 414.131C124.573 413.375 124.153 412.701 123.571 412.198C122.577 411.235 121.406 410.487 120.127 410C112.475 406.702 104.259 406.625 96.2025 408.626" fill="#E0E0E0"/>
<path d="M91.1963 414.33C92.8969 414.836 93.4814 415.748 94.8312 416.935C99.4424 420.988 104.9 423.878 110.774 425.378C111.38 425.532 112.177 425.598 112.485 425.037C112.793 424.477 112.411 423.938 112.071 423.498C109.527 420.402 106.222 418.074 102.505 416.76C98.8382 415.341 95.6603 413.638 91.2813 414.011" fill="#E0E0E0"/>
<path d="M86.2861 381.385C89.3709 384.326 93.0164 386.567 96.9885 387.964C100.961 389.361 105.171 389.884 109.35 389.498C109.738 389.51 110.117 389.373 110.413 389.113C110.997 388.453 110.296 387.442 109.626 386.914C102.845 381.418 94.6295 379.219 86.3074 381.418" fill="#E0E0E0"/>
<path d="M92.1108 379.175C96.1933 376.07 100.928 374.007 105.928 373.155C110.928 372.303 116.052 372.686 120.882 374.273C117.116 377.879 112.287 380.07 107.171 380.495C102.115 380.975 97.0168 380.529 92.1108 379.175Z" fill="#E0E0E0"/>
<path d="M89.7932 364.038C89.1342 357.035 89.5594 351.517 89.0917 344.481C89.0917 343.921 88.9429 343.25 88.4327 343.041C87.7206 342.766 87.1361 343.657 86.9022 344.404C85.9158 347.664 85.6625 351.113 86.1617 354.489C86.6609 357.865 87.8994 361.079 89.7826 363.884" fill="#E0E0E0"/>
<path d="M89.3052 364.807C93.7441 361.863 97.5706 358.032 100.561 353.54C102.772 350.407 104.642 346.658 104.143 342.811C102.583 342.853 101.052 343.247 99.6549 343.965C98.258 344.682 97.0292 345.707 96.0543 346.966C94.124 349.5 92.7201 352.419 91.9304 355.54C91.0376 358.618 90.4105 361.784 89.3477 364.807" fill="#E0E0E0"/>
<path d="M100.325 361.642C110.432 357.784 119.791 352.088 127.959 344.822C124.664 343.448 120.891 344.273 117.597 345.647C110.117 348.577 103.937 354.245 100.229 361.576" fill="#E0E0E0"/>
<path d="M92.4082 368.644C97.4863 369.39 102.639 369.415 107.724 368.721C112.687 367.864 117.385 365.819 122.019 363.807C122.425 363.682 122.772 363.408 122.997 363.038C123.067 362.815 123.071 362.575 123.009 362.35C122.946 362.125 122.82 361.924 122.646 361.773C122.288 361.483 121.87 361.28 121.424 361.18C116.376 359.729 110.934 360.41 105.97 362.136C101.243 363.811 96.6974 365.992 92.4082 368.644Z" fill="#E0E0E0"/>
<path d="M63.3592 381.627C59.8837 374.371 60.1706 365.907 63.1147 358.432C65.2405 361.73 65.4849 365.995 65.1023 369.963C64.7197 373.932 63.5505 377.999 63.4655 381.979" fill="#E0E0E0"/>
<path d="M49.4478 374.382C45.0988 374.322 40.7856 375.202 36.7846 376.966C32.7837 378.731 29.1832 381.34 26.2139 384.627C30.6063 385.172 35.055 384.321 38.9681 382.187C42.842 380.06 46.4959 377.529 49.873 374.635" fill="#E0E0E0"/>
<path d="M40.1155 371.15C35.864 370.798 31.7933 370.259 27.712 371.546C25.6527 372.145 23.7427 373.197 22.1121 374.629C20.4815 376.062 19.1687 377.841 18.2632 379.845C22.2661 380.177 26.2818 379.391 29.8908 377.57C33.4784 375.752 36.9004 373.603 40.1155 371.15Z" fill="#E0E0E0"/>
<path d="M53.9323 371.305C50.1167 368.721 46.1947 366.083 41.752 365.006C37.3093 363.928 32.1863 364.731 29.0615 368.194C32.654 370.392 37.0223 370.634 41.1993 370.634C45.3763 370.634 50.478 370.579 54.4106 372.019" fill="#E0E0E0"/>
<path d="M53.9542 371.513C47.4283 364.918 44.9625 352.979 47.5771 343.921C52.7266 352.078 54.9805 361.83 53.9542 371.513Z" fill="#E0E0E0"/>
<path d="M71.8628 352.737C73.0957 349.769 73.9885 346.668 75.0514 343.656C76.0576 340.6 77.6037 337.763 79.611 335.291C81.6446 332.784 84.5497 331.204 87.6993 330.894C86.6933 335.46 84.7788 339.759 82.0779 343.518C79.3769 347.277 75.9487 350.413 72.0116 352.726" fill="#E0E0E0"/>
<path d="M68.6745 356.651C66.6445 353.749 64.2849 349.813 61.5215 347.648C58.7581 345.482 55.1444 344.174 51.7964 344.998C53.5423 348.162 55.9764 350.862 58.9059 352.885C61.8354 354.907 65.1798 356.197 68.6745 356.651Z" fill="#E0E0E0"/>
<path d="M69.3019 352.978C67.8552 349.517 66.7858 345.9 66.1134 342.194C65.4455 338.444 66.0223 334.57 67.7502 331.201C71.332 338.204 72.4905 345.723 69.5252 353.033" fill="#E0E0E0"/>
<path d="M71.937 331.191C73.9671 324.254 80.1104 319.099 86.7532 316.79C87.5736 316.442 88.4638 316.306 89.3466 316.394C89.7878 316.442 90.2054 316.624 90.5461 316.917C90.8869 317.211 91.1353 317.603 91.2597 318.043C91.5041 319.22 90.5582 320.242 89.6654 321.067C84.4805 325.649 78.4488 329.094 71.937 331.191Z" fill="#E0E0E0"/>
<path d="M72.012 325.551C72.2671 321.066 72.5328 316.526 73.9464 312.282C75.36 308.039 78.0703 304.071 82.0135 302.213C82.6831 306.731 80.7593 311.227 78.4317 315.119C76.104 319.01 73.2981 322.682 71.9058 327.024" fill="#E0E0E0"/>
<path d="M71.863 328.63C70.1837 323.573 70.0136 317.142 67.0801 312.734C65.0288 309.656 61.7659 307.556 59.9909 304.291C58.925 307.421 59.0736 310.857 60.4054 313.877C61.7379 316.863 63.5734 319.58 65.826 321.902C67.9517 324.298 69.8436 326.101 71.863 328.63Z" fill="#E0E0E0"/>
<path d="M71.937 477.64C71.8094 477.64 71.6925 443.891 71.6819 402.261C71.6713 360.631 71.7775 326.871 71.9051 326.871C72.0326 326.871 72.1495 360.609 72.1602 402.261C72.1708 443.913 72.0645 477.64 71.937 477.64Z" fill="#E0E0E0"/>
<path d="M100.454 376.525C100.064 376.73 99.6543 376.892 99.2317 377.009L95.8519 378.185C93.0034 379.186 89.0921 380.637 84.8513 382.44C80.6105 384.242 76.678 385.814 74.4247 387.837C73.5117 388.611 72.7841 389.593 72.299 390.706C71.9695 391.498 71.9164 391.982 71.8739 391.982C71.8314 391.982 71.8739 391.85 71.8739 391.619C71.9279 391.286 72.0097 390.959 72.1183 390.64C72.544 389.463 73.2451 388.413 74.159 387.584C75.5223 386.392 77.0479 385.414 78.6868 384.682C80.4936 383.803 82.5024 382.89 84.6281 381.989C88.8795 380.186 92.8227 378.779 95.7031 377.856C97.1485 377.394 98.3177 377.053 99.1361 376.822C99.5654 376.681 100.007 376.581 100.454 376.525Z" fill="#E0E0E0"/>
<path d="M109.807 352.781C109.707 352.922 109.589 353.048 109.456 353.155L108.393 354.177L104.482 357.849L91.4726 369.831C86.3922 374.514 82.0026 378.978 78.9628 382.341C77.4323 384.023 76.2313 385.419 75.4129 386.387L74.4669 387.486C74.3682 387.624 74.2499 387.747 74.1162 387.849C74.1955 387.695 74.2918 387.551 74.4032 387.42C74.5945 387.145 74.8815 386.739 75.2747 386.244C76.0506 385.233 77.2197 383.803 78.7184 382.089C82.6442 377.65 86.7952 373.43 91.1538 369.447C96.2554 364.786 100.889 360.586 104.259 357.574C105.917 356.101 107.277 354.903 108.266 354.012L109.329 353.067C109.475 352.95 109.635 352.853 109.807 352.781Z" fill="#E0E0E0"/>
<path d="M86.0092 374.591C85.8711 374.525 86.9339 371.997 87.9968 368.787C89.0596 365.577 89.5592 362.883 89.6973 362.905C89.5871 364.973 89.1639 367.009 88.4432 368.941C87.9867 370.311 87.458 371.654 86.8595 372.964C86.646 373.542 86.3601 374.089 86.0092 374.591Z" fill="#E0E0E0"/>
<path d="M71.9694 395.016C71.6715 394.739 71.4074 394.425 71.1829 394.082L69.1741 391.422C67.4948 389.168 65.1672 386.057 62.5525 382.627C59.9379 379.197 57.5465 376.174 55.8034 373.965L53.7946 371.37C53.5257 371.062 53.2871 370.727 53.0825 370.37C53.3928 370.634 53.6776 370.929 53.9328 371.25C54.4536 371.832 55.1976 372.701 56.0585 373.778C57.8654 375.977 60.3099 378.945 62.9245 382.352C65.5392 385.76 67.8243 388.948 69.4398 391.213C70.2582 392.312 70.8959 393.312 71.3317 393.972C71.5781 394.297 71.7918 394.647 71.9694 395.016Z" fill="#E0E0E0"/>
<path d="M65.7094 386.717C64.4493 385.275 63.5513 383.534 63.0948 381.649C62.5976 379.993 62.3959 378.257 62.4996 376.526H62.7122C62.6831 376.736 62.6145 376.937 62.5102 377.12C62.5102 377.12 62.5102 376.889 62.5102 376.493H62.7228C62.8222 378.179 63.1002 379.849 63.5518 381.473C64.1479 383.272 64.869 385.025 65.7094 386.717Z" fill="#E0E0E0"/>
<path d="M57.6417 376.262C57.0763 375.822 56.4627 375.453 55.8136 375.163C54.1684 374.649 52.436 374.507 50.7331 374.745C49.0087 374.875 47.2983 375.158 45.6208 375.591C44.9237 375.813 44.2137 375.99 43.4951 376.119C44.1157 375.723 44.794 375.434 45.5039 375.262C47.1867 374.723 48.9232 374.384 50.68 374.25C52.443 374.008 54.2365 374.208 55.9092 374.833C56.6294 375.087 57.2417 375.592 57.6417 376.262Z" fill="#E0E0E0"/>
<path d="M55.7296 373.667C55.7296 373.744 54.6667 373.228 52.9237 372.568C48.3814 370.969 43.5208 370.591 38.7983 371.469C36.9915 371.799 35.9074 372.15 35.8755 372.073C36.104 371.922 36.3555 371.81 36.6195 371.744C37.3146 371.492 38.0246 371.286 38.7452 371.128C41.1203 370.589 43.5586 370.412 45.9832 370.6C48.4036 370.796 50.784 371.351 53.0512 372.249C53.7358 372.521 54.4032 372.836 55.0494 373.195C55.2982 373.315 55.5276 373.475 55.7296 373.667Z" fill="#E0E0E0"/>
<path d="M71.8625 362.905C71.0303 360.505 70.3487 358.053 69.8218 355.562C69.1352 353.112 68.6027 350.619 68.2275 348.098C69.0605 350.498 69.7457 352.951 70.2788 355.441C70.9592 357.892 71.4882 360.385 71.8625 362.905Z" fill="#E0E0E0"/>
<path d="M72.0324 362.905C71.379 361.386 70.6225 359.917 69.7685 358.508C68.8114 357.175 67.6894 355.977 66.4312 354.946C66.9056 355.072 67.3456 355.309 67.7172 355.639C68.6645 356.351 69.4876 357.224 70.1511 358.222C71.1666 359.584 71.8156 361.2 72.0324 362.905Z" fill="#E0E0E0"/>
<path d="M71.9372 459.643C71.9372 459.643 71.7884 458.83 71.4164 457.445C70.8954 455.428 70.1833 453.469 69.2907 451.596C66.1482 445.491 62.2619 439.827 57.7269 434.744C55.1441 431.688 52.6358 428.808 50.5101 426.049C48.5966 423.627 46.8695 421.054 45.3446 418.354C44.319 416.529 43.4478 414.617 42.7406 412.637C42.4962 411.934 42.3261 411.384 42.2305 411.01C42.1683 410.821 42.1221 410.626 42.0923 410.428C42.0923 410.428 42.3686 411.197 42.9107 412.571C43.6829 414.507 44.5924 416.381 45.6316 418.178C47.189 420.836 48.9295 423.375 50.8396 425.774C52.9653 428.5 55.4949 431.358 58.0776 434.414C62.6457 439.529 66.5215 445.261 69.5989 451.454C70.4873 453.354 71.175 455.348 71.6502 457.401C71.7761 457.959 71.8719 458.524 71.9372 459.094C71.9535 459.277 71.9535 459.461 71.9372 459.643Z" fill="#E0E0E0"/>
<path d="M97.7118 429.545C97.2751 429.829 96.8246 430.089 96.362 430.325C95.1373 431.033 93.9649 431.834 92.8546 432.722C91.2096 434.038 89.6705 435.49 88.2524 437.064C86.6369 438.823 84.9789 440.867 83.2783 443.066C79.8878 447.463 76.7099 451.377 74.7755 454.488C73.8083 456.027 73.1068 457.324 72.6498 458.236C72.4313 458.722 72.1828 459.192 71.9058 459.643C71.9058 459.643 71.9058 459.501 72.0333 459.248C72.1608 458.995 72.2671 458.621 72.4797 458.148C73.0829 456.827 73.7644 455.546 74.5204 454.312C77.1021 450.303 79.9019 446.449 82.9063 442.769C84.6069 440.571 86.2968 438.526 87.9442 436.756C89.3938 435.189 90.9688 433.751 92.6527 432.458C93.8011 431.569 95.0248 430.789 96.3089 430.127C96.6536 429.944 97.0085 429.783 97.3717 429.644C97.5914 429.556 97.7048 429.523 97.7118 429.545Z" fill="#E0E0E0"/>
<path d="M98.2105 439.307C97.2687 439.521 96.3132 439.664 95.3514 439.735C93.0579 439.978 90.7913 440.442 88.581 441.121C86.3949 441.855 84.346 442.971 82.5228 444.419C81.1304 445.518 80.4715 446.452 80.3971 446.408C80.3227 446.364 80.5033 446.133 80.8116 445.727C81.2555 445.153 81.754 444.626 82.2996 444.155C84.1078 442.593 86.19 441.406 88.4322 440.659C90.6701 439.968 92.9776 439.548 95.3089 439.406C96.2711 439.281 97.2424 439.248 98.2105 439.307Z" fill="#E0E0E0"/>
<path d="M81.2379 445.319C81.0891 445.231 82.3752 443.198 83.3636 440.46C84.3521 437.723 84.5221 435.283 84.6815 435.316C84.7723 435.839 84.7723 436.375 84.6815 436.899C84.5366 438.172 84.2586 439.425 83.8525 440.636C83.4154 441.832 82.8597 442.978 82.1945 444.055C81.9473 444.53 81.6238 444.957 81.2379 445.319Z" fill="#E0E0E0"/>
<path d="M106.054 403.315C105.916 403.424 105.762 403.509 105.597 403.568L104.258 404.195C103.663 404.459 102.951 404.789 102.132 405.228C101.314 405.668 100.379 406.108 99.4009 406.712L97.8491 407.625C97.307 407.954 96.7862 408.328 96.2017 408.724C95.0538 409.439 93.9059 410.329 92.673 411.23C90.0679 413.275 87.6098 415.512 85.3181 417.925C83.069 420.365 80.9979 422.974 79.1216 425.73C78.282 427.038 77.4636 428.259 76.8046 429.468C76.4751 430.061 76.1244 430.633 75.8268 431.205L75.0509 432.854C74.4982 433.887 74.1049 434.876 73.7117 435.723C73.3184 436.569 73.0208 437.317 72.787 437.921C72.5532 438.526 72.3725 438.955 72.2237 439.328C72.1654 439.497 72.0906 439.659 72.0005 439.812C72.0208 439.634 72.0674 439.459 72.1387 439.295L72.6169 437.855C72.8295 437.229 73.0952 436.459 73.4672 435.602C73.8392 434.744 74.2112 433.733 74.7533 432.689C75.0084 432.15 75.2847 431.589 75.5611 431.018C75.8374 430.446 76.1881 429.918 76.5282 429.259C77.1766 428.028 77.9844 426.796 78.8134 425.477C82.5441 419.835 87.1687 414.885 92.4923 410.835C93.7359 409.933 94.905 409.054 96.0635 408.35C96.6481 407.987 97.1901 407.603 97.7322 407.251L99.3158 406.35C100.315 405.767 101.271 405.338 102.09 404.931C102.782 404.574 103.491 404.255 104.216 403.975L105.597 403.425C105.746 403.373 105.899 403.336 106.054 403.315Z" fill="#E0E0E0"/>
<path d="M85.6802 417.452C85.8486 416.775 86.2208 416.171 86.743 415.727C88.0004 414.595 89.6043 413.96 91.2708 413.935C92.8999 413.927 94.5144 414.252 96.0217 414.891C96.6583 415.103 97.2629 415.407 97.818 415.793C97.1674 415.666 96.5302 415.475 95.9155 415.221C94.4249 414.688 92.8586 414.417 91.2814 414.418C89.7177 414.453 88.2058 415.004 86.9662 415.99C86.5008 416.442 86.0707 416.931 85.6802 417.452Z" fill="#E0E0E0"/>
<path d="M82.6079 420.706C83.2129 419.329 83.6451 417.877 83.894 416.386C83.98 414.877 83.8836 413.363 83.607 411.879C83.8805 412.25 84.0628 412.683 84.1384 413.143C84.6881 415.316 84.4263 417.624 83.4051 419.607C83.0012 420.354 82.6504 420.739 82.6079 420.706Z" fill="#E0E0E0"/>
<path d="M49.394 464.48C50.0955 477.386 53.858 490.501 59.64 503.769H84.7764C90.2926 490.633 93.7894 477.54 94.4059 464.48H49.394Z" fill="#E0E0E0"/>
<path d="M90.3357 485.357C90.3357 485.489 82.056 485.598 71.8527 485.598C61.6493 485.598 53.3696 485.489 53.3696 485.357C53.3696 485.225 61.6386 485.093 71.8633 485.093C82.0879 485.093 90.3357 485.225 90.3357 485.357Z" fill="#FAFAFA"/>
<path d="M89.772 490.028C89.772 490.16 82.0131 490.27 72.4474 490.27C62.8818 490.27 55.1123 490.16 55.1123 490.028C55.1123 489.896 62.8711 489.786 72.4474 489.786C82.0238 489.786 89.772 489.896 89.772 490.028Z" fill="#FAFAFA"/>
<path d="M60.0444 473C60.3562 476.984 60.3562 480.987 60.0444 484.971C59.7326 480.987 59.7326 476.984 60.0444 473Z" fill="#FAFAFA"/>
<path d="M73.5102 473C73.822 477.127 73.822 481.273 73.5102 485.4C73.1984 481.273 73.1984 477.127 73.5102 473Z" fill="#FAFAFA"/>
<path d="M86.1582 472.847C86.4699 477.058 86.4699 481.288 86.1582 485.5C85.8464 481.288 85.8464 477.058 86.1582 472.847Z" fill="#FAFAFA"/>
<path d="M93.6086 473C93.6086 473.132 83.9047 473.242 71.937 473.242C59.9692 473.242 50.2441 473.132 50.2441 473C50.2441 472.868 59.9586 472.758 71.937 472.758C83.9153 472.758 93.6086 472.813 93.6086 473Z" fill="#FAFAFA"/>
<path d="M483.602 352.66C485.902 351.609 487.854 349.884 489.216 347.698C490.578 345.511 491.291 342.96 491.265 340.359C491.265 333.016 485.951 327.036 479.266 327.014C472.58 326.992 467.181 332.906 467.16 340.205C467.112 342.826 467.814 345.404 469.18 347.612C470.546 349.821 472.513 351.562 474.834 352.616C456.287 355.508 457.126 376.35 457.126 376.35L500.99 376.559C500.99 376.559 501.989 355.53 483.602 352.66Z" fill="#EBEBEB"/>
<path d="M286.421 49.5612C288.037 49.233 289.526 48.4267 290.707 47.2402C291.888 46.0538 292.711 44.5382 293.075 42.8774C293.377 41.8117 293.467 40.6934 293.337 39.5908C293.208 38.4882 292.863 37.4243 292.324 36.4641C291.784 35.5038 291.061 34.6673 290.198 34.0056C289.336 33.3438 288.352 32.8707 287.307 32.6151C286.262 32.3595 285.178 32.3266 284.12 32.5187C283.062 32.7107 282.054 33.1235 281.155 33.732C280.257 34.3404 279.488 35.1318 278.895 36.0577C278.302 36.9837 277.897 38.0249 277.706 39.1178C277.297 40.7845 277.376 42.5393 277.932 44.1597C278.488 45.7801 279.497 47.1932 280.831 48.22C268.576 47.2197 266.142 60.6531 266.142 60.6531L294.095 67.5017C294.095 67.5017 297.751 54.1672 286.421 49.5612Z" fill="#EBEBEB"/>
<path d="M484.804 161.47C486.144 160.603 487.209 159.349 487.866 157.861C488.524 156.374 488.745 154.721 488.502 153.105C488.422 152.035 488.131 150.994 487.647 150.045C487.163 149.096 486.496 148.26 485.687 147.589C484.878 146.917 483.945 146.424 482.944 146.14C481.944 145.856 480.898 145.787 479.871 145.938C478.844 146.089 477.858 146.455 476.973 147.016C476.089 147.576 475.324 148.318 474.728 149.195C474.131 150.073 473.715 151.068 473.505 152.118C473.295 153.169 473.295 154.253 473.506 155.303C473.701 156.939 474.363 158.478 475.405 159.725C476.448 160.971 477.825 161.87 479.362 162.306C468.085 165.835 470.413 178.718 470.413 178.718L497.707 174.772C497.707 174.772 496.484 161.547 484.804 161.47Z" fill="#F5F5F5"/>
<path d="M46.8648 165.461L32.123 153.336L36.2044 148.015L46.0996 156.139L60.5331 139.44L65.4329 143.97L46.8648 165.461Z" fill="#F5F5F5"/>
<path d="M493.455 504.155C493.455 504.32 387.01 504.441 255.748 504.441C124.485 504.441 18.019 504.32 18.019 504.155C18.019 503.99 124.432 503.869 255.748 503.869C387.063 503.869 493.455 504.001 493.455 504.155Z" fill="#263238"/>
<path d="M66.9755 183.017L34.3778 199.935C33.1952 200.468 32.1895 201.347 31.4849 202.465C30.7803 203.582 30.4078 204.889 30.4133 206.223V221.998C30.3759 236.347 34.4155 250.392 42.0303 262.386C47.9079 271.642 55.6986 283.471 68.6548 290.232H74.5005C88.9341 285.68 99.7008 273.555 106.28 263.178C113.898 251.184 117.941 237.14 117.907 222.79V206.223C117.906 204.884 117.524 203.574 116.81 202.456C116.096 201.338 115.081 200.462 113.89 199.935L76.7006 183.567C75.0532 182.841 68.6761 182.291 66.9755 183.017Z" fill="#FF725E"/>
<path opacity="0.3" d="M66.9755 183.017L34.3778 199.935C33.1952 200.468 32.1895 201.347 31.4849 202.465C30.7803 203.582 30.4078 204.889 30.4133 206.223V221.998C30.3759 236.347 34.4155 250.392 42.0303 262.386C47.9079 271.642 55.6986 283.471 68.6548 290.232H74.5005C88.9341 285.68 99.7008 273.555 106.28 263.178C113.898 251.184 117.941 237.14 117.907 222.79V206.223C117.906 204.884 117.524 203.574 116.81 202.456C116.096 201.338 115.081 200.462 113.89 199.935L76.7006 183.567C75.0532 182.841 68.6761 182.291 66.9755 183.017Z" fill="black"/>
<path d="M65.6682 183.567L28.5215 199.935C27.3306 200.462 26.3153 201.339 25.6012 202.456C24.8871 203.574 24.5056 204.884 24.5039 206.223V221.998C24.5047 236.608 28.695 250.889 36.5445 263.034C44.3941 275.18 55.5503 284.645 68.6017 290.232C83.0246 285.681 93.7913 273.555 100.381 263.178C107.999 251.184 112.042 237.14 112.009 222.79V206.223C112.008 204.885 111.628 203.576 110.916 202.459C110.204 201.341 109.191 200.464 108.002 199.935L70.8018 183.567C69.9891 183.214 69.1165 183.032 68.235 183.032C67.3536 183.032 66.481 183.214 65.6682 183.567Z" fill="#FF725E"/>
<path opacity="0.3" d="M77.0705 255.117C89.6085 250.087 95.8302 235.497 90.967 222.529C86.1038 209.561 71.9974 203.126 59.4594 208.156C46.9214 213.186 40.6997 227.776 45.5629 240.744C50.426 253.712 64.5325 260.147 77.0705 255.117Z" fill="black"/>
<path d="M68.2513 233.035C73.8336 233.035 78.359 228.354 78.359 222.58C78.359 216.807 73.8336 212.126 68.2513 212.126C62.6689 212.126 58.1436 216.807 58.1436 222.58C58.1436 228.354 62.6689 233.035 68.2513 233.035Z" fill="white"/>
<path d="M49.7998 248.052C51.4254 244.534 53.9908 241.572 57.1928 239.515C60.3947 237.457 64.0992 236.392 67.8683 236.443C71.7332 236.444 75.5263 237.522 78.8483 239.565C82.1703 241.608 84.8982 244.54 86.7446 248.052C86.7446 248.052 80.782 257.176 67.6132 256.846C64.2004 256.832 60.8329 256.036 57.7529 254.515C54.6729 252.995 51.9568 250.787 49.7998 248.052Z" fill="white"/>
<path d="M92.6005 231.639C92.5884 231.504 92.5884 231.367 92.6005 231.232C92.6005 230.935 92.6005 230.54 92.5049 230.045C92.5049 229.781 92.5049 229.484 92.5049 229.166C92.5049 228.847 92.3986 228.495 92.3454 228.066C92.2346 227.194 92.0641 226.33 91.8353 225.483C91.2574 223.135 90.3439 220.89 89.125 218.821C87.5262 216.076 85.4337 213.673 82.9604 211.742C79.9726 209.392 76.4917 207.802 72.7995 207.103C68.5607 206.296 64.1904 206.675 60.141 208.202C59.0451 208.595 57.9793 209.073 56.9524 209.631C55.9256 210.213 54.9384 210.867 53.9977 211.588C53.0409 212.332 52.1287 213.136 51.2661 213.995C50.4207 214.902 49.6325 215.864 48.9066 216.875C47.4187 218.96 46.2599 221.275 45.4736 223.735C43.8154 228.835 43.8154 234.355 45.4736 239.455C46.2552 241.917 47.4143 244.233 48.9066 246.315C49.6325 247.33 50.4206 248.295 51.2661 249.206C52.1261 250.064 53.0384 250.865 53.9977 251.602C55.8429 253.058 57.8981 254.204 60.0878 254.999C64.1372 256.526 68.5076 256.905 72.7464 256.098C76.1128 255.443 79.3074 254.059 82.1208 252.038C84.9342 250.016 87.3029 247.403 89.0718 244.369C90.2772 242.314 91.1765 240.083 91.7396 237.751C91.9675 236.9 92.138 236.033 92.2498 235.157C92.2498 234.783 92.3773 234.431 92.4092 234.057C92.4411 233.684 92.4092 233.442 92.4092 233.178L92.5049 231.98C92.494 231.844 92.494 231.708 92.5049 231.573C92.5163 231.708 92.5163 231.844 92.5049 231.98C92.5049 232.288 92.5049 232.683 92.5049 233.189C92.5049 233.453 92.5049 233.75 92.5049 234.068C92.5049 234.387 92.4198 234.75 92.3667 235.168C92.2817 236.055 92.1253 236.934 91.899 237.795C91.3597 240.176 90.467 242.457 89.2525 244.556C86.3643 249.656 81.8398 253.548 76.4652 255.556C71.0906 257.565 65.2056 257.562 59.8327 255.549C58.7387 255.142 57.6733 254.657 56.6442 254.098C55.5979 253.489 54.5962 252.802 53.6469 252.042C52.6583 251.292 51.7208 250.473 50.841 249.59C49.9949 248.677 49.2068 247.707 48.4815 246.688C46.9514 244.56 45.7602 242.192 44.9528 239.675C44.1456 237.077 43.7193 234.368 43.688 231.639C43.7175 228.909 44.1476 226.2 44.9634 223.603C45.7628 221.084 46.9508 218.716 48.4815 216.59C49.2287 215.556 50.0381 214.572 50.9048 213.643C51.7814 212.761 52.7153 211.942 53.7001 211.192C54.6425 210.448 55.6333 209.772 56.6654 209.169C57.6943 208.606 58.7597 208.118 59.854 207.707C63.9872 206.158 68.4452 205.779 72.7677 206.608C76.1963 207.29 79.4445 208.721 82.2949 210.807C85.1452 212.892 87.5319 215.583 89.295 218.7C90.5097 220.803 91.4025 223.087 91.9415 225.472C92.1677 226.329 92.3241 227.204 92.4092 228.088C92.4092 228.473 92.5261 228.825 92.5474 229.188V230.078C92.5474 230.584 92.5474 230.979 92.5474 231.276C92.5748 231.395 92.5926 231.517 92.6005 231.639Z" fill="#263238"/>
<path d="M111.882 218.514C111.931 218.756 111.956 219.003 111.956 219.25C111.956 219.778 111.956 220.47 112.041 221.339C112.126 222.207 112.126 223.351 112.041 224.637C112.041 225.285 112.041 225.967 112.041 226.703C112.041 227.44 112.041 228.209 111.903 229.012C111.754 230.628 111.648 232.409 111.318 234.3C111.18 235.245 111.063 236.223 110.872 237.224C110.681 238.224 110.447 239.246 110.234 240.302C109.212 244.846 107.789 249.284 105.983 253.559C104.116 257.813 101.886 261.885 99.3188 265.729C98.0859 267.454 96.9487 269.125 95.7158 270.565C95.1206 271.291 94.5679 272.028 93.9833 272.676L92.2934 274.523C91.2305 275.743 90.1677 276.722 89.2536 277.59C88.4888 278.368 87.6834 279.102 86.8409 279.789L85.2679 281.108C85.0954 281.268 84.9065 281.408 84.7046 281.525C84.8557 281.341 85.0229 281.172 85.2041 281.02L86.7028 279.624C87.3723 279.03 88.1695 278.294 89.041 277.425C89.9126 276.557 90.9754 275.534 92.0064 274.314L93.6644 272.445C94.2384 271.797 94.7273 271.06 95.365 270.335C96.566 268.895 97.682 267.224 98.9043 265.487C101.427 261.66 103.625 257.614 105.473 253.394C107.269 249.138 108.692 244.723 109.724 240.203L110.383 237.147C110.574 236.157 110.702 235.179 110.861 234.245C111.202 232.376 111.329 230.606 111.499 229.001C111.595 228.198 111.659 227.429 111.68 226.703L111.775 224.648C111.871 223.362 111.85 222.251 111.85 221.35C111.85 220.448 111.85 219.8 111.85 219.261C111.842 219.012 111.853 218.762 111.882 218.514Z" fill="#263238"/>
<path d="M370.324 504.155H119.001C117.355 504.126 115.73 503.762 114.219 503.083C112.709 502.405 111.342 501.425 110.198 500.2C109.054 498.974 108.155 497.528 107.552 495.943C106.948 494.358 106.653 492.666 106.683 490.963V93.6545C106.653 91.9515 106.948 90.2591 107.552 88.6742C108.155 87.0893 109.054 85.643 110.198 84.4178C111.342 83.1927 112.709 82.2128 114.219 81.5342C115.73 80.8555 117.355 80.4915 119.001 80.4629H370.324C371.97 80.4915 373.594 80.8556 375.104 81.5344C376.614 82.2131 377.979 83.1932 379.123 84.4185C380.266 85.6438 381.164 87.0902 381.766 88.6751C382.368 90.2599 382.662 91.952 382.631 93.6545V490.985C382.66 492.686 382.363 494.375 381.76 495.958C381.157 497.54 380.258 498.984 379.115 500.207C377.972 501.43 376.607 502.408 375.099 503.085C373.591 503.763 371.968 504.126 370.324 504.155Z" fill="#263238"/>
<path d="M249.478 484.884C249.518 487.284 248.866 489.642 247.606 491.658C246.346 493.674 244.535 495.256 242.402 496.203C240.27 497.151 237.913 497.42 235.632 496.978C233.351 496.535 231.249 495.4 229.593 493.717C227.938 492.035 226.804 489.881 226.337 487.53C225.869 485.178 226.088 482.736 226.967 480.515C227.846 478.293 229.344 476.392 231.27 475.054C233.197 473.716 235.465 473.001 237.786 473C240.86 472.974 243.818 474.211 246.01 476.439C248.202 478.667 249.45 481.705 249.478 484.884Z" fill="#455A64"/>
<path d="M272.935 102.867H216.603C216.079 102.858 215.561 102.743 215.079 102.527C214.597 102.311 214.161 101.999 213.796 101.61C213.431 101.22 213.144 100.759 212.951 100.254C212.758 99.7494 212.662 99.2102 212.671 98.6673C212.654 97.57 213.058 96.5105 213.796 95.7212C214.533 94.9319 215.543 94.4773 216.603 94.457H272.935C273.996 94.4773 275.005 94.9319 275.743 95.7212C276.48 96.5105 276.884 97.57 276.867 98.6673C276.876 99.2102 276.781 99.7494 276.588 100.254C276.395 100.759 276.107 101.22 275.742 101.61C275.377 101.999 274.941 102.311 274.459 102.527C273.978 102.743 273.46 102.858 272.935 102.867Z" fill="#455A64"/>
<path d="M373.704 110.705H115.154V464.525H373.704V110.705Z" fill="white"/>
<path d="M373.704 110.705H362.671V464.525H373.704V110.705Z" fill="#F5F5F5"/>
<path d="M368.177 237.828C367.266 237.825 366.393 237.448 365.749 236.781C365.105 236.113 364.744 235.209 364.744 234.266V156.007C364.744 155.064 365.105 154.16 365.749 153.492C366.393 152.825 367.266 152.448 368.177 152.445C369.09 152.445 369.966 152.821 370.612 153.489C371.258 154.156 371.621 155.062 371.621 156.007V234.266C371.621 235.211 371.258 236.117 370.612 236.785C369.966 237.453 369.09 237.828 368.177 237.828Z" fill="#E0E0E0"/>
<path d="M339.979 191.229H149.345C147.891 191.229 146.496 190.631 145.467 189.567C144.439 188.503 143.861 187.061 143.861 185.556C143.861 184.052 144.439 182.609 145.467 181.545C146.496 180.481 147.891 179.884 149.345 179.884H339.979C341.433 179.884 342.828 180.481 343.857 181.545C344.885 182.609 345.463 184.052 345.463 185.556C345.463 187.061 344.885 188.503 343.857 189.567C342.828 190.631 341.433 191.229 339.979 191.229Z" fill="#E0E0E0"/>
<path d="M310.655 149.807H190.733C189.278 149.807 187.883 149.209 186.855 148.145C185.826 147.082 185.249 145.639 185.249 144.134C185.249 142.63 185.826 141.187 186.855 140.123C187.883 139.06 189.278 138.462 190.733 138.462H310.655C312.109 138.462 313.504 139.06 314.533 140.123C315.561 141.187 316.139 142.63 316.139 144.134C316.139 145.639 315.561 147.082 314.533 148.145C313.504 149.209 312.109 149.807 310.655 149.807Z" fill="#FF725E"/>
<path d="M312.909 214.061H176.417C174.963 214.061 173.568 213.463 172.539 212.399C171.511 211.335 170.933 209.893 170.933 208.388C170.933 206.884 171.511 205.441 172.539 204.377C173.568 203.313 174.963 202.716 176.417 202.716H312.909C313.629 202.716 314.342 202.863 315.008 203.148C315.673 203.433 316.278 203.85 316.787 204.377C317.296 204.904 317.7 205.529 317.976 206.217C318.252 206.906 318.393 207.643 318.393 208.388C318.393 209.133 318.252 209.871 317.976 210.559C317.7 211.247 317.296 211.872 316.787 212.399C316.278 212.926 315.673 213.344 315.008 213.629C314.342 213.914 313.629 214.061 312.909 214.061Z" fill="#E0E0E0"/>
<path d="M251.283 313.603H146.263C144.808 313.603 143.413 313.005 142.385 311.941C141.356 310.877 140.778 309.435 140.778 307.93C140.778 307.185 140.92 306.448 141.196 305.759C141.471 305.071 141.875 304.446 142.385 303.919C142.894 303.392 143.499 302.975 144.164 302.69C144.829 302.405 145.542 302.258 146.263 302.258H251.283C252.003 302.258 252.717 302.405 253.382 302.69C254.047 302.975 254.652 303.392 255.161 303.919C255.67 304.446 256.074 305.071 256.35 305.759C256.626 306.448 256.768 307.185 256.768 307.93C256.768 309.435 256.19 310.877 255.161 311.941C254.133 313.005 252.738 313.603 251.283 313.603Z" fill="#E0E0E0"/>
<path d="M336.896 289.824H146.263C144.808 289.824 143.413 289.226 142.385 288.163C141.356 287.099 140.778 285.656 140.778 284.152C140.778 283.407 140.92 282.67 141.196 281.983C141.472 281.295 141.876 280.67 142.385 280.145C142.895 279.619 143.499 279.202 144.165 278.918C144.83 278.634 145.543 278.489 146.263 278.49H336.896C337.616 278.489 338.329 278.634 338.994 278.918C339.659 279.202 340.264 279.619 340.773 280.145C341.283 280.67 341.687 281.295 341.963 281.983C342.238 282.67 342.38 283.407 342.38 284.152C342.38 284.897 342.239 285.634 341.963 286.322C341.687 287.011 341.283 287.636 340.774 288.163C340.265 288.689 339.66 289.107 338.995 289.392C338.329 289.677 337.616 289.824 336.896 289.824Z" fill="#E0E0E0"/>
<path d="M336.896 354.99H170.039C167.01 354.99 164.554 357.53 164.554 360.663C164.554 363.795 167.01 366.335 170.039 366.335H336.896C339.925 366.335 342.38 363.795 342.38 360.663C342.38 357.53 339.925 354.99 336.896 354.99Z" fill="#E0E0E0"/>
<path d="M336.896 390.553H146.263C144.808 390.553 143.413 389.956 142.385 388.892C141.356 387.828 140.778 386.385 140.778 384.881C140.784 383.38 141.364 381.943 142.392 380.884C143.42 379.825 144.812 379.23 146.263 379.23H336.896C337.616 379.23 338.329 379.377 338.995 379.662C339.66 379.947 340.265 380.365 340.774 380.892C341.283 381.419 341.687 382.044 341.963 382.732C342.239 383.42 342.38 384.158 342.38 384.903C342.375 386.403 341.794 387.841 340.767 388.9C339.739 389.959 338.347 390.553 336.896 390.553Z" fill="#E0E0E0"/>
<path d="M336.896 415.199H146.263C144.808 415.199 143.413 414.602 142.385 413.538C141.356 412.474 140.778 411.031 140.778 409.527C140.778 408.022 141.356 406.58 142.385 405.516C143.413 404.452 144.808 403.854 146.263 403.854H336.896C337.616 403.854 338.329 404.001 338.995 404.286C339.66 404.571 340.265 404.989 340.774 405.516C341.283 406.043 341.687 406.668 341.963 407.356C342.239 408.044 342.38 408.782 342.38 409.527C342.38 411.031 341.803 412.474 340.774 413.538C339.746 414.602 338.351 415.199 336.896 415.199Z" fill="#E0E0E0"/>
<path d="M154.841 360.663C154.841 361.829 154.506 362.968 153.88 363.937C153.253 364.907 152.363 365.662 151.321 366.108C150.28 366.553 149.134 366.669 148.028 366.441C146.923 366.213 145.908 365.65 145.112 364.825C144.315 364 143.774 362.949 143.555 361.806C143.336 360.662 143.451 359.477 143.883 358.4C144.316 357.324 145.048 356.404 145.986 355.758C146.925 355.112 148.027 354.768 149.154 354.771C150.663 354.773 152.11 355.395 153.176 356.5C154.242 357.605 154.841 359.102 154.841 360.663Z" fill="#FF725E"/>
<path d="M336.897 267.673H170.029C168.575 267.673 167.18 267.075 166.151 266.011C165.123 264.948 164.545 263.505 164.545 262.001C164.545 260.496 165.123 259.053 166.151 257.99C167.18 256.926 168.575 256.328 170.029 256.328H336.897C337.617 256.328 338.331 256.475 338.996 256.76C339.661 257.045 340.266 257.463 340.775 257.99C341.285 258.516 341.689 259.142 341.964 259.83C342.24 260.518 342.382 261.256 342.382 262.001C342.382 262.745 342.24 263.483 341.964 264.171C341.689 264.859 341.285 265.485 340.775 266.011C340.266 266.538 339.661 266.956 338.996 267.241C338.331 267.526 337.617 267.673 336.897 267.673Z" fill="#E0E0E0"/>
<path d="M149.155 267.893C152.302 267.893 154.852 265.255 154.852 262.001C154.852 258.746 152.302 256.108 149.155 256.108C146.009 256.108 143.458 258.746 143.458 262.001C143.458 265.255 146.009 267.893 149.155 267.893Z" fill="#FF725E"/>
<path d="M331.571 451.268H288.791C286.474 451.268 284.252 450.316 282.614 448.621C280.975 446.926 280.055 444.628 280.055 442.232C280.055 439.835 280.975 437.537 282.614 435.842C284.252 434.147 286.474 433.195 288.791 433.195H331.571C333.888 433.195 336.111 434.147 337.749 435.842C339.387 437.537 340.308 439.835 340.308 442.232C340.308 444.628 339.387 446.926 337.749 448.621C336.111 450.316 333.888 451.268 331.571 451.268Z" fill="#FF725E"/>
<path d="M111.186 24.8713L66.8442 47.8796C65.2216 48.5931 63.8376 49.7843 62.8644 51.3049C61.8912 52.8255 61.3717 54.6085 61.3705 56.4322V77.8905C61.318 97.4196 66.8178 116.534 77.1858 132.855C85.1784 145.409 95.7644 161.503 113.397 170.693H121.347C140.968 164.504 155.614 148.004 164.574 133.9C174.942 117.578 180.441 98.4639 180.389 78.9348V56.4322C180.391 54.6135 179.878 52.834 178.913 51.3139C177.947 49.7938 176.572 48.5998 174.958 47.8796L124.408 25.5858C122.155 24.6295 113.44 23.8819 111.186 24.8713Z" fill="#FF725E"/>
<path opacity="0.3" d="M111.186 24.8713L66.8442 47.8796C65.2216 48.5931 63.8376 49.7843 62.8644 51.3049C61.8912 52.8255 61.3717 54.6085 61.3705 56.4322V77.8905C61.318 97.4196 66.8178 116.534 77.1858 132.855C85.1784 145.409 95.7644 161.503 113.397 170.693H121.347C140.968 164.504 155.614 148.004 164.574 133.9C174.942 117.578 180.441 98.4639 180.389 78.9348V56.4322C180.391 54.6135 179.878 52.834 178.913 51.3139C177.947 49.7938 176.572 48.5998 174.958 47.8796L124.408 25.5858C122.155 24.6295 113.44 23.8819 111.186 24.8713Z" fill="black"/>
<path d="M109.401 25.5856L58.884 47.8793C57.2625 48.5933 55.88 49.7849 54.9086 51.3057C53.9372 52.8264 53.4198 54.6092 53.4209 56.4319V77.8902C53.4235 97.7598 59.1231 117.182 69.799 133.701C80.475 150.22 95.6475 163.093 113.398 170.693C133.018 164.504 147.664 148.003 156.613 133.899C166.986 117.58 172.486 98.4644 172.429 78.9345V56.4319C172.43 54.6092 171.912 52.8264 170.941 51.3057C169.97 49.7849 168.587 48.5933 166.966 47.8793L116.501 25.5856C115.379 25.0884 114.172 24.832 112.951 24.832C111.731 24.832 110.523 25.0884 109.401 25.5856Z" fill="#FF725E"/>
<path d="M172.27 73.1523C172.283 73.2361 172.283 73.3215 172.27 73.4052C172.27 73.6031 172.27 73.8449 172.27 74.1417C172.27 74.8453 172.323 75.7907 172.366 76.9889C172.408 78.1871 172.472 79.7262 172.366 81.485C172.366 82.3645 172.366 83.2989 172.281 84.2882C172.281 84.7939 172.281 85.2996 172.281 85.8273C172.281 86.3549 172.185 86.9266 172.132 87.4432C171.919 89.6418 171.781 92.0603 171.335 94.6217C171.133 95.8968 170.974 97.238 170.718 98.5901C170.463 99.9423 170.144 101.338 169.847 102.767C168.443 108.947 166.49 114.978 164.012 120.785C161.48 126.565 158.456 132.102 154.978 137.329C153.298 139.682 151.789 141.957 150.088 143.925C149.27 144.915 148.526 145.915 147.729 146.794L145.433 149.323C144.009 150.972 142.542 152.28 141.32 153.5C140.693 154.094 140.13 154.665 139.587 155.16L138.099 156.402L135.974 158.205L135.41 158.667C135.283 158.766 135.208 158.81 135.208 158.799C135.208 158.788 135.208 158.733 135.368 158.612L135.899 158.117L137.951 156.237L139.449 154.885C139.991 154.391 140.512 153.786 141.15 153.192C142.351 151.961 143.786 150.642 145.189 148.982L147.453 146.432C148.239 145.552 148.972 144.552 149.77 143.562C151.417 141.606 152.958 139.33 154.595 136.967C158.04 131.75 161.038 126.233 163.555 120.477C166.011 114.699 167.964 108.706 169.39 102.57C169.698 101.151 169.985 99.7664 170.283 98.4252C170.58 97.0841 170.708 95.7429 170.92 94.4678C171.388 91.9174 171.547 89.5099 171.781 87.3223C171.845 86.7837 171.898 86.223 171.951 85.7283C172.004 85.2336 171.951 84.695 172.015 84.2003C172.058 83.2109 172.1 82.2765 172.143 81.3971C172.26 79.6492 172.228 78.0992 172.228 76.912V74.1527V73.4052C172.226 73.3188 172.24 73.2329 172.27 73.1523Z" fill="#263238"/>
<path d="M132.934 101.988H127.545V71.6579C127.45 68.2902 126.09 65.0933 123.753 62.7459C121.416 60.3985 118.287 59.0854 115.03 59.0854C111.772 59.0854 108.643 60.3985 106.306 62.7459C103.97 65.0933 102.61 68.2902 102.515 71.6579V101.988H97.126V71.6579C97.2398 66.8248 99.1761 62.2293 102.521 58.8527C105.867 55.4761 110.356 53.5859 115.03 53.5859C119.704 53.5859 124.193 55.4761 127.538 58.8527C130.883 62.2293 132.82 66.8248 132.934 71.6579V101.988Z" fill="#F5F5F5"/>
<path d="M132.987 81.4082H97.0834C93.6729 81.4082 90.9082 84.2677 90.9082 87.7951V114.134C90.9082 117.662 93.6729 120.521 97.0834 120.521H132.987C136.397 120.521 139.162 117.662 139.162 114.134V87.7951C139.162 84.2677 136.397 81.4082 132.987 81.4082Z" fill="white"/>
<path d="M132.987 120.521C133.528 120.462 134.064 120.366 134.592 120.235C135.88 119.851 137.01 119.041 137.811 117.929C138.611 116.818 139.037 115.465 139.024 114.079C139.024 112.793 139.024 111.397 139.024 109.891C139.024 106.89 139.024 103.471 139.024 99.6894C139.024 95.9078 139.024 91.7854 139.024 87.3442C138.944 86.2373 138.576 85.1735 137.958 84.2657C137.341 83.358 136.497 82.6401 135.517 82.1885C134.471 81.7433 133.338 81.5624 132.211 81.6609H128.64L97.084 81.6499C95.7576 81.6494 94.4698 82.1113 93.4284 82.961C92.387 83.8106 91.6529 84.9986 91.3446 86.3329C91.2067 86.9972 91.1496 87.6767 91.1746 88.3556V94.5446C91.1746 100.041 91.1746 105.23 91.1746 110.232C91.2702 112.716 90.7707 115.277 92.0036 117.234C92.5494 118.195 93.3365 118.986 94.2815 119.522C95.2264 120.058 96.294 120.32 97.371 120.279H109.328L126.642 120.378H131.34H132.562C132.703 120.364 132.846 120.364 132.987 120.378C132.846 120.395 132.703 120.395 132.562 120.378H131.34H126.642L109.328 120.466H97.371C96.4928 120.507 95.6159 120.361 94.7943 120.037C93.9728 119.714 93.2241 119.219 92.5946 118.585C91.9651 117.95 91.4681 117.189 91.1343 116.348C90.8004 115.506 90.6369 114.603 90.6538 113.694V110.232C90.6538 105.23 90.6538 99.9862 90.6538 94.5446V88.3996C90.6218 87.6617 90.6826 86.9227 90.8345 86.201C91.1798 84.7602 91.9849 83.4821 93.1196 82.5733C94.2636 81.6374 95.6786 81.1263 97.1372 81.1222H128.576H132.148C133.346 81.0276 134.548 81.2311 135.655 81.7158C136.712 82.204 137.621 82.9807 138.284 83.9626C138.947 84.9445 139.339 86.0945 139.417 87.2893C139.417 91.7744 139.417 95.8858 139.417 99.6674C139.417 103.449 139.417 106.868 139.417 109.869C139.417 111.375 139.417 112.771 139.417 114.057C139.419 115.261 139.095 116.441 138.482 117.465C137.649 118.887 136.309 119.913 134.752 120.323C134.181 120.502 133.582 120.57 132.987 120.521Z" fill="#263238"/>
<path d="M118.734 101.976C119.221 101.474 119.606 100.878 119.869 100.221C120.132 99.5646 120.266 98.8608 120.265 98.1502C120.271 97.1261 120 96.1205 119.484 95.2469C118.967 94.3733 118.224 93.6664 117.34 93.2059C116.455 92.7455 115.464 92.5498 114.478 92.641C113.491 92.7321 112.549 93.1064 111.758 93.7218C110.966 94.3371 110.356 95.1689 109.998 96.1235C109.639 97.078 109.545 98.1172 109.726 99.124C109.908 100.131 110.358 101.065 111.026 101.821C111.693 102.578 112.552 103.126 113.505 103.405L112.368 108.616H117.416L116.353 103.405C117.236 103.144 118.037 102.652 118.681 101.976" fill="#FF725E"/>
<path d="M447.923 141.2V185.743C448.019 193.438 449.114 205.531 437.295 205.135C427.102 204.035 424.392 193.999 424.317 186.809C424.317 183.402 424.243 180.554 424.211 180.214C424.211 180.214 413.051 179.268 412.105 167.858C411.648 162.361 411.606 150.917 411.68 140.573C411.725 135.215 413.719 130.072 417.263 126.165C420.808 122.258 425.645 119.875 430.812 119.488L431.874 119.411C443.428 119.236 448.115 129.272 447.923 141.2Z" fill="#FFBF9D"/>
<path d="M424.242 180.213C429.34 179.808 434.22 177.901 438.303 174.717C438.303 174.717 435.391 183.324 424.305 183.126L424.242 180.213Z" fill="#FF9A6C"/>
<path d="M430.567 145.256C430.79 145.487 432.065 144.42 433.904 144.376C435.743 144.332 437.093 145.256 437.326 145.014C437.56 144.772 437.199 144.475 436.593 144.047C435.784 143.485 434.825 143.2 433.851 143.233C432.885 143.265 431.953 143.615 431.194 144.233C430.641 144.717 430.46 145.146 430.567 145.256Z" fill="#263238"/>
<path d="M430.534 150.653C430.556 151.058 430.731 151.437 431.021 151.708C431.312 151.98 431.694 152.122 432.086 152.104C432.276 152.106 432.465 152.068 432.641 151.992C432.817 151.917 432.977 151.806 433.111 151.665C433.245 151.525 433.35 151.358 433.42 151.175C433.491 150.991 433.525 150.795 433.52 150.598C433.496 150.197 433.321 149.821 433.034 149.55C432.746 149.28 432.368 149.135 431.979 149.147C431.789 149.147 431.6 149.186 431.424 149.262C431.248 149.338 431.088 149.449 430.953 149.589C430.819 149.729 430.713 149.895 430.641 150.078C430.569 150.26 430.532 150.456 430.534 150.653Z" fill="#263238"/>
<path d="M425.943 158.601C425.027 158.38 424.088 158.277 423.147 158.293C422.712 158.293 422.297 158.216 422.201 157.919C422.131 157.459 422.197 156.987 422.393 156.567C422.733 155.468 423.073 154.292 423.456 153.061C424.891 148.07 425.9 143.98 425.709 143.925C425.518 143.87 424.189 147.861 422.754 152.852C422.414 154.083 422.085 155.259 421.766 156.38C421.535 156.941 421.501 157.567 421.67 158.15C421.742 158.305 421.847 158.44 421.978 158.545C422.109 158.65 422.262 158.722 422.425 158.755C422.672 158.785 422.922 158.785 423.169 158.755C424.096 158.818 425.027 158.766 425.943 158.601Z" fill="#263238"/>
<path d="M431.353 137.121C431.533 137.55 433.011 137.231 434.786 137.319C436.56 137.407 437.974 137.814 438.219 137.407C438.304 137.22 438.027 136.824 437.432 136.451C436.639 135.99 435.752 135.731 434.843 135.692C433.934 135.654 433.03 135.839 432.203 136.231C431.576 136.55 431.278 136.923 431.353 137.121Z" fill="#263238"/>
<path d="M413.805 139.979C414.007 140.331 415.442 139.979 417.196 139.891C418.949 139.803 420.384 140.067 420.576 139.704C420.65 139.528 420.363 139.221 419.757 138.946C418.937 138.607 418.056 138.457 417.174 138.506C416.281 138.532 415.404 138.757 414.602 139.166C414.007 139.484 413.72 139.814 413.805 139.979Z" fill="#263238"/>
<path d="M397.097 130.338C397.159 130.106 397.265 129.89 397.409 129.701C397.553 129.512 397.732 129.355 397.936 129.239C398.817 128.824 399.79 128.661 400.753 128.766C403.696 128.71 406.567 127.808 409.043 126.161C410.199 124.443 411.49 122.825 412.901 121.324C416.249 117.762 418.991 115.333 421.84 114.146C425.517 112.618 431.671 111.947 435.508 113.046C439.345 114.146 442.789 117.312 443.331 121.368C445.456 119.488 448.709 119.51 451.334 120.598H451.398C454.31 121.698 455.968 124.864 456.829 127.942C457.69 131.02 458.062 134.318 459.635 137.077C459.964 137.649 460.358 138.341 460.071 138.946C459.938 139.165 459.743 139.337 459.514 139.439C459.284 139.541 459.03 139.568 458.785 139.517C458.292 139.408 457.828 139.191 457.424 138.88C457.754 139.693 458.072 140.496 458.402 141.298C457.338 141.49 456.245 141.418 455.213 141.089C454.678 143.834 453.986 146.543 453.141 149.202C452.053 149.07 450.955 149.347 450.048 149.983C448.985 150.939 448.571 152.731 446.859 152.049C445.998 151.698 445.212 149.851 444.914 148.916C442.992 142.828 442.358 136.384 443.054 130.019C441.845 128.688 440.402 127.606 438.803 126.831L438.93 126.952C435.848 125.853 432.362 124.754 429.439 126.249C427.175 127.414 425.847 129.844 424.125 131.745C422.566 133.553 420.669 135.014 418.548 136.041C416.426 137.067 414.126 137.636 411.785 137.715C411.626 140.924 411.881 145.465 411.721 148.708L409.107 143.563C408.901 143.206 408.713 142.839 408.543 142.464V142.354C408.282 141.726 407.987 141.113 407.661 140.518C407.299 140.819 406.845 140.976 406.381 140.96C405.917 140.945 405.474 140.759 405.131 140.435C404.788 140.111 404.569 139.671 404.512 139.194C404.456 138.717 404.566 138.235 404.824 137.835C405.085 137.462 405.401 137.132 405.759 136.857C405.38 137.239 404.91 137.512 404.398 137.649C403.885 137.786 403.347 137.782 402.836 137.638C402.33 137.478 401.889 137.15 401.581 136.705C401.274 136.26 401.117 135.722 401.135 135.175C401.179 134.807 401.315 134.458 401.53 134.161C401.744 133.864 402.029 133.63 402.358 133.482C400.989 133.596 399.619 133.282 398.425 132.581C397.575 132.108 396.81 131.35 397.097 130.338Z" fill="#263238"/>
<path d="M439.834 122.698C440.219 123.032 440.575 123.4 440.897 123.798C441.771 124.884 442.353 126.187 442.587 127.579C442.78 128.534 442.876 129.506 442.874 130.481C442.874 131.581 442.8 132.68 442.715 133.845C442.615 135.088 442.59 136.336 442.64 137.583C442.67 138.248 442.752 138.91 442.885 139.561C442.984 140.256 443.251 140.914 443.661 141.474C443.854 141.696 444.099 141.862 444.373 141.957C444.647 142.051 444.94 142.071 445.223 142.013C445.762 141.911 446.253 141.624 446.615 141.199C447.216 140.349 447.584 139.346 447.678 138.297H447.455C447.784 139.16 448.236 139.968 448.794 140.694C449.329 141.361 450.089 141.793 450.92 141.903C451.311 141.943 451.704 141.871 452.057 141.694C452.387 141.516 452.657 141.241 452.833 140.903C452.993 140.591 453.073 140.243 453.067 139.891C453.05 139.563 452.922 139.252 452.706 139.012L452.589 139.122C453.246 139.898 454.054 140.524 454.959 140.958C455.278 141.104 455.522 141.203 455.692 141.254L455.958 141.32L455.714 141.21C455.543 141.133 455.299 141.035 455.001 140.881C454.124 140.421 453.344 139.786 452.706 139.012L452.589 139.122C452.77 139.361 452.874 139.653 452.887 139.956C452.901 140.259 452.822 140.559 452.663 140.815C452.506 141.113 452.265 141.354 451.972 141.507C451.642 141.672 451.273 141.733 450.909 141.683C450.133 141.591 449.419 141.198 448.911 140.584C448.377 139.871 447.944 139.082 447.625 138.242L447.466 137.88L447.391 138.275C447.278 139.279 446.911 140.234 446.329 141.046C445.995 141.419 445.556 141.673 445.074 141.771C444.834 141.822 444.585 141.807 444.352 141.728C444.119 141.649 443.91 141.508 443.746 141.32C443.363 140.796 443.118 140.179 443.034 139.529C442.903 138.891 442.817 138.244 442.779 137.594C442.728 136.355 442.753 135.114 442.853 133.878C442.917 132.691 442.991 131.57 442.981 130.503C442.974 129.516 442.867 128.532 442.662 127.568C442.403 126.15 441.783 124.83 440.865 123.743C440.582 123.336 440.233 122.983 439.834 122.698Z" fill="#455A64"/>
<path d="M405.707 133.79L405.802 133.867C405.889 133.943 405.982 134.013 406.079 134.076C406.223 134.198 406.38 134.305 406.546 134.394C406.763 134.527 406.987 134.648 407.216 134.757C408.694 135.45 410.316 135.753 411.935 135.637C414.344 135.469 416.655 134.583 418.588 133.086C420.927 131.245 422.874 128.925 424.306 126.271C425.114 124.897 425.763 123.478 426.432 122.17C427.119 120.893 427.978 119.723 428.983 118.696C429.867 117.764 430.964 117.076 432.172 116.696C432.718 116.539 433.285 116.472 433.851 116.498C434.366 116.538 434.873 116.649 435.36 116.828C436.218 117.129 437.005 117.616 437.667 118.257C438.166 118.74 438.586 119.304 438.91 119.928C439.167 120.472 439.357 121.049 439.473 121.643C439.473 121.643 439.473 121.643 439.473 121.522C439.473 121.401 439.473 121.313 439.42 121.17C439.332 120.724 439.189 120.292 438.995 119.884C438.251 118.371 436.972 117.214 435.424 116.652C434.913 116.468 434.38 116.353 433.84 116.311C433.253 116.285 432.665 116.352 432.097 116.509C430.854 116.888 429.724 117.588 428.813 118.543C427.811 119.581 426.962 120.766 426.294 122.06C425.561 123.379 424.902 124.787 424.115 126.161C422.692 128.78 420.773 131.076 418.471 132.91C416.579 134.394 414.313 135.283 411.945 135.472C410.351 135.602 408.75 135.33 407.28 134.68C406.738 134.418 406.212 134.12 405.707 133.79Z" fill="#455A64"/>
<path d="M404.708 128.777C404.708 128.777 404.835 128.898 405.101 129.063C405.475 129.298 405.866 129.503 406.27 129.678C406.871 129.943 407.494 130.152 408.13 130.305C408.908 130.494 409.702 130.605 410.5 130.635C411.3 130.655 412.101 130.6 412.891 130.47C413.532 130.358 414.161 130.189 414.773 129.964C415.189 129.817 415.594 129.637 415.984 129.426C416.131 129.357 416.27 129.273 416.399 129.173C416.399 129.173 415.772 129.448 414.72 129.788C414.106 129.977 413.481 130.124 412.849 130.228C412.074 130.34 411.293 130.387 410.511 130.371C409.728 130.335 408.95 130.236 408.183 130.074C407.557 129.932 406.942 129.741 406.344 129.503C405.324 129.096 404.729 128.733 404.708 128.777Z" fill="#455A64"/>
<path d="M413.731 145.256C413.943 145.487 415.219 144.42 417.068 144.376C418.917 144.332 420.257 145.256 420.49 145.014C420.724 144.772 420.352 144.475 419.757 144.046C418.944 143.485 417.981 143.201 417.004 143.233C416.041 143.264 415.113 143.614 414.358 144.233C413.794 144.717 413.614 145.146 413.731 145.256Z" fill="#263238"/>
<path d="M415.611 150.653C415.636 151.055 415.81 151.43 416.098 151.701C416.385 151.972 416.763 152.117 417.152 152.104C417.343 152.106 417.533 152.068 417.709 151.993C417.886 151.917 418.047 151.806 418.181 151.666C418.316 151.526 418.422 151.359 418.494 151.176C418.565 150.992 418.6 150.796 418.598 150.598C418.57 150.196 418.394 149.82 418.104 149.55C417.815 149.279 417.436 149.135 417.046 149.147C416.856 149.147 416.667 149.186 416.492 149.262C416.316 149.338 416.157 149.449 416.024 149.59C415.89 149.73 415.785 149.896 415.714 150.079C415.643 150.261 415.608 150.457 415.611 150.653Z" fill="#263238"/>
<path d="M447.635 149.719C447.815 149.62 455.075 146.828 455.362 154.644C455.649 162.46 448.017 161.163 447.996 160.943C447.975 160.723 447.635 149.719 447.635 149.719Z" fill="#FFBF9D"/>
<path d="M450.239 157.886C450.239 157.886 450.378 157.974 450.601 158.073C450.919 158.2 451.271 158.2 451.589 158.073C452.064 157.732 452.443 157.266 452.686 156.723C452.929 156.18 453.027 155.58 452.971 154.984C452.97 154.313 452.821 153.652 452.535 153.049C452.452 152.805 452.312 152.585 452.126 152.41C451.941 152.235 451.716 152.111 451.472 152.049C451.321 152.018 451.163 152.041 451.026 152.115C450.889 152.189 450.78 152.309 450.718 152.456C450.622 152.676 450.718 152.83 450.633 152.852C450.548 152.874 450.473 152.731 450.516 152.401C450.555 152.207 450.652 152.03 450.792 151.895C450.998 151.729 451.255 151.647 451.515 151.664C451.827 151.716 452.122 151.85 452.371 152.052C452.62 152.253 452.816 152.517 452.939 152.819C453.295 153.493 453.481 154.249 453.481 155.017C453.481 156.589 452.78 158.095 451.696 158.469C451.495 158.539 451.283 158.561 451.073 158.534C450.863 158.508 450.662 158.433 450.484 158.315C450.24 158.073 450.165 157.897 450.239 157.886Z" fill="#FF9A6C"/>
<path d="M431.321 160.162C431.385 160.162 431.385 160.624 431.129 161.261C430.759 162.119 430.153 162.845 429.386 163.35C428.641 163.869 427.755 164.131 426.857 164.097C426.166 164.032 425.794 163.79 425.794 163.735C425.794 163.68 426.219 163.735 426.857 163.735C427.667 163.673 428.449 163.401 429.131 162.943C429.819 162.486 430.397 161.874 430.821 161.151C431.108 160.547 431.236 160.14 431.321 160.162Z" fill="#263238"/>
<path d="M469.371 469.252L471.624 495.635L479.616 516.038C479.748 516.394 479.804 516.774 479.782 517.153C479.76 517.533 479.661 517.904 479.49 518.241C479.319 518.577 479.081 518.873 478.791 519.107C478.501 519.342 478.167 519.509 477.81 519.6C477.387 519.73 476.941 519.758 476.506 519.682C476.071 519.606 475.659 519.427 475.301 519.16C470.742 515.73 454.299 503.11 454.119 501.472C453.885 499.34 449.687 473.363 449.687 473.363L469.371 469.252Z" fill="#455A64"/>
<path d="M477.874 519.633L453.726 498.493L453.97 500.45C454.129 501.549 454.151 502.099 454.873 502.769C461.291 508.781 468.033 514.412 475.068 519.633C475.5 519.842 475.972 519.95 476.449 519.95C476.927 519.95 477.399 519.842 477.831 519.633H477.874Z" fill="#263238"/>
<path d="M458.424 490.248C458.778 490.437 459.047 490.759 459.178 491.148C459.309 491.536 459.29 491.962 459.126 492.337C458.913 492.699 458.58 492.97 458.189 493.097C457.798 493.224 457.375 493.2 457 493.029C456.631 492.827 456.351 492.487 456.217 492.079C456.082 491.67 456.104 491.224 456.277 490.831C456.534 490.474 456.91 490.229 457.332 490.141C457.754 490.054 458.192 490.131 458.562 490.358" fill="white"/>
<path d="M470.37 508.75C470.529 508.816 470.986 507.365 472.495 506.463C473.454 505.979 474.486 505.671 475.546 505.551C475.546 505.485 475.195 505.32 474.557 505.298C473.716 505.291 472.889 505.523 472.166 505.969C471.461 506.391 470.892 507.018 470.529 507.771C470.295 508.343 470.295 508.739 470.37 508.75Z" fill="#263238"/>
<path d="M472.687 512.081C472.826 512.19 473.602 511.234 474.962 510.706C475.821 510.449 476.694 510.247 477.577 510.102C477.13 509.89 476.642 509.786 476.15 509.798C475.659 509.809 475.176 509.936 474.739 510.168C473.187 510.783 472.56 512.026 472.687 512.081Z" fill="#263238"/>
<path d="M466.278 504.605C467.342 503.732 468.468 502.942 469.647 502.242C470.922 501.703 472.233 501.258 473.569 500.912C472.121 500.686 470.642 500.973 469.371 501.725C467.181 502.814 466.182 504.539 466.278 504.605Z" fill="#263238"/>
<path d="M464.907 496.624C464.992 496.778 466.427 496.009 468.361 495.745C470.295 495.481 471.9 495.745 471.943 495.602C470.802 495.036 469.511 494.881 468.276 495.162C467.025 495.239 465.837 495.755 464.907 496.624Z" fill="#263238"/>
<path d="M464.056 488.885C465.174 488.305 466.393 487.961 467.642 487.874C468.89 487.787 470.143 487.959 471.326 488.38C471.326 488.314 471.039 488.017 470.369 487.731C469.488 487.373 468.54 487.223 467.595 487.291C466.653 487.347 465.735 487.629 464.917 488.116C464.279 488.49 463.992 488.83 464.056 488.885Z" fill="#263238"/>
<path d="M467.404 486.401C467.404 486.401 467.468 486.039 467.341 485.401C467.154 484.493 466.792 483.633 466.278 482.873C465.928 482.271 465.398 481.805 464.768 481.542C464.55 481.475 464.317 481.474 464.099 481.54C463.88 481.607 463.684 481.737 463.536 481.916C463.409 482.093 463.317 482.293 463.266 482.506C463.215 482.72 463.206 482.941 463.238 483.158C463.422 484.064 463.904 484.875 464.602 485.454C465.299 486.034 466.17 486.345 467.064 486.335C467.958 486.35 468.836 486.095 469.591 485.6C470.346 485.106 470.945 484.395 471.316 483.554C471.4 483.349 471.438 483.126 471.427 482.903C471.416 482.681 471.356 482.463 471.252 482.268C471.116 482.077 470.928 481.933 470.712 481.852C470.496 481.772 470.263 481.76 470.04 481.817C469.397 482.032 468.816 482.41 468.35 482.917C467.689 483.546 467.138 484.29 466.724 485.115C466.553 485.407 466.444 485.733 466.405 486.072C467.012 485 467.768 484.026 468.648 483.18C469.066 482.754 469.576 482.438 470.136 482.257C470.256 482.222 470.384 482.226 470.502 482.27C470.62 482.313 470.723 482.393 470.795 482.499C470.853 482.632 470.884 482.776 470.884 482.922C470.884 483.068 470.853 483.212 470.795 483.345C470.457 484.058 469.932 484.659 469.28 485.079C468.628 485.499 467.875 485.721 467.107 485.72C466.349 485.723 465.612 485.462 465.014 484.98C464.416 484.497 463.993 483.821 463.812 483.059C463.76 482.758 463.821 482.448 463.982 482.191C464.062 482.089 464.169 482.015 464.291 481.977C464.412 481.94 464.542 481.942 464.662 481.982C465.195 482.204 465.651 482.587 465.969 483.081C466.642 484.087 467.128 485.212 467.404 486.401Z" fill="#263238"/>
<path d="M405.026 470.616L406.025 492.986C406.025 492.986 382.972 501.495 382.749 505.65L427.442 505.31L427.346 470.385L405.026 470.616Z" fill="#455A64"/>
<path d="M419.832 490.996C420.252 491.104 420.618 491.372 420.855 491.748C421.091 492.123 421.181 492.577 421.107 493.019C420.978 493.452 420.698 493.82 420.32 494.05C419.942 494.28 419.495 494.355 419.066 494.261C418.623 494.148 418.237 493.865 417.989 493.469C417.74 493.073 417.646 492.593 417.727 492.128C417.903 491.683 418.235 491.322 418.656 491.118C419.078 490.915 419.558 490.883 420.002 491.029" fill="#E0E0E0"/>
<path d="M427.441 505.309L427.292 501.791L384.491 503.429C384.491 503.429 382.514 504.286 382.748 505.628L427.441 505.309Z" fill="#263238"/>
<path d="M405.302 492.788C405.302 492.997 406.365 493.085 407.428 493.755C408.491 494.426 409.086 495.316 409.288 495.228C409.49 495.14 409.15 493.92 407.832 493.128C406.514 492.337 405.249 492.579 405.302 492.788Z" fill="#263238"/>
<path d="M400.625 494.69C400.625 494.899 401.529 495.251 402.273 496.141C403.017 497.032 403.251 497.988 403.463 497.977C403.676 497.966 403.814 496.757 402.857 495.669C401.901 494.58 400.636 494.492 400.625 494.69Z" fill="#263238"/>
<path d="M398.011 500.164C398.213 500.164 398.5 499.153 397.937 497.966C397.373 496.778 396.342 496.361 396.247 496.537C396.151 496.712 396.799 497.328 397.246 498.284C397.692 499.241 397.799 500.153 398.011 500.164Z" fill="#263238"/>
<path d="M405.653 487.644C405.749 487.842 406.716 487.545 407.981 487.644C409.246 487.743 410.181 488.083 410.288 487.907C410.394 487.732 409.48 486.973 408.024 486.907C406.568 486.841 405.6 487.479 405.653 487.644Z" fill="#263238"/>
<path d="M397.245 309.953C397.245 311.239 402.431 490.073 402.431 490.073H430.066L435.667 337.094C435.667 337.094 442.203 417.079 442.203 418.805C442.203 420.531 447.964 490.93 447.964 490.93L473.579 488.896L471.889 327.893L468.764 304.28L397.245 309.953Z" fill="#263238"/>
<path d="M438.549 331.433C438.198 331.638 437.823 331.793 437.433 331.894C436.699 332.158 435.626 332.521 434.308 332.994L434.063 333.071V332.818C433.915 330.674 433.734 327.794 433.574 324.639C433.394 321.22 433.266 318.131 433.202 315.845C433.202 314.745 433.149 313.811 433.149 313.184C433.118 312.857 433.139 312.526 433.213 312.206C433.302 312.521 433.352 312.846 433.362 313.173C433.436 313.8 433.511 314.712 433.585 315.823C433.755 318.021 433.946 321.154 434.116 324.617C434.287 327.772 434.403 330.652 434.467 332.807L434.202 332.631C435.541 332.246 436.625 331.938 437.39 331.741C437.766 331.599 438.154 331.496 438.549 331.433Z" fill="#455A64"/>
<path d="M436.422 312.844C436.422 312.844 436.507 312.701 436.794 312.602C437.198 312.492 437.627 312.531 438.006 312.712C438.292 312.82 438.536 313.021 438.703 313.284C438.869 313.548 438.949 313.86 438.93 314.174C438.895 314.571 438.734 314.946 438.473 315.24C438.212 315.533 437.865 315.731 437.485 315.801C437.099 315.861 436.704 315.81 436.344 315.652C435.984 315.495 435.672 315.239 435.444 314.911C435.285 314.657 435.2 314.361 435.2 314.059C435.2 313.756 435.285 313.46 435.444 313.207C435.664 312.866 435.985 312.607 436.358 312.47C436.635 312.371 436.794 312.393 436.805 312.415C436.815 312.437 436.178 312.624 435.795 313.372C435.683 313.571 435.629 313.8 435.64 314.03C435.652 314.26 435.728 314.482 435.859 314.669C436.031 314.904 436.26 315.087 436.524 315.199C436.788 315.311 437.075 315.348 437.357 315.306C437.621 315.254 437.863 315.121 438.052 314.925C438.242 314.73 438.37 314.479 438.42 314.207C438.441 313.982 438.394 313.755 438.286 313.558C438.177 313.361 438.013 313.204 437.814 313.108C437.389 312.87 436.902 312.777 436.422 312.844Z" fill="#455A64"/>
<path d="M449.114 314.701C448.965 314.701 448.752 313.932 448.646 312.965C448.54 311.997 448.572 311.195 448.72 311.184C448.869 311.173 449.082 311.942 449.188 312.91C449.294 313.877 449.263 314.701 449.114 314.701Z" fill="#455A64"/>
<path d="M451.026 314.492C450.877 314.492 450.75 313.668 450.75 312.646C450.75 311.623 450.856 310.799 451.015 310.799C451.175 310.799 451.292 311.623 451.292 312.646C451.292 313.668 451.185 314.492 451.026 314.492Z" fill="#455A64"/>
<path d="M417.727 315.724C417.578 315.724 417.344 314.811 417.206 313.657C417.068 312.503 417.079 311.536 417.206 311.525C417.334 311.514 417.589 312.437 417.727 313.602C417.865 314.767 417.876 315.713 417.727 315.724Z" fill="#455A64"/>
<path d="M420.054 315.9C419.563 315.285 419.32 314.497 419.374 313.702C419.259 312.932 419.43 312.147 419.852 311.503C420.012 311.503 419.852 312.514 419.927 313.702C420.001 314.889 420.203 315.856 420.054 315.9Z" fill="#455A64"/>
<path d="M411.318 313.514C411.329 313.778 411.297 314.042 411.222 314.294C411.089 315.008 410.904 315.709 410.669 316.394C409.881 318.702 408.724 320.858 407.247 322.77C405.713 324.742 403.891 326.455 401.848 327.849C401.219 328.278 400.566 328.667 399.892 329.014C399.646 329.157 399.386 329.271 399.116 329.355C399.116 329.289 400.115 328.717 401.635 327.585C403.59 326.15 405.343 324.44 406.843 322.506C408.291 320.62 409.469 318.529 410.34 316.295C410.988 314.591 411.233 313.492 411.318 313.514Z" fill="#455A64"/>
<path d="M471.05 325.563C470.777 325.647 470.494 325.691 470.21 325.695C469.439 325.758 468.664 325.758 467.893 325.695C465.37 325.444 462.942 324.569 460.814 323.144C458.799 321.779 457.174 319.882 456.106 317.648C455.796 316.999 455.554 316.317 455.383 315.614C455.297 315.368 455.258 315.107 455.266 314.845C455.351 314.845 455.585 315.944 456.425 317.516C457.546 319.642 459.156 321.45 461.112 322.782C463.173 324.158 465.504 325.044 467.936 325.376C469.838 325.596 471.039 325.475 471.05 325.563Z" fill="#455A64"/>
<path d="M426.038 416.123C426.038 416.244 421.425 415.211 415.813 413.837C410.201 412.462 405.674 411.231 405.716 411.11C405.759 410.989 410.329 412.012 415.941 413.397C421.553 414.782 426.07 416.002 426.038 416.123Z" fill="#455A64"/>
<path d="M470.551 409.615C470.615 409.725 466.629 411.868 461.655 414.419C456.681 416.969 452.578 418.937 452.514 418.816C452.451 418.695 456.436 416.551 461.411 414.012C466.385 411.473 470.487 409.505 470.551 409.615Z" fill="#455A64"/>
<path d="M383.833 249.392L387.606 254.284V245.875H399.51C399.51 245.875 400.828 265.123 400.573 269.224C400.291 271.361 399.803 273.464 399.117 275.501C398.761 276.686 398.117 277.757 397.244 278.61C396.372 279.462 395.303 280.068 394.138 280.369C392.974 280.669 391.754 280.654 390.597 280.325C389.44 279.996 388.384 279.365 387.532 278.491C386.2 277.15 384.957 275.718 383.812 274.204C378.498 267.168 369.74 250.019 369.74 250.019L378.923 244.347L383.833 249.392Z" fill="#FFBF9D"/>
<path d="M383.078 248.49C383.528 249.272 384.047 250.008 384.63 250.689C385.693 251.975 387.032 253.745 388.616 255.658C390.199 257.571 391.708 259.264 392.867 260.418C393.454 261.084 394.135 261.655 394.886 262.111C394.347 261.413 393.765 260.752 393.143 260.132C392.08 258.923 390.614 257.197 389.03 255.284C385.895 251.393 383.216 248.359 383.078 248.49Z" fill="#FF9A6C"/>
<path d="M410.978 190.261L423.53 185.161L446.647 183.809L457.509 188.085L442.619 196.637L429.779 196.154L410.978 190.261Z" fill="#FFBF9D"/>
<path d="M396.172 312.394C397.309 312.591 473.048 315.922 473.048 315.922L470.433 245.446L470.21 231.617L465.959 189.723C465.959 189.723 454.629 185.688 448.857 183.765C448.857 183.765 442.778 190.36 431.214 190.141C419.916 189.976 417.556 187.337 417.556 187.337L401.762 193.603C401.762 193.603 390.528 197.77 388.594 202.914C386.659 208.059 383.279 236.498 383.279 236.498H399.658L399.222 287.033L396.172 312.394Z" fill="#455A64"/>
<g opacity="0.2">
<path d="M443.799 218.381L446.148 236.146L457.51 241.39L465.907 233.991V217.502L443.799 218.381Z" fill="black"/>
</g>
<path d="M465.608 223.46C465.608 223.603 460.889 223.724 455.065 223.724C449.24 223.724 444.511 223.603 444.511 223.46C448.022 223.185 451.545 223.093 455.065 223.185C458.582 223.093 462.101 223.184 465.608 223.46Z" fill="#263238"/>
<path d="M391.071 210.269C391.125 210.423 391.168 210.581 391.198 210.741C391.273 211.093 391.368 211.533 391.496 212.093C391.904 213.79 392.408 215.46 393.005 217.095C393.76 219.195 394.823 221.668 396.13 224.439C397.437 227.209 398.479 230.518 399.637 234.035C399.637 238.257 399.637 242.83 399.552 247.7C399.446 258.473 399.34 268.224 399.276 275.336C399.212 278.832 399.17 281.679 399.127 283.713C399.127 284.658 399.106 285.417 399.063 285.988C399.068 286.253 399.051 286.518 399.01 286.78C398.992 286.513 398.992 286.244 399.01 285.977C399.01 285.42 399.01 284.662 399.01 283.702C399.01 281.679 399.01 278.821 399.01 275.325C399.01 268.213 399.095 258.462 399.148 247.7C399.148 242.874 399.234 238.257 399.265 234.035V234.112C398.128 230.595 397.033 227.33 395.843 224.526C394.706 222.113 393.692 219.64 392.803 217.117C392.229 215.466 391.764 213.777 391.411 212.06C391.305 211.456 391.22 210.961 391.177 210.675C391.13 210.543 391.094 210.407 391.071 210.269Z" fill="#263238"/>
<path d="M471.369 202.046C471.406 202.547 471.406 203.051 471.369 203.552C471.369 204.651 471.284 205.992 471.22 207.641C471.082 211.181 470.902 215.908 470.7 221.13C470.498 226.351 470.264 231.089 470.115 234.629C470.019 236.278 469.945 237.652 469.881 238.719C469.879 239.221 469.829 239.721 469.732 240.214C469.694 239.712 469.694 239.209 469.732 238.707C469.732 237.608 469.732 236.267 469.807 234.618C469.892 231.155 470.041 226.384 470.253 221.119C470.466 215.853 470.7 211.071 470.912 207.63C471.019 205.904 471.125 204.508 471.22 203.541C471.227 203.039 471.277 202.539 471.369 202.046Z" fill="#263238"/>
<g opacity="0.3">
<path d="M391.114 212.852C390.825 220.587 393.499 228.128 398.554 233.837C397.013 226.571 393.165 219.81 391.114 212.852Z" fill="black"/>
</g>
<g opacity="0.3">
<path d="M424.38 282.58C427.941 282.089 431.189 280.219 433.468 277.347C435.865 274.578 437.918 271.509 439.579 268.212C441.722 263.727 442.938 258.83 443.15 253.833C438.739 266.068 432.277 275.742 424.38 282.58Z" fill="black"/>
</g>
<path d="M444.553 248.502C444.546 248.654 444.525 248.805 444.489 248.952C444.415 249.304 444.319 249.722 444.213 250.228C444.107 250.733 443.937 251.448 443.703 252.217C443.469 252.987 443.246 253.866 442.906 254.823C442.161 257.073 441.288 259.275 440.291 261.418C437.853 266.665 434.723 271.538 430.991 275.896C429.468 277.675 427.835 279.349 426.102 280.909C425.39 281.602 424.678 282.151 424.072 282.657C423.466 283.163 422.935 283.569 422.478 283.888L421.415 284.625C421.17 284.779 421.043 284.866 421.032 284.844C421.126 284.729 421.233 284.625 421.351 284.537L422.34 283.723C422.775 283.393 423.296 282.965 423.881 282.437C424.465 281.909 425.156 281.338 425.858 280.645C427.536 279.051 429.129 277.363 430.63 275.588C432.447 273.398 434.14 271.1 435.7 268.707C437.224 266.295 438.615 263.795 439.866 261.221C440.871 259.105 441.769 256.936 442.555 254.724C442.916 253.789 443.171 252.91 443.416 252.151C443.66 251.393 443.862 250.733 444.011 250.195C444.16 249.656 444.266 249.293 444.373 248.952C444.479 248.612 444.532 248.491 444.553 248.502Z" fill="#263238"/>
<path d="M442.363 226.45C442.347 226.694 442.315 226.936 442.267 227.176C442.182 227.692 442.066 228.374 441.927 229.22C441.789 230.067 441.577 231.188 441.268 232.43C440.96 233.673 440.684 235.113 440.206 236.652C439.993 237.421 439.759 238.235 439.515 239.081C439.27 239.928 438.951 240.785 438.654 241.675C438.09 243.489 437.325 245.358 436.528 247.337C433.037 255.878 428.345 263.838 422.605 270.961C421.255 272.566 419.99 274.127 418.693 275.468C418.056 276.149 417.46 276.831 416.844 277.436C416.228 278.04 415.643 278.634 415.069 279.184C414.006 280.283 412.858 281.239 411.881 282.075C410.903 282.91 410.116 283.603 409.415 284.141L407.81 285.395C407.635 285.553 407.442 285.69 407.236 285.801C407.391 285.624 407.562 285.462 407.746 285.318L409.287 283.987C409.967 283.427 410.796 282.734 411.7 281.866C412.603 280.997 413.698 280.074 414.793 278.92L416.536 277.161C417.142 276.545 417.726 275.864 418.353 275.182C419.639 273.83 420.883 272.269 422.222 270.653C427.913 263.542 432.594 255.628 436.124 247.15C436.911 245.182 437.676 243.335 438.25 241.544C438.558 240.642 438.877 239.796 439.132 238.96C439.387 238.125 439.621 237.322 439.855 236.553C440.344 235.025 440.652 233.607 440.981 232.364C441.311 231.122 441.545 230.056 441.715 229.176C441.885 228.297 442.044 227.67 442.151 227.154C442.197 226.912 442.268 226.676 442.363 226.45Z" fill="#263238"/>
<path d="M382.515 204.54L411.68 250.403C411.819 250.62 411.895 250.873 411.898 251.133C411.902 251.393 411.833 251.649 411.699 251.87C411.566 252.09 411.374 252.266 411.146 252.376C410.918 252.487 410.664 252.527 410.415 252.492L376.829 248.094C376.652 248.069 376.482 248.007 376.329 247.913C376.175 247.818 376.042 247.693 375.936 247.545L343.859 202.232C343.7 202.022 343.604 201.769 343.583 201.504C343.561 201.238 343.616 200.972 343.739 200.738C343.862 200.504 344.049 200.313 344.276 200.188C344.503 200.062 344.761 200.009 345.018 200.033L379.571 202.671C380.168 202.727 380.744 202.925 381.255 203.249C381.765 203.574 382.197 204.015 382.515 204.54Z" fill="#E0E0E0"/>
<path d="M382.514 204.541C382.442 204.391 382.353 204.251 382.249 204.123C381.953 203.744 381.593 203.423 381.186 203.177C380.494 202.804 379.724 202.611 378.943 202.617L375.84 202.353L355.922 200.737L349.322 200.209L345.814 199.935C345.506 199.935 345.24 199.935 344.889 199.935C344.531 199.947 344.188 200.091 343.922 200.341C343.653 200.596 343.479 200.941 343.432 201.315C343.385 201.69 343.469 202.069 343.667 202.386L352.999 215.633C359.589 224.944 366.816 235.178 374.416 245.929C374.904 246.6 375.34 247.248 375.872 247.952C376.035 248.138 376.239 248.282 376.467 248.37C376.676 248.445 376.894 248.49 377.115 248.502L378.306 248.655L383.003 249.271L392.186 250.458L409.553 252.657C409.915 252.657 410.212 252.756 410.616 252.778C410.823 252.779 411.029 252.739 411.22 252.657C411.412 252.576 411.586 252.456 411.732 252.305C412.011 252.01 412.173 251.618 412.189 251.206C412.173 250.804 412.032 250.418 411.785 250.107L409.532 246.545L405.281 239.949L397.671 228.044C393.015 220.799 389.253 214.918 386.628 210.84L383.599 206.168C383.258 205.662 382.993 205.255 382.791 204.969C382.705 204.826 382.609 204.69 382.504 204.563C382.577 204.714 382.658 204.861 382.748 205.002L383.503 206.234C384.183 207.333 385.172 208.927 386.436 210.961L397.341 228.274L404.898 240.213L409.15 246.864L411.36 250.348C411.551 250.58 411.663 250.869 411.679 251.173C411.669 251.461 411.555 251.736 411.36 251.942C411.162 252.145 410.895 252.26 410.616 252.261C410.329 252.261 409.936 252.173 409.607 252.14L392.208 249.843L383.025 248.644L378.327 248.029L377.147 247.875C376.971 247.86 376.796 247.827 376.626 247.776C376.477 247.716 376.342 247.622 376.233 247.501C375.765 246.842 375.298 246.193 374.83 245.522C367.22 234.793 359.95 224.57 353.382 215.259C350.076 210.62 346.951 206.201 344.018 202.067C343.908 201.904 343.844 201.713 343.831 201.515C343.818 201.317 343.857 201.118 343.944 200.941C344.031 200.764 344.163 200.615 344.326 200.509C344.489 200.404 344.676 200.346 344.868 200.341C345.113 200.341 345.453 200.341 345.74 200.396L349.247 200.66L355.858 201.144L375.84 202.573L378.965 202.793C379.726 202.766 380.482 202.936 381.165 203.287C381.697 203.6 382.157 204.027 382.514 204.541Z" fill="#263238"/>
<path d="M343.859 202.266C344.089 202.327 344.324 202.364 344.56 202.376L346.601 202.595L354.19 203.288L379.996 205.487L379.794 205.366C381.41 207.85 383.078 210.422 384.747 213.061C391.56 223.889 397.501 233.848 401.997 240.928C404.229 244.479 406.089 247.315 407.386 249.272L408.895 251.47C409.058 251.738 409.246 251.989 409.458 252.218C409.318 251.937 409.162 251.665 408.991 251.404L407.566 249.107L402.326 240.675C397.926 233.541 392.027 223.559 385.215 212.72C383.546 210.049 381.867 207.476 380.24 205.025L380.166 204.915H380.092L354.275 202.936L346.675 202.408L344.624 202.288C344.37 202.261 344.114 202.253 343.859 202.266Z" fill="#263238"/>
<path d="M363.852 209.267C363.871 209.176 363.909 209.09 363.962 209.014C364.015 208.938 364.082 208.874 364.159 208.826C364.237 208.778 364.323 208.746 364.412 208.733C364.502 208.72 364.593 208.726 364.681 208.751C365.023 208.831 365.336 209.011 365.584 209.267C365.742 209.416 365.844 209.618 365.873 209.837C365.902 210.056 365.856 210.278 365.743 210.466C365.414 210.894 364.681 210.73 364.319 210.378C364.156 210.249 364.027 210.08 363.946 209.886C363.864 209.691 363.831 209.478 363.852 209.267Z" fill="white"/>
<path d="M379.538 234.97C379.538 234.97 380.856 231.672 377.498 231.276C373.437 231.058 369.368 231.058 365.307 231.276C365.307 231.276 360.471 231.804 361.491 235.387C361.491 235.387 358.643 238.026 360.173 240.884C361.704 243.742 362.299 242.885 362.299 242.885C362.299 242.885 361.895 246.369 364.424 246.886C364.424 246.886 367.188 250.261 369.739 250.052C372.29 249.843 383.078 244.468 383.79 243.456C384.502 242.445 385.522 241.807 384.916 240.631C384.916 240.631 386.234 237.542 383.386 237.069C383.407 237.014 383.205 234.453 379.538 234.97Z" fill="#FFBF9D"/>
<path d="M364.212 236.145C364.96 236.307 365.725 236.366 366.487 236.321C367.89 236.321 369.824 236.321 371.961 236.321C373.802 236.377 375.644 236.266 377.466 235.991C378.912 235.64 379.486 234.76 379.422 234.738C378.798 235.147 378.106 235.434 377.381 235.585C376.053 235.816 374.086 235.673 371.95 235.75C369.814 235.827 367.879 235.849 366.476 235.915C365.715 235.897 364.955 235.975 364.212 236.145Z" fill="#FF9A6C"/>
<path d="M366.615 241.422C366.84 241.558 367.089 241.645 367.348 241.675C368.047 241.822 368.762 241.87 369.474 241.818C370.511 241.736 371.537 241.541 372.535 241.235C373.661 240.917 374.862 240.466 376.127 240.07C377.303 239.668 378.519 239.406 379.752 239.29C380.817 239.392 381.888 239.17 382.834 238.652C383.203 238.394 383.465 238.001 383.567 237.553C383.636 237.218 383.591 236.868 383.44 236.563C383.174 236.069 382.813 236.036 382.823 236.058C382.834 236.08 383.078 236.212 383.238 236.662C383.34 236.968 383.333 237.301 383.218 237.601C383.102 237.902 382.887 238.15 382.611 238.3C381.703 238.714 380.705 238.869 379.72 238.751C378.443 238.833 377.182 239.084 375.968 239.498L372.397 240.719C371.431 241.029 370.443 241.257 369.442 241.4C368.501 241.467 367.557 241.474 366.615 241.422Z" fill="#FF9A6C"/>
<path d="M370.227 245.874C371.002 245.828 371.766 245.677 372.502 245.424C373.884 245.061 375.776 244.5 377.816 243.808C379.857 243.115 381.728 242.401 383.045 241.84C383.794 241.597 384.509 241.253 385.171 240.818C385.107 240.664 381.791 241.917 377.731 243.247C373.671 244.577 370.185 245.72 370.227 245.874Z" fill="#FF9A6C"/>
<path d="M369.368 250.007C370.003 250.065 370.643 249.99 371.249 249.787C372.732 249.415 374.174 248.889 375.554 248.216C377.169 247.457 378.583 246.676 379.603 246.116C380.186 245.861 380.73 245.52 381.219 245.104C379.183 245.785 377.209 246.649 375.32 247.688C372.142 249.271 369.347 249.842 369.368 250.007Z" fill="#FF9A6C"/>
<path d="M476.737 218.579C476.737 218.579 469.871 247.028 461.294 257.538C452.982 267.717 439.962 263.034 435.456 249.843C430.949 236.651 422.914 206.629 422.914 206.629L432.777 198.824L449.783 233.001L457.467 209.707L476.737 218.579Z" fill="#FFBF9D"/>
<path d="M423.371 207.443L416.133 196.593C415.079 196.358 414.048 196.027 413.05 195.604C412.232 195.109 411.424 190.8 411.445 189.964C411.467 189.129 410.042 187.161 410.616 186.6C411.19 186.04 413.125 186.007 413.018 185.204C413.018 185.028 411.584 183.226 412.71 181.906C413.331 181.482 414.023 181.18 414.751 181.016L414.634 176.872C414.634 176.872 416.76 171.991 419.002 173.761C419.002 173.761 427.324 180.356 428.164 181.456C429.004 182.555 432.214 196.285 432.777 198.869" fill="#FFBF9D"/>
<path d="M432.777 198.847C432.765 198.602 432.729 198.359 432.67 198.121C432.553 197.594 432.415 196.912 432.234 196.055C431.852 194.252 431.267 191.657 430.481 188.458C430.077 186.853 429.641 185.161 429.078 183.237C428.94 182.775 428.791 182.302 428.6 181.819C428.38 181.326 428.044 180.899 427.622 180.576C426.856 179.884 426.059 179.202 425.241 178.51C423.593 177.136 421.84 175.707 420.022 174.244C419.563 173.822 419.048 173.47 418.492 173.2C418.167 173.12 417.828 173.119 417.503 173.2C417.178 173.28 416.876 173.438 416.621 173.662C415.672 174.516 414.914 175.574 414.4 176.762V176.828C414.4 177.235 414.4 177.663 414.4 178.092C414.4 179.059 414.4 180.027 414.485 180.972L414.676 180.708C414.174 180.834 413.684 181.003 413.209 181.214C412.945 181.328 412.703 181.492 412.497 181.698C412.314 181.919 412.176 182.177 412.093 182.456C411.958 183.005 412.002 183.585 412.221 184.105C412.309 184.353 412.419 184.593 412.55 184.82L412.731 185.139V185.215C412.736 185.241 412.736 185.267 412.731 185.292C412.731 185.38 412.519 185.512 412.317 185.589C412.115 185.666 411.891 185.743 411.668 185.82C411.437 185.884 411.21 185.961 410.988 186.051C410.709 186.134 410.466 186.312 410.297 186.557C410.186 186.839 410.186 187.154 410.297 187.436C410.361 187.673 410.443 187.905 410.542 188.129C410.722 188.568 410.924 188.986 411.073 189.393C411.148 189.578 411.192 189.775 411.201 189.975C411.205 190.211 411.226 190.446 411.264 190.679C411.328 191.13 411.403 191.569 411.498 192.009C411.664 192.856 411.887 193.69 412.168 194.505C412.302 194.93 412.519 195.323 412.805 195.659C413.153 195.891 413.533 196.065 413.932 196.175C414.665 196.406 415.388 196.593 416.058 196.758L415.941 196.681L421.255 204.552L422.743 206.685C422.908 206.942 423.093 207.184 423.296 207.41C423.16 207.137 423.007 206.873 422.839 206.619L421.436 204.42C420.171 202.474 418.396 199.759 416.217 196.439V196.373H416.228C415.548 196.197 414.836 196 414.102 195.769C413.762 195.668 413.437 195.52 413.135 195.329C412.906 195.039 412.733 194.707 412.625 194.351C412.354 193.555 412.14 192.739 411.987 191.91C411.902 191.481 411.828 191.053 411.764 190.613C411.764 190.404 411.764 190.173 411.764 189.975C411.755 189.719 411.704 189.467 411.615 189.228C411.456 188.777 411.254 188.359 411.084 187.931C410.991 187.729 410.916 187.52 410.86 187.304C410.803 187.141 410.803 186.962 410.86 186.798C410.983 186.667 411.137 186.572 411.307 186.524C411.519 186.437 411.735 186.364 411.955 186.304C412.178 186.227 412.412 186.161 412.646 186.062C412.938 185.968 413.183 185.759 413.326 185.479C413.365 185.39 413.383 185.292 413.379 185.194C413.377 185.124 413.358 185.056 413.326 184.996V184.908L413.146 184.589C413.031 184.38 412.932 184.164 412.848 183.94C412.677 183.528 412.64 183.069 412.742 182.632C412.798 182.421 412.9 182.225 413.039 182.06C413.199 181.915 413.383 181.8 413.581 181.72C414.029 181.521 414.491 181.359 414.963 181.236L415.154 181.181V180.972C415.154 180.027 415.101 179.07 415.069 178.103C415.069 177.674 415.069 177.235 415.069 176.839V176.96C415.542 175.85 416.242 174.86 417.121 174.058C417.309 173.877 417.538 173.748 417.786 173.681C418.035 173.614 418.295 173.611 418.545 173.673C419.04 173.924 419.501 174.242 419.916 174.618C421.744 176.08 423.498 177.498 425.145 178.862C425.974 179.543 426.771 180.214 427.526 180.884C427.908 181.165 428.212 181.544 428.408 181.984C428.589 182.434 428.738 182.907 428.886 183.358C429.45 185.204 429.949 186.952 430.332 188.535C431.129 191.69 431.788 194.252 432.245 196.088C432.468 196.934 432.638 197.616 432.766 198.132C432.746 198.37 432.749 198.61 432.777 198.847Z" fill="#FF9A6C"/>
<path d="M414.75 181.016C414.75 181.104 415.59 181.016 416.876 181.17C417.646 181.293 418.406 181.473 419.151 181.709C420.127 181.852 421.118 181.852 422.095 181.709C422.933 181.587 423.787 181.664 424.591 181.935C425.396 182.205 426.131 182.662 426.74 183.27C427.211 183.811 427.588 184.432 427.855 185.106C427.86 184.714 427.787 184.326 427.641 183.964C427.495 183.603 427.278 183.277 427.005 183.006C426.452 182.377 425.769 181.885 425.007 181.566C424.071 181.19 423.06 181.058 422.063 181.181C421.128 181.302 420.182 181.302 419.246 181.181C418.479 180.96 417.692 180.816 416.897 180.752C416.172 180.693 415.442 180.782 414.75 181.016Z" fill="#FF9A6C"/>
<path d="M417.694 180.785C417.811 180.851 418.151 180.346 418.109 179.631C418.066 178.917 417.673 178.466 417.567 178.532C417.46 178.598 417.567 179.081 417.567 179.631C417.567 180.181 417.556 180.73 417.694 180.785Z" fill="#FF9A6C"/>
<path d="M412.763 185.358C414.866 185.566 416.988 185.394 419.034 184.852C419.777 184.6 420.56 184.496 421.34 184.544C421.945 184.682 422.479 185.046 422.839 185.567C423.152 186.084 423.429 186.624 423.668 187.183C423.705 186.517 423.521 185.858 423.147 185.314C422.765 184.674 422.154 184.216 421.447 184.039C420.603 183.937 419.747 184.023 418.938 184.292C415.569 185.083 412.763 185.204 412.763 185.358Z" fill="#FF9A6C"/>
<path d="M411.658 189.271C412.165 189.394 412.692 189.394 413.199 189.271C414.145 189.161 415.42 188.821 416.802 188.535C417.44 188.388 418.093 188.321 418.747 188.337C419.255 188.346 419.746 188.532 420.139 188.865C420.492 189.201 420.733 189.643 420.83 190.129C420.83 190.129 420.926 189.986 420.915 189.689C420.872 189.271 420.687 188.882 420.394 188.59C419.964 188.151 419.393 187.889 418.789 187.853C418.077 187.802 417.361 187.858 416.664 188.018C415.24 188.304 414.007 188.7 413.093 188.898C412.603 188.971 412.122 189.097 411.658 189.271Z" fill="#FF9A6C"/>
<path d="M414.103 192.372C414.018 192.438 414.73 193.208 416.026 193.208L415.771 192.977C415.771 193.208 415.771 193.438 415.846 193.669C415.88 194.612 416.082 195.54 416.441 196.406C416.582 195.478 416.553 194.531 416.356 193.614L416.26 192.922V192.68H416.037C415.383 192.652 414.734 192.549 414.103 192.372Z" fill="#FF9A6C"/>
<path d="M465.874 189.767C465.874 189.767 479.936 193.284 479.904 212.577C479.872 231.87 475.653 241.39 475.653 241.39L449.729 226.758L455.554 211.775L465.874 189.767Z" fill="#455A64"/>
<path d="M475.653 241.39C475.466 241.333 475.287 241.252 475.121 241.148L473.612 240.356L468.085 237.344L449.602 227.044L449.39 226.934L449.475 226.703L450.867 222.943C452.525 218.491 454.056 214.248 455.544 210.389C456.266 208.466 456.947 206.63 457.595 204.893C458.161 203.279 458.846 201.714 459.646 200.21C460.714 197.96 462.325 196.033 464.323 194.615C464.884 194.251 465.503 193.995 466.151 193.856C466.315 193.82 466.482 193.797 466.65 193.79H466.831C465.981 193.973 465.17 194.316 464.44 194.801C462.522 196.252 460.99 198.181 459.986 200.408C459.223 201.906 458.565 203.46 458.02 205.058C457.393 206.784 456.723 208.62 456.011 210.554L451.377 223.13L449.985 226.89L449.857 226.538L468.308 237.014L473.75 240.18L475.206 241.06C475.366 241.153 475.516 241.263 475.653 241.39Z" fill="#263238"/>
</svg>
