<svg width="252" height="252" viewBox="0 0 252 252" fill="none" xmlns="http://www.w3.org/2000/svg">
<g clip-path="url(#clip0_488_1376)">
<path d="M126 252C195.588 252 252 195.588 252 126C252 56.4121 195.588 0 126 0C56.4121 0 0 56.4121 0 126C0 195.588 56.4121 252 126 252Z" fill="url(#paint0_linear_488_1376)"/>
<path d="M92.593 174.42L83.7288 197.013M110.322 174.42L119.186 197.013M74.8645 197.013H128.05M154.642 93.0869H48.2721C47.0965 93.0869 45.9692 93.5629 45.1382 94.4102C44.3069 95.2578 43.8398 96.4068 43.8398 97.6053V169.902C43.8398 171.1 44.3069 172.249 45.1382 173.097C45.9692 173.944 47.0965 174.42 48.2721 174.42H154.642C155.818 174.42 156.945 173.944 157.776 173.097C158.608 172.249 159.074 171.1 159.074 169.902V97.6053C159.074 96.4068 158.608 95.2578 157.776 94.4102C156.945 93.5629 155.818 93.0869 154.642 93.0869Z" stroke="white" stroke-width="10" stroke-linecap="round" stroke-linejoin="round"/>
<path d="M75.5311 113.901L60.0188 127.456L76.9014 142.777M105.951 113.901L116.84 128.592L96.9508 142.777M85.383 145.036L96.9508 109.036M45.457 163.333H158.667" stroke="white" stroke-width="10" stroke-linecap="round" stroke-linejoin="round"/>
<path d="M177.506 55.9702C177.506 52.9314 175.044 50.4688 172.005 50.4688H165.67C162.627 50.4688 160.164 52.9314 160.164 55.9702C160.164 58.4761 158.448 60.6265 156.111 61.5457C155.741 61.6961 155.375 61.8492 155.014 62.0051C152.712 63.0024 149.976 62.6989 148.199 60.9259C147.167 59.8958 145.768 59.3174 144.31 59.3174C142.852 59.3174 141.454 59.8958 140.421 60.9259L135.939 65.4086C134.908 66.4408 134.33 67.8391 134.33 69.2972C134.33 70.7556 134.908 72.1539 135.939 73.1861C137.716 74.9636 138.019 77.6951 137.014 80.0015C136.856 80.3645 136.704 80.7302 136.558 81.0983C135.639 83.4351 133.489 85.1518 130.983 85.1518C127.944 85.1518 125.481 87.6144 125.481 90.6536V96.992C125.481 100.031 127.944 102.493 130.983 102.493C133.489 102.493 135.639 104.21 136.558 106.547C136.709 106.917 136.861 107.282 137.014 107.644C138.015 109.946 137.712 112.682 135.939 114.459C134.908 115.491 134.33 116.89 134.33 118.348C134.33 119.806 134.908 121.205 135.939 122.237L140.421 126.72C141.454 127.749 142.852 128.328 144.31 128.328C145.768 128.328 147.167 127.749 148.199 126.72C149.976 124.942 152.708 124.639 155.014 125.64C155.375 125.799 155.741 125.952 156.111 126.1C158.448 127.019 160.164 129.169 160.164 131.675C160.164 134.714 162.627 137.176 165.666 137.176H172.005C175.044 137.176 177.506 134.714 177.506 131.675C177.506 129.169 179.223 127.019 181.56 126.095C181.93 125.951 182.295 125.8 182.656 125.644C184.959 124.639 187.694 124.946 189.467 126.72C190.5 127.751 191.899 128.33 193.359 128.33C194.818 128.33 196.217 127.751 197.25 126.72L201.732 122.237C202.762 121.205 203.34 119.806 203.34 118.348C203.34 116.89 202.762 115.491 201.732 114.459C199.955 112.682 199.651 109.95 200.653 107.644C200.812 107.282 200.965 106.917 201.112 106.547C202.031 104.21 204.182 102.493 206.688 102.493C209.727 102.493 212.189 100.031 212.189 96.992V90.6577C212.189 87.6189 209.727 85.1562 206.688 85.1562C204.182 85.1562 202.031 83.4393 201.108 81.1025C200.963 80.7343 200.811 80.3686 200.653 80.0056C199.656 77.7038 199.959 74.9681 201.732 73.1906C202.762 72.1584 203.34 70.7598 203.34 69.3017C203.34 67.8436 202.762 66.445 201.732 65.4128L197.25 60.93C196.217 59.9003 194.819 59.3219 193.361 59.3219C191.903 59.3219 190.504 59.9003 189.472 60.93C187.694 62.7075 184.963 63.011 182.656 62.0096C182.293 61.8502 181.928 61.6968 181.56 61.5502C179.223 60.6265 177.506 58.4719 177.506 55.9702Z" fill="url(#paint1_linear_488_1376)" stroke="#F5F5F5" stroke-width="10"/>
<path d="M186.177 93.8231C186.177 98.4224 184.35 102.833 181.098 106.085C177.846 109.338 173.435 111.164 168.836 111.164C164.237 111.164 159.826 109.338 156.573 106.085C153.321 102.833 151.494 98.4224 151.494 93.8231C151.494 89.2239 153.321 84.813 156.573 81.5605C159.826 78.3084 164.237 76.4814 168.836 76.4814C173.435 76.4814 177.846 78.3084 181.098 81.5605C184.35 84.813 186.177 89.2239 186.177 93.8231Z" fill="url(#paint2_linear_488_1376)" stroke="#F5F5F5" stroke-width="8"/>
</g>
<defs>
<linearGradient id="paint0_linear_488_1376" x1="252" y1="126" x2="0" y2="126" gradientUnits="userSpaceOnUse">
<stop stop-color="#088F7E"/>
<stop offset="1" stop-color="#FF7400"/>
</linearGradient>
<linearGradient id="paint1_linear_488_1376" x1="125.481" y1="93.8228" x2="212.189" y2="93.8228" gradientUnits="userSpaceOnUse">
<stop stop-color="#87823E"/>
<stop offset="1" stop-color="#348B68"/>
</linearGradient>
<linearGradient id="paint2_linear_488_1376" x1="151.494" y1="93.8231" x2="186.177" y2="93.8231" gradientUnits="userSpaceOnUse">
<stop stop-color="#728549"/>
<stop offset="1" stop-color="#4A895D"/>
</linearGradient>
<clipPath id="clip0_488_1376">
<rect width="252" height="252" fill="white"/>
</clipPath>
</defs>
</svg>
