<svg width="463" height="444" viewBox="0 0 463 444" fill="none" xmlns="http://www.w3.org/2000/svg">
<ellipse cx="198.5" cy="262" rx="198.5" ry="182" fill="#FF725E" fill-opacity="0.37"/>
<path d="M264.5 330.987C374.129 330.987 463 322.171 463 311.296C463 300.421 374.129 291.605 264.5 291.605C154.871 291.605 66 300.421 66 311.296C66 322.171 154.871 330.987 264.5 330.987Z" fill="#92E3A9"/>
<path opacity="0.5" d="M264.5 330.987C374.129 330.987 463 322.171 463 311.296C463 300.421 374.129 291.605 264.5 291.605C154.871 291.605 66 300.421 66 311.296C66 322.171 154.871 330.987 264.5 330.987Z" fill="white"/>
<path d="M461.178 208.898H90.6709V212.275H461.178V208.898Z" fill="#263238"/>
<path d="M351.16 167.695C351.888 167.883 352.64 167.964 353.391 167.934C353.391 167.934 353.053 166.938 353.023 166.838C352.674 166.121 351.579 164.926 350.692 165.045C350.544 165.068 350.402 165.122 350.276 165.203C350.15 165.285 350.043 165.393 349.962 165.519C349.881 165.645 349.828 165.787 349.806 165.936C349.784 166.084 349.794 166.236 349.836 166.38C349.948 166.682 350.125 166.956 350.353 167.183C350.582 167.41 350.857 167.585 351.16 167.695Z" fill="#263238"/>
<path d="M371.867 162.287C370.971 162.187 369.875 163.412 369.586 164.139C369.586 164.209 369.228 165.245 369.248 165.245L368.71 165.882C368.351 166.311 367.963 166.799 367.574 167.357C367.148 167.958 366.756 168.583 366.399 169.229C366.002 169.949 365.669 170.702 365.403 171.48C365.403 171.211 365.403 170.484 365.403 170.424C365.294 169.627 364.626 168.143 363.75 167.984C363.603 167.96 363.452 167.967 363.308 168.006C363.164 168.044 363.029 168.113 362.914 168.207C362.798 168.301 362.703 168.418 362.636 168.552C362.569 168.685 362.531 168.831 362.525 168.98C362.533 169.303 362.614 169.62 362.76 169.907C362.907 170.195 363.116 170.446 363.371 170.643C363.985 171.05 364.657 171.362 365.363 171.57C365.106 172.368 364.906 173.183 364.766 174.01C364.686 174.488 364.606 175.006 364.547 175.464C364.547 175.235 364.547 175.036 364.547 175.006C364.437 174.209 363.77 172.735 362.893 172.575C362.746 172.553 362.595 172.562 362.451 172.601C362.307 172.64 362.173 172.708 362.057 172.802C361.94 172.895 361.845 173.012 361.777 173.145C361.708 173.277 361.668 173.423 361.658 173.571C361.672 173.894 361.756 174.21 361.904 174.497C362.052 174.784 362.26 175.036 362.515 175.235C363.13 175.634 363.802 175.939 364.507 176.141C364.507 176.32 364.457 176.51 364.437 176.699C364.328 177.605 364.228 178.502 364.099 179.378C364.099 179.697 363.999 179.996 363.939 180.304C363.948 180.172 363.948 180.039 363.939 179.906C363.84 179.109 363.172 177.625 362.286 177.466C362.139 177.442 361.988 177.449 361.844 177.488C361.7 177.526 361.565 177.594 361.449 177.689C361.334 177.783 361.239 177.9 361.172 178.033C361.105 178.167 361.067 178.313 361.061 178.462C361.074 178.785 361.157 179.101 361.305 179.388C361.453 179.675 361.662 179.927 361.917 180.125C362.498 180.518 363.136 180.817 363.81 181.011C363.75 181.32 363.68 181.629 363.601 181.928C363.558 182.13 363.505 182.329 363.441 182.525C363.371 182.725 363.312 182.924 363.242 183.123C363.112 183.491 362.973 183.88 362.834 184.238L362.545 184.956C362.595 184.647 362.674 184.049 362.674 183.96C362.67 183.259 362.481 182.572 362.126 181.968C362.136 181.888 362.136 181.808 362.126 181.729C362.108 181.581 362.059 181.439 361.982 181.312C361.905 181.185 361.802 181.075 361.68 180.991C361.557 180.906 361.419 180.848 361.273 180.821C361.126 180.794 360.976 180.797 360.832 180.832C359.965 181.061 359.407 182.585 359.368 183.382C359.368 183.432 359.368 183.95 359.427 184.268C359.378 184.089 359.338 183.9 359.288 183.711C359.198 183.322 359.099 182.944 358.989 182.535L358.81 181.938C358.75 181.739 358.67 181.539 358.601 181.33C358.431 180.862 358.232 180.394 358.023 179.926C358.722 179.782 359.394 179.53 360.015 179.179C360.286 179.001 360.516 178.767 360.688 178.492C360.86 178.216 360.97 177.907 361.011 177.585C361.016 177.436 360.989 177.287 360.932 177.149C360.875 177.011 360.79 176.886 360.682 176.782C360.574 176.679 360.446 176.6 360.305 176.549C360.164 176.499 360.015 176.478 359.866 176.49C358.969 176.589 358.192 178.014 358.033 178.8C358.033 178.85 357.973 179.428 357.943 179.737C357.814 179.458 357.694 179.179 357.555 178.9C357.156 178.103 356.728 177.296 356.3 176.5L355.912 175.763C356.639 175.61 357.341 175.352 357.993 174.996C358.266 174.817 358.496 174.581 358.668 174.304C358.84 174.027 358.95 173.716 358.989 173.392C358.992 173.244 358.964 173.096 358.907 172.959C358.85 172.822 358.765 172.698 358.657 172.596C358.549 172.494 358.421 172.415 358.281 172.365C358.141 172.315 357.992 172.295 357.844 172.307C356.947 172.406 356.17 173.83 356.011 174.617C356.011 174.677 355.921 175.504 355.912 175.713C355.633 175.175 355.354 174.627 355.105 174.089C354.765 173.352 354.472 172.593 354.228 171.819C354.96 171.67 355.665 171.411 356.32 171.052C356.593 170.873 356.823 170.637 356.995 170.36C357.167 170.083 357.276 169.772 357.316 169.448C357.319 169.299 357.291 169.15 357.233 169.012C357.175 168.874 357.089 168.75 356.98 168.648C356.871 168.545 356.742 168.467 356.601 168.418C356.459 168.369 356.309 168.35 356.16 168.362C355.274 168.462 354.497 169.886 354.338 170.673C354.338 170.733 354.238 171.669 354.238 171.789C354.226 171.741 354.209 171.694 354.188 171.649C353.966 170.868 353.816 170.068 353.74 169.259C353.69 168.811 353.661 168.382 353.651 167.964C354.378 167.901 355.091 167.723 355.762 167.436C356.047 167.287 356.297 167.078 356.495 166.824C356.692 166.569 356.833 166.276 356.907 165.962C356.927 165.816 356.916 165.668 356.876 165.526C356.835 165.384 356.766 165.252 356.673 165.139C356.58 165.025 356.464 164.931 356.333 164.864C356.202 164.796 356.058 164.757 355.912 164.747C355.015 164.747 354.089 166.082 353.84 166.839C353.84 166.839 353.74 167.317 353.68 167.635C353.68 167.446 353.68 167.257 353.68 167.078C353.68 166.39 353.68 165.773 353.76 165.225C353.76 164.906 353.82 164.628 353.85 164.359C354.462 163.967 355.009 163.483 355.473 162.924C355.659 162.66 355.785 162.358 355.842 162.04C355.899 161.721 355.885 161.394 355.802 161.082C355.753 160.941 355.674 160.812 355.571 160.703C355.468 160.595 355.343 160.51 355.204 160.453C355.066 160.397 354.917 160.37 354.768 160.376C354.618 160.381 354.472 160.418 354.338 160.484C353.541 160.893 353.342 162.476 353.461 163.293C353.461 163.363 353.78 164.408 353.79 164.408C353.79 164.667 353.72 164.936 353.69 165.235C353.631 165.783 353.571 166.41 353.561 167.088C353.534 167.825 353.55 168.563 353.611 169.299C353.673 170.119 353.81 170.933 354.019 171.729C353.88 171.5 353.461 170.892 353.422 170.852C352.894 170.245 351.529 169.378 350.702 169.737C350.566 169.798 350.444 169.886 350.345 169.997C350.246 170.109 350.171 170.24 350.126 170.382C350.081 170.524 350.066 170.674 350.083 170.822C350.1 170.97 350.148 171.113 350.224 171.241C350.414 171.503 350.658 171.721 350.94 171.88C351.222 172.038 351.535 172.133 351.858 172.157C352.601 172.154 353.339 172.04 354.049 171.819C354.277 172.625 354.563 173.414 354.906 174.179C355.095 174.627 355.304 175.075 355.523 175.514C355.394 175.324 355.274 175.165 355.254 175.145C354.726 174.538 353.362 173.671 352.535 174.02C352.399 174.081 352.277 174.171 352.177 174.283C352.078 174.395 352.003 174.527 351.958 174.67C351.913 174.813 351.898 174.963 351.915 175.112C351.932 175.261 351.981 175.405 352.057 175.534C352.248 175.795 352.492 176.012 352.774 176.17C353.056 176.328 353.368 176.423 353.69 176.45C354.414 176.45 355.132 176.34 355.822 176.121C355.902 176.291 355.981 176.46 356.071 176.629C356.479 177.446 356.888 178.253 357.266 179.059C357.396 179.338 357.525 179.627 357.645 179.906L357.415 179.577C356.888 178.98 355.513 178.113 354.686 178.462C354.551 178.524 354.43 178.615 354.331 178.727C354.233 178.84 354.159 178.972 354.115 179.114C354.071 179.257 354.057 179.408 354.075 179.556C354.093 179.704 354.142 179.847 354.218 179.976C354.408 180.238 354.652 180.455 354.934 180.614C355.216 180.772 355.529 180.867 355.852 180.892C356.554 180.891 357.252 180.787 357.923 180.583C358.033 180.872 358.152 181.171 358.252 181.46C358.352 181.749 358.391 181.848 358.441 182.047L358.611 182.655C358.7 183.033 358.8 183.432 358.88 183.81C358.959 184.189 358.989 184.318 359.039 184.567L358.621 183.691C358.192 183.013 356.967 181.948 356.091 182.177C355.947 182.216 355.814 182.286 355.699 182.381C355.585 182.476 355.492 182.594 355.427 182.728C355.362 182.862 355.326 183.008 355.322 183.157C355.318 183.306 355.346 183.454 355.404 183.591C355.547 183.88 355.753 184.133 356.006 184.333C356.259 184.533 356.553 184.674 356.868 184.746C357.6 184.859 358.346 184.859 359.079 184.746C359.158 185.165 359.238 185.563 359.298 185.952C359.537 187.286 359.686 188.402 359.776 189.189C359.776 189.328 359.776 189.457 359.776 189.567H356.927L357.923 208.839H362.525L363.521 189.567H361.001L361.061 189.457C361.409 188.74 361.887 187.705 362.405 186.47L362.903 185.205C363.625 185.366 364.366 185.423 365.104 185.374C365.419 185.327 365.72 185.213 365.988 185.042C366.255 184.87 366.484 184.644 366.658 184.378C366.725 184.245 366.762 184.099 366.768 183.95C366.774 183.801 366.748 183.652 366.693 183.514C366.637 183.376 366.553 183.251 366.446 183.147C366.339 183.044 366.211 182.964 366.071 182.914C365.214 182.625 363.919 183.591 363.441 184.238C363.441 184.238 363.152 184.727 362.993 185.005L363.202 184.458C363.332 184.089 363.461 183.721 363.591 183.312L363.77 182.725C363.833 182.518 363.887 182.309 363.929 182.097C364.049 181.609 364.138 181.101 364.228 180.613C364.893 180.878 365.595 181.04 366.31 181.091C366.633 181.091 366.952 181.019 367.245 180.882C367.538 180.744 367.796 180.543 368.003 180.294C368.088 180.172 368.147 180.033 368.176 179.886C368.204 179.739 368.201 179.588 368.167 179.443C368.134 179.297 368.07 179.16 367.979 179.041C367.889 178.922 367.775 178.823 367.644 178.751C366.847 178.342 365.413 179.099 364.845 179.667C364.845 179.667 364.447 180.155 364.258 180.404C364.308 180.105 364.347 179.796 364.387 179.488C364.497 178.601 364.587 177.695 364.676 176.798C364.676 176.52 364.726 176.241 364.756 175.962C365.445 176.243 366.175 176.414 366.917 176.47C367.24 176.469 367.558 176.399 367.85 176.263C368.143 176.127 368.402 175.929 368.61 175.683C368.696 175.56 368.755 175.421 368.783 175.275C368.812 175.128 368.809 174.977 368.775 174.831C368.741 174.686 368.677 174.549 368.587 174.43C368.497 174.31 368.383 174.211 368.252 174.139C367.455 173.721 366.021 174.488 365.453 175.046C365.453 175.046 364.885 175.743 364.766 175.912C364.826 175.305 364.895 174.707 364.995 174.109C365.109 173.307 365.282 172.515 365.513 171.739C366.204 172.016 366.932 172.187 367.674 172.247C367.997 172.247 368.315 172.177 368.608 172.041C368.9 171.905 369.159 171.707 369.367 171.46C369.453 171.338 369.512 171.198 369.54 171.052C369.569 170.905 369.566 170.754 369.532 170.608C369.498 170.463 369.434 170.326 369.344 170.207C369.254 170.087 369.14 169.988 369.009 169.916C368.212 169.498 366.788 170.265 366.21 170.823C366.21 170.872 365.612 171.57 365.513 171.709C365.516 171.663 365.516 171.616 365.513 171.57C365.761 170.794 366.074 170.041 366.449 169.319C366.658 168.92 366.877 168.552 367.096 168.193C367.74 168.538 368.431 168.783 369.148 168.92C369.47 168.954 369.795 168.917 370.101 168.812C370.408 168.707 370.687 168.536 370.921 168.313C371.018 168.2 371.09 168.067 371.134 167.925C371.177 167.782 371.19 167.632 371.172 167.484C371.154 167.336 371.106 167.194 371.03 167.065C370.954 166.937 370.853 166.826 370.732 166.739C369.985 166.251 368.481 166.849 367.853 167.347C367.853 167.347 367.495 167.685 367.276 167.914L367.574 167.446C367.953 166.878 368.331 166.38 368.67 165.942L369.218 165.275C369.943 165.287 370.665 165.186 371.359 164.976C371.66 164.858 371.932 164.675 372.156 164.441C372.379 164.207 372.549 163.928 372.654 163.622C372.696 163.482 372.708 163.336 372.691 163.191C372.673 163.047 372.626 162.908 372.552 162.782C372.478 162.657 372.379 162.548 372.261 162.463C372.144 162.378 372.009 162.318 371.867 162.287ZM361.907 186.29C361.36 187.525 360.911 188.541 360.513 189.278L360.314 189.657H360.254C360.254 189.53 360.234 189.381 360.194 189.208C360.085 188.412 359.915 187.286 359.646 185.942C359.567 185.523 359.467 185.065 359.358 184.607C359.78 184.438 360.192 184.245 360.593 184.029C361.134 184.495 361.738 184.883 362.385 185.185C362.246 185.543 362.087 185.932 361.907 186.29Z" fill="#263238"/>
<path d="M367.117 168.004C367.117 168.004 367.406 166.948 367.416 166.878C367.525 166.091 367.276 164.488 366.42 164.1C366.284 164.038 366.137 164.005 365.988 164.004C365.838 164.003 365.691 164.034 365.554 164.094C365.418 164.154 365.296 164.242 365.196 164.353C365.096 164.464 365.021 164.595 364.975 164.737C364.902 165.052 364.899 165.38 364.966 165.696C365.033 166.013 365.169 166.311 365.364 166.57C365.877 167.129 366.467 167.612 367.117 168.004Z" fill="#263238"/>
<path d="M137.402 169.687C138.09 169.87 138.802 169.95 139.513 169.926C139.513 169.926 139.185 168.93 139.165 168.88C138.836 168.193 137.79 167.057 136.944 167.177C136.803 167.198 136.669 167.249 136.55 167.327C136.431 167.404 136.329 167.506 136.253 167.626C136.177 167.746 136.127 167.88 136.107 168.021C136.087 168.162 136.097 168.305 136.137 168.442C136.244 168.729 136.412 168.99 136.631 169.205C136.849 169.42 137.113 169.584 137.402 169.687Z" fill="#263238"/>
<path d="M157.043 164.578C156.196 164.488 155.18 165.644 154.871 166.341C154.871 166.411 154.533 167.397 154.553 167.397C154.383 167.576 154.214 167.775 154.035 167.994C153.706 168.403 153.328 168.871 152.959 169.399C152.591 169.927 152.202 170.524 151.844 171.171C151.452 171.86 151.119 172.579 150.848 173.323C150.848 173.074 150.848 172.377 150.848 172.327C150.748 171.57 150.111 170.166 149.274 170.016C149.13 169.991 148.982 169.998 148.841 170.037C148.7 170.076 148.569 170.145 148.457 170.241C148.346 170.336 148.257 170.454 148.197 170.587C148.137 170.721 148.106 170.866 148.109 171.012C148.121 171.319 148.199 171.619 148.338 171.892C148.477 172.166 148.674 172.406 148.915 172.596C149.507 172.985 150.156 173.28 150.838 173.472C150.596 174.232 150.406 175.007 150.27 175.793C150.19 176.251 150.121 176.719 150.061 177.177C150.061 176.958 150.061 176.769 150.061 176.739C149.961 175.982 149.324 174.578 148.487 174.428C148.347 174.404 148.203 174.41 148.066 174.446C147.928 174.482 147.8 174.547 147.689 174.637C147.579 174.726 147.489 174.838 147.426 174.966C147.362 175.093 147.327 175.232 147.322 175.375C147.334 175.681 147.412 175.982 147.551 176.255C147.691 176.528 147.888 176.768 148.129 176.958C148.701 177.34 149.329 177.629 149.991 177.815C149.991 177.994 149.941 178.173 149.921 178.353C149.822 179.209 149.722 180.066 149.603 180.902L149.453 181.779C149.453 181.58 149.453 181.42 149.453 181.4C149.354 180.643 148.716 179.239 147.88 179.08C147.735 179.055 147.587 179.062 147.446 179.101C147.305 179.139 147.174 179.209 147.063 179.304C146.952 179.399 146.863 179.518 146.803 179.651C146.742 179.784 146.712 179.929 146.714 180.076C146.727 180.381 146.806 180.679 146.945 180.951C147.084 181.223 147.281 181.461 147.521 181.649C148.077 182.019 148.684 182.304 149.324 182.496C149.264 182.785 149.204 183.084 149.125 183.362C149.082 183.554 149.029 183.744 148.965 183.93L148.786 184.498C148.656 184.846 148.527 185.215 148.397 185.554C148.268 185.892 148.208 186.022 148.119 186.241C148.168 185.952 148.248 185.374 148.248 185.324C148.238 184.656 148.056 184.001 147.72 183.422C147.725 183.346 147.725 183.269 147.72 183.193C147.705 183.051 147.659 182.915 147.586 182.792C147.513 182.67 147.415 182.565 147.298 182.483C147.181 182.402 147.048 182.347 146.907 182.322C146.767 182.296 146.623 182.301 146.485 182.337C145.659 182.556 145.131 184.01 145.091 184.767C145.091 184.817 145.091 185.305 145.091 185.613L144.971 185.075C144.882 184.707 144.782 184.348 144.682 183.96C144.623 183.771 144.573 183.581 144.513 183.392C144.453 183.203 144.374 183.004 144.314 182.815C144.145 182.366 143.965 181.918 143.766 181.48C144.477 181.311 145.157 181.029 145.778 180.643C146.032 180.472 146.246 180.248 146.405 179.987C146.565 179.726 146.667 179.433 146.704 179.129C146.705 178.99 146.676 178.852 146.62 178.724C146.564 178.596 146.482 178.481 146.378 178.387C146.275 178.294 146.153 178.222 146.021 178.179C145.888 178.135 145.748 178.119 145.609 178.133C144.762 178.223 144.025 179.578 143.876 180.325C143.876 180.374 143.806 180.922 143.786 181.221C143.667 180.962 143.547 180.693 143.418 180.424C143.039 179.657 142.631 178.9 142.222 178.133L141.864 177.436C142.56 177.293 143.231 177.048 143.856 176.709C144.111 176.537 144.325 176.311 144.485 176.048C144.645 175.785 144.746 175.491 144.782 175.185C144.783 175.046 144.754 174.908 144.698 174.78C144.642 174.652 144.559 174.537 144.456 174.443C144.353 174.349 144.231 174.278 144.098 174.235C143.966 174.191 143.825 174.175 143.686 174.189C142.84 174.289 142.103 175.643 141.943 176.39C141.943 176.44 141.864 177.237 141.854 177.436C141.585 176.918 141.326 176.44 141.087 175.883C140.764 175.185 140.488 174.466 140.26 173.731C140.957 173.586 141.629 173.338 142.252 172.994C142.509 172.826 142.726 172.603 142.886 172.341C143.046 172.08 143.146 171.785 143.179 171.48C143.179 171.341 143.151 171.202 143.094 171.075C143.038 170.947 142.956 170.832 142.853 170.738C142.749 170.644 142.627 170.573 142.495 170.529C142.362 170.486 142.222 170.47 142.083 170.484C141.236 170.574 140.499 171.928 140.35 172.675C140.35 172.735 140.26 173.582 140.26 173.741C140.256 173.698 140.256 173.655 140.26 173.612C140.049 172.869 139.906 172.109 139.832 171.341C139.832 170.913 139.762 170.504 139.742 170.106C140.428 170.045 141.1 169.877 141.734 169.608C142.007 169.466 142.246 169.265 142.434 169.021C142.621 168.777 142.753 168.494 142.82 168.194C142.842 168.051 142.832 167.905 142.792 167.766C142.751 167.628 142.682 167.499 142.587 167.39C142.492 167.282 142.375 167.195 142.243 167.135C142.111 167.076 141.968 167.046 141.824 167.048C140.967 167.048 140.081 168.313 139.832 169.04C139.832 169.04 139.732 169.488 139.673 169.797C139.673 169.618 139.673 169.429 139.673 169.259C139.673 168.612 139.673 168.024 139.752 167.496C139.752 167.198 139.812 166.929 139.842 166.68C140.421 166.308 140.939 165.847 141.376 165.315C141.555 165.065 141.677 164.778 141.732 164.474C141.787 164.171 141.774 163.86 141.694 163.562C141.648 163.428 141.574 163.306 141.477 163.203C141.38 163.1 141.262 163.019 141.131 162.965C141 162.911 140.859 162.886 140.717 162.891C140.576 162.896 140.437 162.932 140.31 162.994C139.543 163.383 139.314 164.917 139.473 165.664C139.473 165.733 139.772 166.729 139.782 166.719C139.782 166.958 139.712 167.217 139.683 167.506C139.683 168.024 139.573 168.622 139.563 169.269C139.519 169.966 139.519 170.664 139.563 171.361C139.618 172.142 139.748 172.915 139.952 173.671L139.384 172.845C138.886 172.267 137.581 171.44 136.794 171.779C136.664 171.836 136.547 171.921 136.452 172.027C136.357 172.133 136.286 172.258 136.244 172.394C136.201 172.53 136.188 172.673 136.206 172.815C136.224 172.956 136.271 173.092 136.346 173.213C136.525 173.461 136.756 173.667 137.022 173.817C137.289 173.967 137.585 174.056 137.89 174.08C138.596 174.081 139.298 173.974 139.971 173.761C140.199 174.523 140.472 175.272 140.788 176.002C140.967 176.43 141.167 176.859 141.376 177.277L141.127 176.918C140.629 176.341 139.324 175.524 138.537 175.853C138.407 175.91 138.29 175.994 138.195 176.1C138.1 176.207 138.029 176.332 137.987 176.468C137.944 176.604 137.931 176.747 137.949 176.888C137.967 177.03 138.014 177.166 138.089 177.287C138.267 177.536 138.498 177.744 138.764 177.895C139.031 178.047 139.327 178.138 139.633 178.163C140.308 178.157 140.979 178.053 141.625 177.855C141.714 178.014 141.784 178.173 141.864 178.333C142.252 179.109 142.651 179.876 143.009 180.643L143.368 181.45L143.149 181.141C142.651 180.564 141.346 179.737 140.559 180.076C140.429 180.133 140.312 180.217 140.217 180.323C140.122 180.43 140.051 180.555 140.008 180.691C139.966 180.827 139.953 180.97 139.971 181.111C139.988 181.253 140.036 181.389 140.111 181.51C140.289 181.759 140.52 181.967 140.786 182.118C141.053 182.27 141.349 182.361 141.655 182.386C142.33 182.391 143.002 182.291 143.647 182.088C143.756 182.366 143.866 182.645 143.965 182.924C144.065 183.203 144.095 183.293 144.145 183.492C144.194 183.691 144.254 183.87 144.304 184.06C144.394 184.418 144.483 184.797 144.563 185.155L144.712 185.882C144.593 185.613 144.334 185.095 144.314 185.046C143.906 184.408 142.74 183.392 141.914 183.601C141.775 183.637 141.645 183.703 141.534 183.793C141.423 183.884 141.333 183.997 141.269 184.126C141.206 184.254 141.171 184.395 141.167 184.538C141.163 184.682 141.19 184.824 141.246 184.956C141.387 185.229 141.585 185.469 141.828 185.658C142.07 185.847 142.351 185.982 142.651 186.052C143.344 186.159 144.049 186.159 144.742 186.052C144.822 186.44 144.902 186.828 144.961 187.197C145.19 188.462 145.32 189.528 145.41 190.275C145.41 190.414 145.41 190.524 145.41 190.643H142.84L143.776 208.959H148.158L149.164 190.603H146.774V190.494C147.103 189.806 147.561 188.82 148.049 187.615C148.208 187.237 148.368 186.828 148.527 186.4C149.211 186.566 149.917 186.624 150.619 186.569C150.922 186.521 151.211 186.407 151.466 186.235C151.721 186.063 151.935 185.837 152.093 185.573C152.157 185.447 152.194 185.308 152.201 185.166C152.208 185.023 152.184 184.881 152.131 184.749C152.078 184.617 151.998 184.498 151.895 184.4C151.792 184.301 151.669 184.226 151.535 184.179C150.728 183.91 149.493 184.826 149.035 185.444L148.617 186.171C148.676 186.002 148.746 185.832 148.806 185.653C148.935 185.305 149.055 184.946 149.184 184.568C149.244 184.378 149.294 184.189 149.354 184C149.413 183.811 149.453 183.611 149.503 183.412C149.613 182.944 149.702 182.476 149.782 181.998C150.419 182.247 151.091 182.398 151.774 182.446C152.081 182.444 152.383 182.377 152.662 182.248C152.94 182.119 153.188 181.932 153.387 181.699C153.473 181.584 153.532 181.451 153.561 181.31C153.591 181.17 153.589 181.024 153.557 180.884C153.525 180.744 153.463 180.613 153.375 180.499C153.287 180.385 153.176 180.292 153.049 180.225C152.292 179.837 150.927 180.564 150.389 181.101C150.389 181.101 150.011 181.56 149.822 181.799C149.872 181.51 149.911 181.221 149.951 180.932C150.061 180.086 150.14 179.219 150.22 178.363C150.22 178.104 150.27 177.845 150.3 177.576C150.956 177.838 151.647 177.999 152.352 178.054C152.658 178.052 152.961 177.985 153.239 177.856C153.518 177.727 153.765 177.54 153.965 177.307C154.049 177.191 154.107 177.06 154.135 176.92C154.163 176.78 154.161 176.636 154.129 176.498C154.097 176.359 154.036 176.229 153.949 176.116C153.862 176.003 153.752 175.91 153.626 175.843C152.859 175.444 151.505 176.171 150.957 176.709C150.957 176.709 150.429 177.367 150.31 177.526C150.37 176.948 150.429 176.38 150.519 175.813C150.636 175.052 150.802 174.301 151.017 173.562C151.676 173.825 152.371 173.986 153.079 174.04C153.384 174.038 153.685 173.97 153.962 173.842C154.239 173.713 154.484 173.526 154.682 173.293C154.768 173.177 154.827 173.045 154.856 172.904C154.885 172.763 154.884 172.618 154.852 172.478C154.82 172.338 154.758 172.207 154.67 172.093C154.582 171.979 154.471 171.886 154.344 171.819C153.587 171.43 152.222 172.158 151.684 172.695C151.684 172.695 151.107 173.402 151.027 173.532V173.393C151.263 172.657 151.563 171.944 151.923 171.261C152.112 170.883 152.322 170.524 152.531 170.185C153.152 170.523 153.825 170.756 154.523 170.873C154.828 170.909 155.137 170.877 155.428 170.778C155.719 170.68 155.985 170.519 156.206 170.305C156.302 170.199 156.374 170.074 156.417 169.938C156.461 169.802 156.474 169.659 156.457 169.517C156.44 169.375 156.393 169.239 156.319 169.117C156.244 168.995 156.145 168.891 156.027 168.811C155.32 168.333 153.885 168.901 153.288 169.379L152.74 169.927C152.84 169.777 152.929 169.618 153.029 169.478C153.387 168.94 153.746 168.482 154.025 168.054C154.214 167.815 154.383 167.606 154.553 167.417C155.227 167.419 155.899 167.322 156.545 167.128C156.83 167.014 157.088 166.841 157.301 166.619C157.514 166.398 157.678 166.133 157.78 165.843C157.82 165.712 157.833 165.573 157.817 165.436C157.801 165.3 157.757 165.168 157.688 165.049C157.619 164.93 157.526 164.827 157.415 164.746C157.304 164.665 157.177 164.608 157.043 164.578ZM147.641 187.396C147.123 188.581 146.645 189.547 146.316 190.215C146.246 190.354 146.176 190.474 146.127 190.583H146.067C146.067 190.444 146.067 190.304 146.007 190.145C145.908 189.388 145.748 188.322 145.489 187.048C145.41 186.639 145.32 186.211 145.22 185.773C145.619 185.613 146.008 185.43 146.386 185.225C146.902 185.664 147.475 186.032 148.089 186.32C147.943 186.699 147.793 187.057 147.641 187.396Z" fill="#263238"/>
<path d="M152.571 170.006C152.571 170.006 152.84 169.01 152.85 168.951C152.95 168.194 152.711 166.67 151.944 166.301C151.815 166.241 151.674 166.209 151.532 166.207C151.39 166.206 151.248 166.234 151.118 166.292C150.988 166.35 150.872 166.434 150.777 166.541C150.682 166.647 150.611 166.773 150.569 166.909C150.499 167.208 150.494 167.519 150.556 167.82C150.618 168.121 150.745 168.405 150.928 168.652C151.405 169.183 151.959 169.64 152.571 170.006Z" fill="#263238"/>
<path d="M374.855 210.891V23.8047" stroke="#263238" stroke-linecap="round" stroke-linejoin="round"/>
<path d="M207.529 210.891V24.9707" stroke="#263238" stroke-linecap="round" stroke-linejoin="round"/>
<path d="M100.71 119.051H447.801" stroke="#263238" stroke-linecap="round" stroke-linejoin="round"/>
<path d="M153.109 35.8166H159.932C160.809 35.8166 161.65 36.165 162.27 36.7852C162.89 37.4053 163.238 38.2463 163.238 39.1233V46.6829H149.763V39.1233C149.763 38.6857 149.849 38.2525 150.018 37.8486C150.187 37.4448 150.434 37.0785 150.745 36.771C151.057 36.4634 151.426 36.2206 151.832 36.0568C152.237 35.893 152.672 35.8114 153.109 35.8166Z" fill="#263238"/>
<path d="M162.6 56.7021C162.6 57.9391 162.234 59.1484 161.546 60.177C160.859 61.2056 159.882 62.0073 158.739 62.4807C157.596 62.9541 156.339 63.078 155.125 62.8367C153.912 62.5953 152.798 61.9996 151.923 61.1249C151.048 60.2501 150.452 59.1356 150.211 57.9223C149.97 56.709 150.094 55.4514 150.567 54.3085C151.04 53.1655 151.842 52.1887 152.871 51.5014C153.899 50.8141 155.109 50.4473 156.346 50.4473C158.004 50.4473 159.595 51.1063 160.768 52.2793C161.941 53.4523 162.6 55.0432 162.6 56.7021Z" fill="white"/>
<path d="M183.118 56.9912H129.923L149.872 46.125H163.119L183.118 56.9912Z" fill="#263238"/>
<path d="M157.641 15.5684H155.39V37.3107H157.641V15.5684Z" fill="#263238"/>
<path d="M408.539 35.8164H415.352C416.229 35.8164 417.07 36.1648 417.69 36.7849C418.31 37.405 418.658 38.2461 418.658 39.1231V46.6826H405.232V39.1231C405.232 38.2461 405.581 37.405 406.201 36.7849C406.821 36.1648 407.662 35.8164 408.539 35.8164Z" fill="#263238"/>
<path d="M411.776 62.9568C415.231 62.9568 418.031 60.1565 418.031 56.7021C418.031 53.2476 415.231 50.4473 411.776 50.4473C408.322 50.4473 405.521 53.2476 405.521 56.7021C405.521 60.1565 408.322 62.9568 411.776 62.9568Z" fill="white"/>
<path d="M438.548 56.9912H385.353L405.302 46.125H418.549L438.548 56.9912Z" fill="#263238"/>
<path d="M413.071 15.5684H410.82V37.3107H413.071V15.5684Z" fill="#263238"/>
<path d="M256.372 84.6895L252.05 87.3487" stroke="#263238" stroke-width="0.5" stroke-linecap="round" stroke-linejoin="round"/>
<path d="M329.339 39.7207L262.189 81.1039" stroke="#263238" stroke-width="0.5" stroke-linecap="round" stroke-linejoin="round"/>
<path d="M338.203 42.5195L284.399 75.6659" stroke="#263238" stroke-width="0.5" stroke-linecap="round" stroke-linejoin="round"/>
<path d="M361.698 28.0391L345.443 38.0487" stroke="#263238" stroke-width="0.5" stroke-linecap="round" stroke-linejoin="round"/>
<path d="M277.587 201.898C277.587 201.898 275.854 213.382 277.069 219.467C278.284 225.553 282.806 255.323 284.041 267.484C285.276 279.645 291.172 298.09 291.521 298.967C291.869 299.843 291.003 302.264 291.003 303.309C291.003 304.355 291.351 306.795 291.351 306.795C291.351 306.795 286.302 310.092 283.692 311.666C281.083 313.239 282.308 313.927 284.738 314.265C287.168 314.604 321.589 314.265 321.589 314.265C321.589 314.265 322.456 314.096 321.41 312.532C320.364 310.969 313.233 306.098 313.233 306.098C313.095 304.942 313.039 303.777 313.064 302.612C313.064 300.182 310.972 295.83 310.972 295.83C310.972 295.83 314.807 268.002 313.96 260.691C313.114 253.381 312.745 245.911 314.139 239.297C315.534 232.684 313.442 203.292 313.791 201.898C313.969 200.889 313.848 199.851 313.442 198.91C313.442 198.91 302.486 203.253 293.264 203.95C287.951 204.437 282.596 203.736 277.587 201.898Z" fill="#263238" stroke="#263238" stroke-miterlimit="10" stroke-linecap="round"/>
<path d="M321.42 312.533C320.374 310.969 313.243 306.099 313.243 306.099C313.243 306.099 313.243 305.969 313.243 305.75C308.963 307.162 304.964 309.316 301.431 312.114C301.431 312.114 301.998 311.357 298.791 308.718C296.658 307.11 293.983 306.395 291.331 306.726C291.331 306.726 286.282 310.023 283.672 311.596C281.063 313.17 282.288 313.857 284.718 314.196C287.148 314.535 321.57 314.196 321.57 314.196C321.57 314.196 322.466 314.106 321.42 312.533Z" fill="white" stroke="#263238" stroke-linecap="round" stroke-linejoin="round"/>
<path d="M283.912 312.742C283.912 312.742 290.316 313.21 292.966 312.434" stroke="#263238" stroke-width="0.75" stroke-linecap="round" stroke-linejoin="round"/>
<path d="M275.704 153.882C275.704 153.882 270.724 180.774 269.44 184.818C268.155 188.861 268.653 198.263 272.428 197.168C276.202 196.072 277.407 190.445 277.736 188.881C278.065 187.318 278.364 159.998 278.364 155.277C278.364 150.556 275.704 153.882 275.704 153.882Z" fill="#92E3A9" stroke="#263238" stroke-linecap="round" stroke-linejoin="round"/>
<path d="M293.841 143.513C293.841 143.513 280.993 147.288 278.901 147.726C276.81 148.164 275.774 151.292 275.664 153.881C275.555 156.471 275.993 182.914 275.884 190.802C275.774 198.691 274.698 201.38 278.254 204.288C281.81 207.196 291.859 207.744 301.032 207.097C310.205 206.449 314.319 203.641 314.319 199.547C314.319 195.454 313.671 176.012 313.671 176.012C313.671 176.012 314.667 164.678 316.908 159.817C319.149 154.957 320.464 153.443 318.741 151.72C317.018 149.997 306.321 143.842 302.118 142.646C299.339 142.017 296.43 142.321 293.841 143.513Z" fill="#92E3A9" stroke="#263238" stroke-linecap="round" stroke-linejoin="round"/>
<path d="M291.361 151.074L292.547 158.633L301.182 153.554L297.407 147.398C297.407 147.398 292.118 149.022 291.361 151.074Z" fill="#263238" stroke="#263238" stroke-linecap="round" stroke-linejoin="round"/>
<path d="M294.519 139.6C292.814 141.084 291.455 142.923 290.535 144.988C289.33 148.046 286.82 152.876 287.846 153.145C288.872 153.414 291.93 150.834 292.577 150.834C293.225 150.834 294.519 153.982 294.898 154.081C296.229 153.716 297.531 153.25 298.792 152.687C298.792 152.687 299.35 156.671 300.555 156.771C301.76 156.87 305.844 150.645 306.591 146.004C307.338 141.363 304.917 140.626 304.449 140.526C303.981 140.426 298.513 138.026 294.519 139.6Z" fill="#92E3A9" stroke="#263238" stroke-linecap="round" stroke-linejoin="round"/>
<path d="M293.872 124.471C293.872 124.471 293.692 120.208 293.692 117.609C293.692 115.009 294.061 113.625 295.635 113.057C297.208 112.489 297.676 114.92 297.627 116.214C297.577 117.509 293.872 124.471 293.872 124.471Z" fill="#263238" stroke="#263238" stroke-linecap="round" stroke-linejoin="round"/>
<path d="M293.872 123.454C293.872 123.454 293.782 120.296 292.667 121.97C291.551 123.643 291.93 127.537 292.667 127.169C293.404 126.8 293.872 123.454 293.872 123.454Z" fill="white" stroke="#263238" stroke-linecap="round" stroke-linejoin="round"/>
<path d="M294.061 139.42C294.061 139.42 293.782 146.93 293.593 149.898C293.403 152.866 294.429 154.539 296.192 153.882C297.955 153.224 302.228 147.567 303.523 145.346C304.386 143.808 305.1 142.19 305.654 140.516C305.654 140.516 299.26 142.478 294.061 139.42Z" fill="white" stroke="#263238" stroke-linecap="round" stroke-linejoin="round"/>
<path d="M296.173 115.288C296.173 115.288 292.836 126.333 291.91 130.317C290.984 134.301 291.442 137.658 293.115 140.277C293.899 141.483 294.993 142.457 296.283 143.095C297.573 143.732 299.011 144.011 300.445 143.902C303.433 143.803 307.128 143.066 309.35 138.424C310.53 135.859 311.555 133.225 312.417 130.536C312.875 129.61 314.549 124.779 315.475 121.722C316.401 118.664 314.569 114.979 311.023 112.907C309.947 112.24 302.696 107.658 296.173 115.288Z" fill="white" stroke="#263238" stroke-linecap="round" stroke-linejoin="round"/>
<path d="M313.104 129.49C313.104 129.49 315.425 127.627 316.092 129.022C316.76 130.416 315.534 132.916 313.961 133.753C313.581 134.003 313.147 134.16 312.695 134.208C312.243 134.257 311.785 134.196 311.361 134.032C311.361 134.032 312.108 130.506 313.104 129.49Z" fill="white" stroke="#263238" stroke-linecap="round" stroke-linejoin="round"/>
<path d="M316.142 111.393L315.146 110.277C315.146 110.277 315.056 109.53 312.078 108.425C309.1 107.319 305.674 107.489 304.469 106.005C303.263 104.521 301.869 104.152 298.343 104.71C294.818 105.268 293.363 108.883 293.363 111.851C293.363 114.819 299.768 119.002 304.22 119.65C308.672 120.297 313.044 118.903 312.108 119.739C311.172 120.576 308.492 123.544 309.419 124.57C310.345 125.596 310.903 126.233 310.903 127.448C310.903 128.275 310.733 130.187 310.773 131.343C310.415 132.07 309.459 134.012 309.239 134.33C309.02 134.649 306.361 132.478 304.777 131.641C304.045 131.189 303.222 130.904 302.367 130.805C302.367 130.805 302.277 132.199 301.63 132.378C300.983 132.558 298.752 132.568 298.094 131.92C297.89 131.635 297.744 131.312 297.665 130.97C297.587 130.628 297.577 130.274 297.636 129.928C295.366 130.01 293.21 130.945 291.601 132.548C291.226 135.213 291.786 137.926 293.184 140.227C293.968 141.433 295.063 142.406 296.352 143.044C297.642 143.682 299.08 143.961 300.515 143.852C303.503 143.752 307.198 143.015 309.419 138.374C310.502 136.106 311.402 133.755 312.108 131.343C312.4 130.911 312.631 130.442 312.795 129.948C313.655 128.011 314.778 126.201 316.132 124.57C317.939 122.09 318.915 119.102 318.92 116.034C318.944 115.077 318.695 114.133 318.203 113.311C317.711 112.489 316.997 111.824 316.142 111.393Z" fill="#263238" stroke="#263238" stroke-linecap="round" stroke-linejoin="round"/>
<path d="M307.626 111.921C307.626 111.921 301.65 109.68 300.654 113.913C299.658 118.146 309.618 119.391 317.835 117.897" stroke="white" stroke-width="0.75" stroke-linecap="round" stroke-linejoin="round"/>
<path d="M310.614 122.876C310.614 122.876 312.357 123.374 316.341 122.129" stroke="white" stroke-width="0.75" stroke-linecap="round" stroke-linejoin="round"/>
<path d="M299.718 123.455L299.35 125.586C299.35 125.586 296.94 130.975 297.587 131.622C298.234 132.27 301.671 133.017 301.949 131.901C302.098 131.384 302.192 130.854 302.228 130.317L301.113 130.039" stroke="#263238" stroke-linecap="round" stroke-linejoin="round"/>
<path d="M303.622 124.291C303.622 124.291 307.048 123.454 307.885 126.333" stroke="#263238" stroke-linecap="round" stroke-linejoin="round"/>
<path d="M298.981 122.528C298.579 122.142 298.062 121.897 297.508 121.831C296.955 121.764 296.395 121.88 295.913 122.159" stroke="#263238" stroke-linecap="round" stroke-linejoin="round"/>
<path d="M305.007 127.529C304.927 128.086 304.599 128.525 304.27 128.455C303.941 128.385 303.732 127.917 303.812 127.359C303.892 126.802 304.21 126.363 304.549 126.433C304.888 126.503 305.077 126.971 305.007 127.529Z" fill="#263238"/>
<path d="M297.258 125.207C297.178 125.764 296.85 126.203 296.521 126.133C296.192 126.063 295.983 125.605 296.063 125.037C296.143 124.47 296.461 124.041 296.8 124.111C297.139 124.181 297.328 124.649 297.258 125.207Z" fill="#263238"/>
<path d="M304.081 134.4C300.196 139.011 297.109 135.207 296.84 134.221L304.081 134.4Z" fill="white"/>
<path d="M292.547 158.633C292.547 158.633 288.015 176.66 287.149 185.295C286.636 190.172 286.383 195.073 286.392 199.976L288.663 203.96L292.009 199.976C292.009 199.976 291.9 180.764 291.9 174.608C291.9 168.453 292.547 158.633 292.547 158.633Z" fill="#263238" stroke="#263238" stroke-linecap="round" stroke-linejoin="round"/>
<path d="M313.941 162.069C313.941 162.069 311.162 168.334 312.208 171.461C313.254 174.589 322.118 187.636 322.985 188.164C323.851 188.692 330.644 190.246 331.51 186.252C332.377 182.258 325.076 158.593 322.815 155.117C320.554 151.641 318.831 151.98 317.945 152.677" fill="#92E3A9"/>
<path d="M313.941 162.069C313.941 162.069 311.162 168.334 312.208 171.461C313.254 174.589 322.118 187.636 322.985 188.164C323.851 188.692 330.644 190.246 331.51 186.252C332.377 182.258 325.076 158.593 322.815 155.117C320.554 151.641 318.831 151.98 317.945 152.677" stroke="#263238" stroke-linecap="round" stroke-linejoin="round"/>
<path d="M289.938 175.116L290.983 202.943L312.208 201.908L311.68 174.598L289.938 175.116Z" fill="white" stroke="#263238" stroke-linecap="round" stroke-linejoin="round"/>
<path d="M327.337 181.381C327.337 181.381 321.949 181.899 318.811 183.642C315.674 185.385 303.503 187.985 303.503 187.985L304.2 194.767C309.686 195.468 315.238 195.468 320.724 194.767C328.552 193.552 333.074 193.901 333.422 191.64C333.771 189.379 330.813 180.854 330.813 180.854" fill="#92E3A9"/>
<path d="M327.337 181.381C327.337 181.381 321.949 181.899 318.811 183.642C315.674 185.385 303.503 187.985 303.503 187.985L304.2 194.767C309.686 195.468 315.238 195.468 320.724 194.767C328.552 193.552 333.074 193.901 333.422 191.64C333.771 189.379 330.813 180.854 330.813 180.854" stroke="#263238" stroke-linecap="round" stroke-linejoin="round"/>
<path d="M308.034 187.287L308.373 195.116" stroke="#263238" stroke-linecap="round" stroke-linejoin="round"/>
<path d="M304.03 188.681L298.164 183.99C298.164 183.99 294.18 181.898 293.294 181.898C291.483 182.091 289.685 182.38 287.905 182.765C287.208 182.944 287.557 183.811 288.772 184.339C289.544 184.655 290.368 184.831 291.202 184.857C291.202 184.857 285.645 186.072 285.645 187.466C285.645 188.86 288.075 189.548 288.075 189.548C288.075 189.548 287.378 192.854 288.941 194.079C290.505 195.304 292.079 195.812 294.857 195.075C297.636 194.338 304.25 194.727 304.25 194.727L304.03 188.681Z" fill="white" stroke="#263238" stroke-linecap="round" stroke-linejoin="round"/>
<path d="M274.749 185.754C274.749 185.754 270.685 180.913 269.44 177.158C268.195 173.403 265.376 166.202 265.376 166.202L260.845 166.043C260.845 166.043 261.313 180.106 263.833 188.084C266.353 196.062 269.609 200.116 271.332 199.339C273.056 198.562 275.555 194.807 275.555 194.807" fill="#92E3A9"/>
<path d="M274.749 185.754C274.749 185.754 270.685 180.913 269.44 177.158C268.195 173.403 265.376 166.202 265.376 166.202L260.845 166.043C260.845 166.043 261.313 180.106 263.833 188.084C266.353 196.062 269.609 200.116 271.332 199.339C273.056 198.562 275.555 194.807 275.555 194.807" stroke="#263238" stroke-linecap="round" stroke-linejoin="round"/>
<path d="M270.067 148.563C268.89 149.425 268.102 150.717 267.876 152.158C267.557 153.403 266.94 153.872 264.888 153.722C264.531 153.668 264.167 153.685 263.816 153.772C263.466 153.859 263.136 154.015 262.846 154.23C262.767 153.904 262.72 153.57 262.707 153.234C262.707 152.119 264.609 149.668 265.476 148.961C266.342 148.254 267.607 147.218 267.468 146.272C267.328 145.326 263.753 147.378 262.727 148.095C261.701 148.812 261.143 151.73 261.143 151.73C260.614 153.525 260.566 155.428 261.004 157.248C260.894 157.487 260.795 157.716 260.685 157.985C259.281 161.421 260.844 166.112 260.844 166.112L265.376 166.272C265.376 166.272 264.908 163.931 265.685 162.985C266.461 161.758 267.351 160.608 268.344 159.549C269.589 158.453 270.217 155.176 270.217 154.389C270.359 152.936 270.729 151.515 271.312 150.176C271.94 148.712 271.471 147.627 270.067 148.563Z" fill="white" stroke="#263238" stroke-linecap="round" stroke-linejoin="round"/>
<path d="M259.958 154.678C259.958 154.678 260.516 151.76 261.542 151.043C262.568 150.325 266.133 148.274 266.283 149.23C266.432 150.186 265.177 151.222 264.291 151.909C263.404 152.596 261.522 155.076 261.522 156.182C261.598 157.105 261.813 158.012 262.159 158.871C262.159 158.871 261.163 160.694 260.416 160.923C259.669 161.152 259.092 157.606 259.958 154.678Z" fill="white" stroke="#263238" stroke-linecap="round" stroke-linejoin="round"/>
<path d="M260.117 156.421C260.117 156.421 260.675 153.493 261.701 152.785C262.727 152.078 266.283 150.017 266.442 150.963C266.601 151.909 265.336 152.955 264.45 153.652C263.564 154.349 261.681 156.819 261.681 157.925C261.757 158.848 261.972 159.755 262.319 160.614C262.319 160.614 261.323 162.427 260.576 162.666C259.829 162.905 259.251 159.349 260.117 156.421Z" fill="white" stroke="#263238" stroke-linecap="round" stroke-linejoin="round"/>
<path d="M260.317 164.249C260.317 164.249 259.052 159.897 259.211 158.164C259.371 156.431 259.998 154.917 260.874 154.837C261.751 154.758 265.456 153.413 265.456 154.439C265.456 155.465 262.06 156.58 262.06 156.58C262.06 156.58 264.191 159.349 264.111 160.763C264.027 161.775 263.843 162.776 263.564 163.751" fill="white"/>
<path d="M260.317 164.249C260.317 164.249 259.052 159.897 259.211 158.164C259.371 156.431 259.998 154.917 260.874 154.837C261.751 154.758 265.456 153.413 265.456 154.439C265.456 155.465 262.06 156.58 262.06 156.58C262.06 156.58 264.191 159.349 264.111 160.763C264.027 161.775 263.843 162.776 263.564 163.751" stroke="#263238" stroke-linecap="round" stroke-linejoin="round"/>
<path d="M288.374 218.252L292.288 221.12L301.421 310.879" stroke="white" stroke-width="0.75" stroke-linecap="round" stroke-linejoin="round"/>
<path d="M165.259 174.45C165.259 174.45 168.347 182.228 168.486 185.017C168.626 187.806 167.909 187.358 169.074 190.993C170.239 194.628 173.626 203.313 175.538 210.355C177.054 216.1 177.794 222.022 177.739 227.964H156.017C156.017 227.964 157.63 223.562 153.228 211.241C148.826 198.921 147.073 191.601 147.073 188.095C147.073 184.589 145.16 181.053 144.423 177.089C143.686 173.125 146.037 173.563 146.037 173.563L163.795 173.713C163.795 173.713 164.971 173.563 165.259 174.45Z" fill="#263238" stroke="#263238" stroke-linecap="round" stroke-linejoin="round"/>
<path d="M144.304 175.326C144.473 173.274 146.037 173.563 146.037 173.563L163.795 173.712C163.795 173.712 164.97 173.563 165.259 174.449C165.259 174.449 168.347 182.228 168.486 185.017C168.531 185.751 168.511 186.487 168.426 187.218L168.048 187.795C168.048 187.795 167.46 192.935 160.419 193.233C153.377 193.532 149.463 190.295 147.949 187.208C146.435 184.12 145.897 179.14 144.722 176.252C144.603 175.913 144.453 175.664 144.304 175.326Z" fill="white" stroke="#263238" stroke-linecap="round" stroke-linejoin="round"/>
<path d="M147.073 188.094C147.073 184.568 145.161 181.052 144.424 177.088C143.916 174.349 144.882 173.712 145.529 173.582C145.778 173.672 146.684 174.2 147.8 177.676C149.125 181.779 148.388 187.207 149.125 191.619C149.862 196.032 153.527 205.713 156.166 212.904C158.337 218.82 158.826 224.537 157.939 228.013H156.017C156.017 228.013 157.63 223.61 153.228 211.29C148.826 198.97 147.073 191.599 147.073 188.094Z" fill="white" stroke="#263238" stroke-linecap="round" stroke-linejoin="round"/>
<path d="M255.764 227.744H238.096C237.776 227.716 237.478 227.569 237.261 227.332C237.044 227.095 236.924 226.785 236.924 226.464C236.924 226.143 237.044 225.833 237.261 225.597C237.478 225.36 237.776 225.213 238.096 225.184H255.764C256.234 225.193 256.698 225.09 257.12 224.886C257.543 224.681 257.911 224.38 258.195 224.006C258.479 223.633 258.671 223.198 258.756 222.736C258.841 222.275 258.816 221.8 258.683 221.35L252.408 198.89C252.317 198.564 252.359 198.215 252.525 197.92C252.691 197.625 252.968 197.408 253.294 197.317C253.621 197.225 253.97 197.268 254.265 197.434C254.56 197.6 254.777 197.877 254.868 198.203L261.143 220.663C261.373 221.492 261.408 222.363 261.246 223.209C261.084 224.054 260.729 224.851 260.208 225.536C259.688 226.221 259.016 226.777 258.245 227.16C257.474 227.543 256.625 227.743 255.764 227.744Z" fill="white" stroke="#263238" stroke-linecap="round" stroke-linejoin="round"/>
<path d="M253.554 169.359L249.549 168.879L243.344 220.608L247.349 221.089L253.554 169.359Z" fill="white" stroke="#263238" stroke-linecap="round" stroke-linejoin="round"/>
<path d="M253.574 169.34C257.493 186.785 255.302 205.047 247.369 221.071L253.574 169.34Z" fill="white" stroke="#263238" stroke-linecap="round" stroke-linejoin="round"/>
<path d="M267.378 227.625H92.582V303.818H267.378V227.625Z" fill="#263238"/>
<mask id="mask0_571_1091" style="mask-type:luminance" maskUnits="userSpaceOnUse" x="92" y="227" width="176" height="77">
<path d="M267.378 227.625H92.582V303.818H267.378V227.625Z" fill="white"/>
</mask>
<g mask="url(#mask0_571_1091)">
<path opacity="0.72" d="M267.378 227.625H92.582V303.818H267.378V227.625Z" fill="white"/>
</g>
<path d="M267.378 227.625H92.582V303.818H267.378V227.625Z" stroke="#263238" stroke-linecap="round" stroke-linejoin="round"/>
<path d="M267.418 229.785H92.6025V232.315H267.418V229.785Z" fill="#263238"/>
<path d="M268.872 226.131H88.1006V230.115H268.872V226.131Z" fill="white" stroke="#263238" stroke-linecap="round" stroke-linejoin="round"/>
<path d="M442.224 167.776L422.583 167.945C422.583 167.945 421.288 167.776 420.959 168.752C420.959 168.752 417.553 177.357 417.384 180.445C417.214 183.532 418.041 183.034 416.736 187.098C415.432 191.161 411.707 200.733 409.595 208.531C406.757 219.009 406.02 230.124 405.84 240.931C405.84 242.664 404.775 257.594 407.474 257.594C409.715 257.594 430.381 260.333 430.63 256.349C431.626 240.473 428.758 224.955 434.276 209.537C436.417 203.562 438.867 197.207 440.69 190.932C442.513 184.658 442.821 178.134 444.006 171.71C444.823 167.288 442.224 167.776 442.224 167.776Z" fill="#263238" stroke="#263238" stroke-linecap="round" stroke-linejoin="round"/>
<path d="M444.147 169.688C443.957 167.427 442.224 167.746 442.224 167.746L422.584 167.915C422.584 167.915 421.289 167.746 420.96 168.722C420.96 168.722 417.554 177.327 417.385 180.415C417.343 181.229 417.366 182.045 417.454 182.855L417.873 183.492C417.873 183.492 418.52 189.179 426.319 189.468C434.117 189.757 438.489 186.221 440.113 182.815C441.736 179.409 442.384 173.851 443.688 170.644C443.818 170.375 443.977 170.047 444.147 169.688Z" fill="white" stroke="#263238" stroke-linecap="round" stroke-linejoin="round"/>
<path d="M439.594 176.061C438.28 180.802 439.066 182.127 437.752 190.294C436.437 198.461 431.696 207.674 429.844 216.11C427.991 224.546 428.848 254.316 429.057 255.631C429.156 256.33 429.195 257.036 429.176 257.742C430.053 257.414 430.591 256.955 430.63 256.338C431.626 240.462 428.758 224.944 434.276 209.527C436.417 203.551 438.867 197.196 440.69 190.922C442.512 184.647 442.821 178.123 444.006 171.699C444.504 169.01 443.718 168.153 443.01 167.904C441.532 170.468 440.384 173.209 439.594 176.061Z" fill="white" stroke="#263238" stroke-linecap="round" stroke-linejoin="round"/>
<path d="M386.1 176.541C383.185 177.859 380.366 179.38 377.664 181.093C375.224 182.876 375.672 187.258 375.672 188.393C375.672 189.529 369.178 200.086 370.314 203.821C371.449 207.556 374.208 217.456 374.378 219.757C374.547 222.058 374.049 228.522 374.049 228.522H404.735C404.658 222.773 404.93 217.026 405.552 211.311C406.548 204.01 408.639 201.411 408.639 190.216C408.639 179.021 396.459 176.9 393.381 176.571C390.958 176.385 388.525 176.375 386.1 176.541Z" fill="white" stroke="#263238" stroke-linecap="round" stroke-linejoin="round"/>
<path d="M370.354 203.821C371.35 207.197 373.74 215.614 374.338 218.87C374.338 217.476 374.338 216.132 374.288 215.016C374.129 210.315 374.288 203.652 378.999 192.776C382.615 184.419 384.696 178.951 385.463 176.84C382.778 178.062 380.185 179.477 377.704 181.073C375.264 182.856 375.712 187.238 375.712 188.373C375.712 189.509 369.219 200.086 370.354 203.821Z" fill="#92E3A9" stroke="#263238" stroke-linecap="round" stroke-linejoin="round"/>
<path d="M345.842 227.196C345.842 227.196 343.721 230.403 342.227 232.444C340.733 234.486 338.323 238.42 339.996 238.59C341.669 238.759 343.532 237.106 345.394 236.169C346.657 235.38 347.635 234.208 348.183 232.823C348.183 232.823 347.625 236.359 348.93 235.612C350.235 234.865 350.235 232.265 350.235 230.582C350.279 229.152 350.402 227.726 350.603 226.309C350.603 226.309 348.153 224.168 345.842 227.196Z" fill="white" stroke="#263238" stroke-linecap="round" stroke-linejoin="round"/>
<path d="M346.838 231.34C346.838 231.34 337.785 231.34 336.311 232.186C334.837 233.033 329.787 256.807 325.584 266.488C325.584 266.488 322.218 274.904 319.479 278.908C318.483 280.312 314.001 282.065 310.844 282.892C307.686 283.719 306.431 284.366 306.86 285.213C307.288 286.059 313.831 287.523 316.75 287.952C319.668 288.38 321.59 287.523 322.437 287.523C323.283 287.523 324.329 288.579 326.012 287.952C327.696 287.324 326.64 282.892 326.64 280.372C326.64 277.852 329.797 268.799 333.373 265.004C336.948 261.209 343.9 246.698 345.374 242.276C346.848 237.854 347.267 236.808 347.267 236.808" fill="white"/>
<path d="M346.838 231.34C346.838 231.34 337.785 231.34 336.311 232.186C334.837 233.033 329.787 256.807 325.584 266.488C325.584 266.488 322.218 274.904 319.479 278.908C318.483 280.312 314.001 282.065 310.844 282.892C307.686 283.719 306.431 284.366 306.86 285.213C307.288 286.059 313.831 287.523 316.75 287.952C319.668 288.38 321.59 287.523 322.437 287.523C323.283 287.523 324.329 288.579 326.012 287.952C327.696 287.324 326.64 282.892 326.64 280.372C326.64 277.852 329.797 268.799 333.373 265.004C336.948 261.209 343.9 246.698 345.374 242.276C346.848 237.854 347.267 236.808 347.267 236.808" stroke="#263238" stroke-linecap="round" stroke-linejoin="round"/>
<path d="M344.657 236.42C343.016 237.113 341.624 238.29 340.667 239.793C339.71 241.296 339.233 243.055 339.299 244.836C339.299 251.349 348.87 292.693 348.87 294.983C348.985 297.005 348.629 299.027 347.831 300.888C347.032 302.749 345.813 304.4 344.269 305.71C343.582 306.338 339.588 309.146 340.046 310.441C340.803 312.573 346.151 310.501 347.456 309.943C349.817 308.947 352.436 304.784 354.996 304.963C357.715 305.123 358.053 303.818 358.053 301.129C358.053 298.44 355.065 295.083 354.707 291.249C354.348 287.414 353.103 273.898 354.249 267.435C355.304 261.459 350.016 246.389 350.016 246.389C350.016 246.389 366.27 256.349 380.603 252.873C394.935 249.397 367.236 243.332 363.033 240.264C358.83 237.196 348.103 234.099 344.657 236.42Z" fill="white" stroke="#263238" stroke-linecap="round" stroke-linejoin="round"/>
<path d="M339.677 235.971C339.677 235.971 346.838 243.76 355.932 247.375L359.089 232.017C359.089 232.017 345.613 229.696 336.351 232.226" fill="white"/>
<path d="M339.677 235.971C339.677 235.971 346.838 243.76 355.932 247.375L359.089 232.017C359.089 232.017 345.613 229.696 336.351 232.226" stroke="#263238" stroke-linecap="round" stroke-linejoin="round"/>
<path d="M404.735 228.451C404.657 222.702 404.93 216.955 405.551 211.24C406.547 203.939 408.639 201.34 408.639 190.145C408.639 179.717 398.091 177.197 394.147 176.6C393.228 178.102 392.479 179.702 391.916 181.37C391.588 182.994 384.606 197.117 382.952 207.674C381.658 216.11 382.743 225.154 383.231 228.451H374.028L374.457 231.757L357.226 231L352.943 248.181C352.943 248.181 362.226 252.165 368.939 254.914C375.652 257.663 389.157 260.233 397.255 257.683C403.928 255.591 408.898 251.986 407.991 244.466C407.313 239.053 406.224 233.699 404.735 228.451Z" fill="#92E3A9" stroke="#263238" stroke-linecap="round" stroke-linejoin="round"/>
<path d="M385.423 176.859L377.007 189.04L377.983 191.799L375.224 194.887L374.736 203.821" stroke="#263238" stroke-linecap="round" stroke-linejoin="round"/>
<path d="M393.241 181.41L392.753 191.151L389.347 193.262L390.641 195.862L383.988 208.362" stroke="#263238" stroke-linecap="round" stroke-linejoin="round"/>
<path d="M379.278 147.776C379.278 147.776 377.355 152.099 377.515 153.384C377.674 154.669 377.365 156.182 376.12 156.671C374.875 157.159 373.521 158.135 374.128 159.2C374.563 159.847 375.156 160.372 375.851 160.724C375.851 160.724 375.035 166.063 375.533 167.467C376.031 168.871 377.017 171.541 378.63 171.341C380.244 171.142 384.288 170.804 384.288 170.804C385.146 173.435 385.28 176.249 384.676 178.951C383.68 183.662 380.134 188.044 384.029 189.01C387.923 189.976 390.204 184.957 391.996 181.381C393.789 177.805 394.725 173.124 395.532 170.425C396.339 167.726 397.524 164.947 397.524 164.947C395.774 164.407 394.181 163.45 392.883 162.157C391.585 160.864 390.621 159.275 390.074 157.527C387.823 151.262 387.953 146.99 384.576 146.103C383.628 145.813 382.613 145.817 381.667 146.116C380.721 146.415 379.888 146.994 379.278 147.776Z" fill="white" stroke="#263238" stroke-linecap="round" stroke-linejoin="round"/>
<path d="M382.226 166.342C382.226 166.342 382.564 169.081 385.642 167.557" stroke="#263238" stroke-linecap="round" stroke-linejoin="round"/>
<path d="M385.911 143.155C385.911 143.155 382.445 142.926 380.135 142.717C377.824 142.507 376.908 145.705 377.445 147.467C377.983 149.23 378.511 149.459 378.511 149.459C378.511 149.459 381.718 147.597 382.037 148.862C382.356 150.127 379.388 152.627 380.951 154.728C382.515 156.83 385.015 158.473 383.73 159.947C382.445 161.421 383.093 162.806 384.228 162.666C385.364 162.527 386.887 160.375 387.505 162.746C388.122 165.116 385.244 166.949 385.862 168.025C386.479 169.1 392.385 170.485 394.039 169.299C395.692 168.114 399.805 166.959 401.748 160.176C403.69 153.394 401.748 148.563 397.664 144.32C393.58 140.077 386.599 143.394 386.599 143.394L385.911 143.155Z" fill="#263238" stroke="#263238" stroke-linecap="round" stroke-linejoin="round"/>
<path d="M392.226 148.604C392.872 148.916 393.478 149.307 394.028 149.769" stroke="white" stroke-width="0.75" stroke-linecap="round" stroke-linejoin="round"/>
<path d="M382.076 147.528C384.927 147.027 387.855 147.173 390.642 147.956" stroke="white" stroke-width="0.75" stroke-linecap="round" stroke-linejoin="round"/>
<path d="M345.843 227.196L346.331 226.06C346.819 224.925 352.028 223.959 357.177 223.222C365.514 222.036 369.587 220.702 374.418 219.726C380.394 218.511 386.748 216.967 386.748 216.967C386.748 216.967 397.465 219.397 395.712 222.943C393.959 226.488 389.049 227.166 389.049 227.166H348.353C348.445 227.65 348.354 228.151 348.099 228.572C347.843 228.993 347.44 229.305 346.968 229.446" fill="white"/>
<path d="M345.843 227.196L346.331 226.06C346.819 224.925 352.028 223.959 357.177 223.222C365.514 222.036 369.587 220.702 374.418 219.726C380.394 218.511 386.748 216.967 386.748 216.967C386.748 216.967 397.465 219.397 395.712 222.943C393.959 226.488 389.049 227.166 389.049 227.166H348.353C348.445 227.65 348.354 228.151 348.099 228.572C347.843 228.993 347.44 229.305 346.968 229.447" stroke="#263238" stroke-linecap="round" stroke-linejoin="round"/>
<path d="M393.411 197.645C393.411 197.645 391.299 207.067 389.994 209.497C388.69 211.927 385.941 211.12 386.1 212.584C386.24 213.589 386.514 214.571 386.917 215.503C386.917 215.503 384.925 215.503 384.925 216.319C384.925 217.136 387.196 220.054 390.124 221.508C393.052 222.962 395.154 224.596 396.448 222.972C397.743 221.349 399.048 218.261 398.889 217.614C398.729 216.967 400.024 218.102 401.159 216.618C401.573 216.097 401.874 215.497 402.046 214.854C402.217 214.212 402.254 213.541 402.155 212.883C402.155 211.588 406.368 201.041 406.856 200.065" fill="#92E3A9"/>
<path d="M393.411 197.645C393.411 197.645 391.299 207.067 389.994 209.497C388.69 211.927 385.941 211.12 386.1 212.584C386.24 213.589 386.514 214.571 386.917 215.503C386.917 215.503 384.925 215.503 384.925 216.319C384.925 217.136 387.196 220.054 390.124 221.508C393.052 222.962 395.154 224.596 396.448 222.972C397.743 221.349 399.048 218.261 398.889 217.614C398.729 216.967 400.024 218.102 401.159 216.618C401.573 216.097 401.874 215.497 402.046 214.854C402.217 214.212 402.254 213.541 402.155 212.883C402.155 211.588 406.368 201.041 406.856 200.065" stroke="#263238" stroke-linecap="round" stroke-linejoin="round"/>
<path d="M390.304 214.357C393.102 214.795 395.846 215.526 398.491 216.539" stroke="#263238" stroke-width="0.75" stroke-linecap="round" stroke-linejoin="round"/>
<path d="M387.854 213.811C387.854 213.811 390.841 218.721 395.493 219.537" stroke="#263238" stroke-width="0.75" stroke-linecap="round" stroke-linejoin="round"/>
<path d="M399.636 154.43C399.636 154.43 399.954 159.301 395.741 166.93C391.528 174.559 385.672 189.17 389.895 197.118C394.118 205.066 405.641 203.453 408.888 196.312C412.135 189.17 410.024 170.984 406.617 163.354C403.211 155.725 401.747 152.966 401.747 152.966C401.747 152.966 399.755 151.99 399.636 154.43Z" fill="#263238" stroke="#263238" stroke-linecap="round" stroke-linejoin="round"/>
<path d="M401.189 198.164C402.76 198.147 404.277 197.588 405.482 196.58" stroke="white" stroke-width="0.75" stroke-linecap="round" stroke-linejoin="round"/>
<path d="M400.502 157.486C401.386 167.053 400.371 176.699 397.514 185.872C395.691 191.43 395.96 195.224 398.221 197.067" stroke="white" stroke-width="0.75" stroke-linecap="round" stroke-linejoin="round"/>
<path d="M400.004 163.463C400.004 163.463 395.024 176.162 391.04 184.877C387.056 193.591 390.542 199.069 396.518 200.314" stroke="white" stroke-width="0.75" stroke-linecap="round" stroke-linejoin="round"/>
<path d="M383.291 228.451C383.291 228.451 382.554 236.738 384.088 237.883C385.622 239.029 396.717 242.485 404.008 240.184" stroke="#263238" stroke-linecap="round" stroke-linejoin="round"/>
<path d="M374.517 231.797L381.409 232.952" stroke="#263238" stroke-linecap="round" stroke-linejoin="round"/>
<path d="M347.456 309.923C349.817 308.927 352.436 304.764 354.996 304.943C357.715 305.103 358.054 303.798 358.054 301.109C357.972 299.999 357.663 298.918 357.147 297.932C357.078 298.051 357.008 298.161 356.938 298.29C355.354 301.412 352.646 303.818 349.359 305.023C348.004 305.532 346.51 305.532 345.156 305.023L344.837 305.153C344.658 305.342 344.468 305.521 344.269 305.71C343.582 306.338 339.588 309.146 340.046 310.441C340.803 312.553 346.152 310.481 347.456 309.923Z" fill="#92E3A9" stroke="#263238" stroke-linecap="round" stroke-linejoin="round"/>
<path d="M313.722 282.005C312.726 282.364 311.73 282.673 310.844 282.902C307.686 283.748 306.431 284.376 306.86 285.222C307.288 286.069 313.831 287.533 316.75 287.961C319.668 288.39 321.59 287.533 322.437 287.533C323.283 287.533 324.329 288.589 326.012 287.961C327.427 287.423 326.909 284.236 326.71 281.736C324.5 282.446 322.218 282.91 319.907 283.121C315.624 283.459 314.1 282.414 313.722 282.005Z" fill="#92E3A9" stroke="#263238" stroke-linecap="round" stroke-linejoin="round"/>
<path d="M401.658 295.939L401.528 295.84V277.503H404.158V265.91H394.407V277.503H397.047V296.178L373.73 303.608V305.461C373.767 305.994 374.005 306.494 374.396 306.859C374.787 307.224 375.302 307.427 375.837 307.427C376.372 307.427 376.887 307.224 377.278 306.859C377.669 306.494 377.907 305.994 377.944 305.461V305.142L397.445 302.871V305.67C397.445 306.159 397.639 306.627 397.985 306.973C398.33 307.318 398.799 307.513 399.287 307.513C399.776 307.513 400.245 307.318 400.59 306.973C400.936 306.627 401.13 306.159 401.13 305.67V302.782L421.418 305.142V305.411C421.455 305.945 421.693 306.444 422.084 306.809C422.475 307.175 422.99 307.378 423.525 307.378C424.06 307.378 424.575 307.175 424.966 306.809C425.357 306.444 425.595 305.945 425.631 305.411V303.558L401.658 295.939Z" fill="#263238" stroke="#263238" stroke-linecap="round" stroke-linejoin="round"/>
<path d="M428.141 254.596H372.864C370.664 254.596 368.88 256.379 368.88 258.58V264.058C368.88 266.258 370.664 268.042 372.864 268.042H428.141C430.341 268.042 432.125 266.258 432.125 264.058V258.58C432.125 256.379 430.341 254.596 428.141 254.596Z" fill="#263238" stroke="#263238" stroke-linecap="round" stroke-linejoin="round"/>
<path d="M316.84 224.736H344.189V193.144H316.84V224.736Z" fill="white" stroke="#263238" stroke-linecap="round" stroke-linejoin="round"/>
<path d="M346.31 226.15H315.425V197.625H330.046L346.31 226.15Z" fill="white" stroke="#263238" stroke-linecap="round" stroke-linejoin="round"/>
<path d="M308.801 227.744H326.47C326.79 227.716 327.088 227.569 327.305 227.332C327.522 227.095 327.642 226.786 327.642 226.464C327.642 226.143 327.522 225.834 327.305 225.597C327.088 225.36 326.79 225.213 326.47 225.185H308.801C308.379 225.182 307.962 225.092 307.577 224.921C307.191 224.75 306.845 224.5 306.561 224.189C306.214 223.811 305.971 223.35 305.854 222.852C305.738 222.353 305.751 221.832 305.893 221.34L312.158 198.881C312.249 198.554 312.207 198.205 312.041 197.91C311.874 197.615 311.598 197.398 311.272 197.307C310.945 197.216 310.596 197.258 310.301 197.424C310.006 197.59 309.789 197.867 309.698 198.193L303.423 220.653C303.193 221.482 303.158 222.354 303.32 223.199C303.482 224.044 303.837 224.841 304.358 225.526C304.878 226.212 305.55 226.768 306.321 227.151C307.092 227.534 307.941 227.733 308.801 227.734V227.744Z" fill="white" stroke="#263238" stroke-linecap="round" stroke-linejoin="round"/>
<path d="M317.168 221.094L321.173 220.613L314.968 168.884L310.963 169.364L317.168 221.094Z" fill="white" stroke="#263238" stroke-linecap="round" stroke-linejoin="round"/>
<path d="M310.993 169.34C307.072 186.784 309.259 205.046 317.188 221.071L310.993 169.34Z" fill="white" stroke="#263238" stroke-linecap="round" stroke-linejoin="round"/>
<path d="M455.351 227.625H293.752V318.758H455.351V227.625Z" fill="#263238"/>
<mask id="mask1_571_1091" style="mask-type:luminance" maskUnits="userSpaceOnUse" x="293" y="227" width="163" height="92">
<path d="M455.351 227.625H293.752V318.758H455.351V227.625Z" fill="white"/>
</mask>
<g mask="url(#mask1_571_1091)">
<path opacity="0.72" d="M455.351 227.625H293.752V318.758H455.351V227.625Z" fill="white"/>
</g>
<path d="M455.351 227.625H293.752V318.758H455.351V227.625Z" stroke="#263238" stroke-linecap="round" stroke-linejoin="round"/>
<path d="M455.232 229.816H293.832V232.336H455.232V229.816Z" fill="#263238"/>
<path d="M456.526 226.131H290.227V230.115H456.526V226.131Z" fill="white" stroke="#263238" stroke-linecap="round" stroke-linejoin="round"/>
<path d="M190.887 218.541L188.397 220.533C188.397 220.533 181.306 224.268 179.931 225.383C178.557 226.499 179.563 227.624 180.31 228.999C181.057 230.373 184.662 231.857 185.907 231.857C187.152 231.857 192.879 229.118 193.755 227.505C194.632 225.891 195.498 220.155 195.498 220.155L190.887 218.541Z" fill="white" stroke="#263238" stroke-linecap="round" stroke-linejoin="round"/>
<path d="M189.602 224.139L189.233 227.127C189.233 227.127 184.124 230.115 184.622 230.991C185.12 231.867 185.618 231.609 188.606 230.742C191.594 229.876 193.586 228.252 193.715 227.505" stroke="#263238" stroke-linecap="round" stroke-linejoin="round"/>
<path d="M184.164 223.521L185.409 229.368" stroke="#263238" stroke-linecap="round" stroke-linejoin="round"/>
<path d="M181.425 224.887L184.044 231.241" stroke="#263238" stroke-linecap="round" stroke-linejoin="round"/>
<path d="M180.31 225.883C180.31 225.883 180.927 229.369 182.421 230.494" stroke="#263238" stroke-linecap="round" stroke-linejoin="round"/>
<path d="M191.764 214.559L190.768 219.041L195.499 220.156L197.61 215.176L191.764 214.559Z" fill="#92E3A9" stroke="#263238" stroke-linecap="round" stroke-linejoin="round"/>
<path d="M184.622 164.072C184.215 166.996 184.346 169.97 185.01 172.846C186.126 176.711 190.856 195.884 191.484 197.248C192.111 198.613 191.982 200.734 191.603 202.975C191.225 205.216 192.729 210.574 192.729 210.943C192.729 211.311 190.607 212.815 190.488 214.309C190.368 215.803 192.848 216.799 195.089 217.048C197.33 217.297 198.824 217.048 200.199 210.823C201.573 204.598 197.579 196.252 195.089 186.422C192.599 176.591 189.243 169.361 188.745 167.369C188.247 165.377 185.379 161.771 184.622 164.072Z" fill="#92E3A9" stroke="#263238" stroke-linecap="round" stroke-linejoin="round"/>
<path d="M210.686 300.004C210.686 300.004 213.176 303.321 212.678 304.317C212.18 305.313 207.031 306.807 206.035 307.643C204.569 309.102 202.734 310.135 200.727 310.631C197.569 311.458 189.93 312.782 190.767 311.458C191.603 310.133 201.055 303.321 201.055 303.321C204.206 302.049 207.421 300.942 210.686 300.004Z" fill="white" stroke="#263238" stroke-linecap="round" stroke-linejoin="round"/>
<path d="M212.052 303.568C212.052 303.568 206.464 305.56 204.672 306.955C203.611 307.789 202.478 308.526 201.285 309.156" stroke="#263238" stroke-width="0.75" stroke-linecap="round" stroke-linejoin="round"/>
<path d="M205.866 289.545L210.687 300.003C210.687 300.003 210.518 300.67 207.53 301.995C205.47 302.826 203.276 303.275 201.056 303.319L198.895 295.521L205.866 289.545Z" fill="#263238" stroke="#263238" stroke-linecap="round" stroke-linejoin="round"/>
<path d="M197.739 212.029C197.739 212.029 193.914 214.349 193.755 215.345C193.812 216.803 194.032 218.25 194.412 219.658C194.412 219.658 186.614 235.932 184.293 240.076C181.972 244.219 178.646 252.356 181.962 257.505C185.279 262.655 195.249 286.887 195.249 286.887L191.922 305.482L200.388 307.643C200.388 307.643 205.537 293.7 207.36 288.55C209.183 283.401 213.505 270.125 214.173 265.473C214.84 260.822 215.328 254.189 215.497 253.691C215.667 253.193 230.108 232.108 232.1 227.297C234.092 222.487 233.923 212.357 232.927 210.196C231.931 208.035 197.739 212.029 197.739 212.029Z" fill="#263238" stroke="#263238" stroke-linecap="round" stroke-linejoin="round"/>
<path d="M207.699 217.666L203.217 219.827L208.028 222.975L200.558 221.979L208.356 224.967" stroke="white" stroke-width="0.75" stroke-linecap="round" stroke-linejoin="round"/>
<path d="M219.979 219.826L210.846 223.471C210.846 223.471 222.3 221.31 227.449 221.48" stroke="#263238" stroke-linecap="round" stroke-linejoin="round"/>
<path d="M209.521 225.803C209.521 225.803 198.068 250.872 198.068 255.513C198.068 260.154 196.404 285.731 196.404 285.731" stroke="white" stroke-width="0.75" stroke-linecap="round" stroke-linejoin="round"/>
<path d="M200.299 154.948C200.299 154.948 184.99 162.497 184.652 164.071C184.313 165.645 186.116 170.146 186.116 170.146C186.116 170.146 195.568 200.893 196.355 203.373C197.141 205.853 197.48 206.41 196.693 207.645C195.906 208.88 194.89 211.141 196.016 212.376C197.141 213.611 204.691 215.872 209.531 215.872C214.372 215.872 223.047 214.408 228.674 213.054C234.302 211.699 234.083 209.229 233.853 206.639C233.624 204.05 230.367 159.679 230.367 157.986C230.367 156.292 218.416 153.822 214.372 153.593C210.328 153.364 201.653 153.593 200.299 154.948Z" fill="#92E3A9" stroke="#263238" stroke-linecap="round" stroke-linejoin="round"/>
<path d="M201.952 162.617L205.827 173.572L212.052 162.467C212.052 162.467 210.368 157.089 205.827 157.427C201.285 157.766 201.952 162.617 201.952 162.617Z" fill="#263238" stroke="#263238" stroke-linecap="round" stroke-linejoin="round"/>
<path d="M205.826 173.553C205.826 173.553 203.834 204 203.834 205.514C203.834 207.028 202.32 211.908 202.32 211.908L205.687 215.773C205.687 215.773 211.065 211.908 211.912 209.05C212.758 206.191 205.826 173.553 205.826 173.553Z" fill="#263238" stroke="#263238" stroke-linecap="round" stroke-linejoin="round"/>
<path d="M200.299 153.932C200.299 153.932 199.512 158.663 199.96 160.695C200.408 162.727 198.496 167.338 199.402 167.896C200.309 168.454 203.337 162.378 203.337 162.378L206.723 168.125L208.974 162.04C208.974 162.04 212.121 168.235 213.027 167.677C213.934 167.119 212.46 163.285 213.814 161.372C214.524 160.186 214.979 158.865 215.151 157.493C215.322 156.121 215.206 154.729 214.81 153.404C214.013 150.367 210.757 150.367 208.048 150.695C205.338 151.024 202.211 151.004 200.299 153.932Z" fill="#92E3A9" stroke="#263238" stroke-linecap="round" stroke-linejoin="round"/>
<path d="M200.299 154.949C200.299 154.949 203.904 159.929 204.582 162.269C205.259 164.61 206.265 169.59 206.723 168.126C207.181 166.662 206.942 161.034 209.651 157.877C212.36 154.72 211.643 152.469 211.643 152.469C211.643 152.469 208.187 156.742 200.299 154.949Z" fill="white" stroke="#263238" stroke-linecap="round" stroke-linejoin="round"/>
<path d="M193.098 145.945C193.098 145.945 197.48 154.61 201.992 156.901C206.504 159.191 211.225 156.791 212.46 153.305C213.695 149.819 212.569 145.337 212.569 145.337C212.569 145.337 215.049 143.873 215.388 141.961C215.726 140.049 216.065 139.371 213.476 137.907C212.481 137.271 211.423 136.74 210.318 136.324C210.318 136.324 210.209 132.499 207.958 131.264C205.707 130.029 200.986 130.696 198.157 133.734C195.329 136.772 193.098 145.945 193.098 145.945Z" fill="white" stroke="#263238" stroke-linecap="round" stroke-linejoin="round"/>
<path d="M200.558 145.037C201.342 146.155 201.985 147.366 202.47 148.643C202.699 149.768 201.793 151.123 203.147 151.123C203.547 151.122 203.942 151.042 204.31 150.886C204.677 150.731 205.01 150.503 205.289 150.216" stroke="#263238" stroke-linecap="round" stroke-linejoin="round"/>
<path d="M203.107 141.623C203.107 141.623 203.675 139.631 206.305 140.019" stroke="#263238" stroke-linecap="round" stroke-linejoin="round"/>
<path d="M198.775 143.403C198.775 143.403 196.783 142.846 194.91 145.196" stroke="#263238" stroke-linecap="round" stroke-linejoin="round"/>
<path d="M204.044 151.134L204.801 153.375C205.882 153.162 206.88 152.647 207.679 151.888C208.478 151.13 209.044 150.16 209.313 149.092" stroke="#263238" stroke-linecap="round" stroke-linejoin="round"/>
<path d="M201.086 147.349C201.086 147.962 200.904 148.561 200.564 149.07C200.223 149.58 199.74 149.977 199.174 150.211C198.608 150.446 197.985 150.507 197.384 150.387C196.783 150.268 196.231 149.973 195.798 149.54C195.365 149.107 195.07 148.555 194.95 147.954C194.831 147.353 194.892 146.73 195.126 146.164C195.361 145.598 195.758 145.114 196.267 144.774C196.777 144.434 197.376 144.252 197.988 144.252C198.395 144.252 198.798 144.332 199.174 144.488C199.549 144.643 199.891 144.872 200.178 145.159C200.466 145.447 200.694 145.788 200.85 146.164C201.006 146.54 201.086 146.943 201.086 147.349Z" stroke="#263238" stroke-width="0.5" stroke-linecap="round" stroke-linejoin="round"/>
<path d="M208.854 143.126L212.241 140.088" stroke="#263238" stroke-width="0.5" stroke-linecap="round" stroke-linejoin="round"/>
<path d="M208.973 144.082C208.973 144.695 208.792 145.293 208.451 145.803C208.111 146.312 207.627 146.709 207.061 146.944C206.495 147.178 205.872 147.239 205.272 147.12C204.671 147 204.119 146.705 203.686 146.272C203.252 145.839 202.957 145.287 202.838 144.686C202.718 144.085 202.78 143.463 203.014 142.897C203.249 142.331 203.646 141.847 204.155 141.506C204.664 141.166 205.263 140.984 205.876 140.984C206.697 140.984 207.485 141.311 208.066 141.892C208.647 142.473 208.973 143.26 208.973 144.082Z" stroke="#263238" stroke-width="0.5" stroke-linecap="round" stroke-linejoin="round"/>
<path d="M206.792 143.733C206.952 144.082 206.892 144.46 206.653 144.57C206.414 144.68 206.095 144.47 205.936 144.112C205.776 143.753 205.836 143.385 206.075 143.275C206.314 143.166 206.633 143.375 206.792 143.733Z" fill="#263238"/>
<path d="M199.861 146.511C200.02 146.87 199.96 147.248 199.721 147.348C199.482 147.448 199.163 147.258 199.004 146.9C198.845 146.541 198.904 146.173 199.143 146.063C199.382 145.954 199.701 146.153 199.861 146.511Z" fill="#263238"/>
<path d="M200.558 146.163C200.558 146.163 201.793 144.59 202.918 145.267" stroke="#263238" stroke-width="0.5" stroke-linecap="round" stroke-linejoin="round"/>
<path d="M202.44 135.825C202.44 135.825 198.616 139.988 195.688 143.793C194.629 145.301 193.461 146.729 192.192 148.066C191.497 146.782 190.894 145.451 190.389 144.082C190.031 143.009 189.619 141.955 189.154 140.924L188.158 143.175C188.158 143.175 185.23 132.22 188.387 127.19C191.544 122.16 198.676 120.835 204.084 122.748C209.492 124.66 210.229 129.67 211.245 132.259C212.261 134.849 213.157 138.106 213.157 138.106L211.693 141.263C211.693 141.263 208.994 138.903 207.639 137.658C206.796 136.853 206.175 135.845 205.837 134.729C205.837 134.729 203.586 137.439 202.909 138.225C202.545 138.663 202.08 139.005 201.554 139.221L202.44 135.825Z" fill="#263238" stroke="#263238" stroke-linecap="round" stroke-linejoin="round"/>
<path d="M203.486 125.197C202.264 130.224 199.723 134.835 196.126 138.553" stroke="white" stroke-width="0.75" stroke-linecap="round" stroke-linejoin="round"/>
<path d="M204.851 126.014C205.113 128.902 204.644 131.81 203.486 134.47" stroke="white" stroke-width="0.75" stroke-linecap="round" stroke-linejoin="round"/>
<path d="M229.441 156.891C229.441 156.891 233.783 158.026 235.297 160.108C236.811 162.189 247.01 190.904 247.388 195.814C247.767 200.724 246.253 210.923 246.631 212.058C247.01 213.194 248.145 214.708 247.01 215.275C245.977 215.913 245.024 216.672 244.171 217.536C241.706 217.416 239.249 217.163 236.811 216.779C235.676 216.401 234.162 213.951 235.297 212.437C236.119 211.419 236.585 210.159 236.622 208.851C236.622 208.094 234.261 198.802 234.261 196.899C234.268 195.169 234.175 193.44 233.982 191.72C233.317 188.952 232.499 186.222 231.532 183.543C228.501 178.04 226.995 171.826 227.17 165.546" fill="#92E3A9"/>
<path d="M229.441 156.891C229.441 156.891 233.783 158.026 235.297 160.108C236.811 162.189 247.01 190.904 247.388 195.814C247.767 200.724 246.253 210.923 246.631 212.058C247.01 213.194 248.145 214.708 247.01 215.275C245.977 215.913 245.024 216.672 244.171 217.536C241.706 217.416 239.249 217.163 236.811 216.779C235.676 216.401 234.162 213.951 235.297 212.437C236.119 211.419 236.585 210.159 236.622 208.851C236.622 208.094 234.261 198.802 234.261 196.899C234.268 195.169 234.175 193.44 233.982 191.72C233.317 188.952 232.499 186.222 231.532 183.543C228.501 178.04 226.995 171.826 227.17 165.546" stroke="#263238" stroke-linecap="round" stroke-linejoin="round"/>
<path d="M236.851 216.779L236.473 220.375L242.708 221.311L244.211 217.536L236.851 216.779Z" fill="#92E3A9" stroke="#263238" stroke-linecap="round" stroke-linejoin="round"/>
<path d="M236.473 220.375C236.473 220.375 229.292 223.582 228.724 224.528C228.157 225.474 227.021 230.006 226.264 230.574C225.507 231.142 224.76 231.899 226.832 231.709C228.904 231.52 229.481 230.385 229.481 230.385C229.383 231.082 229.383 231.789 229.481 232.486C231.038 232.675 232.604 232.771 234.172 232.775C234.642 232.837 235.117 232.837 235.587 232.775C235.587 232.775 235.208 233.681 235.915 233.98C236.623 234.279 236.583 233.602 237.041 232.984C237.592 231.957 238.061 230.888 238.445 229.787C238.676 229.227 238.843 228.642 238.943 228.044C240.08 227.43 241.118 226.648 242.021 225.723C243.017 224.518 242.479 221.032 242.479 221.032L236.473 220.375Z" fill="white" stroke="#263238" stroke-linecap="round" stroke-linejoin="round"/>
<path d="M229.481 230.384L229.86 225.633" stroke="#263238" stroke-linecap="round" stroke-linejoin="round"/>
<path d="M231.354 232.735L231.971 226.012" stroke="#263238" stroke-linecap="round" stroke-linejoin="round"/>
<path d="M233.714 232.606L234.71 226.381" stroke="#263238" stroke-linecap="round" stroke-linejoin="round"/>
<path d="M235.626 232.734C235.626 232.734 236.453 227.375 236.622 226.758" stroke="#263238" stroke-linecap="round" stroke-linejoin="round"/>
<path d="M191.922 305.48C191.922 305.48 189.104 307.97 188.606 308.299C188.108 308.628 178.975 313.618 179.144 314.942C179.313 316.267 188.775 315.61 194.084 314.275C199.392 312.94 199.731 312.452 199.89 311.626C200.05 310.799 200.388 307.642 200.388 307.642L191.922 305.48Z" fill="white" stroke="#263238" stroke-linecap="round" stroke-linejoin="round"/>
<path d="M180.946 314.336C180.946 314.336 193.506 314.136 198.496 310.949" stroke="#263238" stroke-width="0.75" stroke-linecap="round" stroke-linejoin="round"/>
<path d="M124.325 307.074C124.325 307.074 134.922 309.932 137.452 312.123C139.982 314.314 132.402 314.982 127.691 314.812C122.98 314.643 122.482 313.299 119.116 313.299C115.75 313.299 112.722 314.812 112.214 311.785C111.706 308.757 115.919 307.582 118.777 306.904C120.613 306.513 122.516 306.571 124.325 307.074Z" fill="white" stroke="#263238" stroke-linecap="round" stroke-linejoin="round"/>
<path d="M121.267 311.945C121.267 311.945 126.456 315.332 135.629 313.34" stroke="#263238" stroke-width="0.75" stroke-linecap="round" stroke-linejoin="round"/>
<path d="M113.727 308.758C116.301 310.426 119.001 311.888 121.805 313.131C125.51 314.645 128.199 315.123 126.516 316.497C124.833 317.872 124.325 318.011 120.122 318.848C115.918 319.684 107.502 317.503 106.666 317.503C105.829 317.503 104.983 318.499 102.682 317.673C100.381 316.846 99.9926 315.681 100.829 312.962C101.666 310.242 112.383 307.912 113.727 308.758Z" fill="white" stroke="#263238" stroke-linecap="round" stroke-linejoin="round"/>
<path d="M105.122 315.73C111.48 317.98 118.381 318.189 124.863 316.328" stroke="#263238" stroke-width="0.75" stroke-linecap="round" stroke-linejoin="round"/>
<path d="M137.113 192.188L139.105 213.382C139.105 213.382 136.237 243.829 132.711 253.749C129.185 263.669 125.978 274.605 124.803 278.649C123.628 282.693 122.452 298.499 123.458 301.686C124.026 303.191 124.309 304.789 124.295 306.397V307.074C124.295 307.074 124.972 307.582 122.612 308.927C120.924 309.813 119.11 310.434 117.233 310.77L113.698 308.778C113.698 308.778 108.658 312.473 106.805 313.489C104.861 314.29 102.828 314.855 100.75 315.172C99.9766 313.953 99.5244 312.559 99.4351 311.118V304.565C99.4351 302.204 97.7518 290.621 97.9211 283.539C98.0905 276.458 99.435 268.729 100.78 265.203C102.124 261.677 106.666 250.901 106.666 250.901C106.446 246.337 105.711 241.814 104.475 237.415C102.294 228.84 101.786 224.467 98.9271 215.215C96.0686 205.962 101.786 192.307 101.786 192.307C101.786 192.307 115.072 194.658 122.313 194.299C127.296 194.008 132.247 193.301 137.113 192.188Z" fill="#263238" stroke="#263238" stroke-linecap="round" stroke-linejoin="round"/>
<path d="M111.915 210.354C112.65 211.656 113.493 212.896 114.435 214.059" stroke="white" stroke-width="0.75" stroke-linecap="round" stroke-linejoin="round"/>
<path d="M120.969 197.406L126.516 197.575L126.347 196.221" stroke="white" stroke-width="0.75" stroke-linecap="round" stroke-linejoin="round"/>
<path d="M128.538 196.58V197.925C128.538 197.925 133.239 199.11 136.944 197.088" stroke="white" stroke-width="0.75" stroke-linecap="round" stroke-linejoin="round"/>
<path d="M133.916 199.568L132.571 204.787L134.753 207.775C134.753 207.775 131.565 213.323 131.565 213.831" stroke="white" stroke-width="0.75" stroke-linecap="round" stroke-linejoin="round"/>
<path d="M134.922 214.896L129.374 219.488C129.374 219.488 126.008 248.083 124.155 255.483C122.303 262.883 115.411 286.936 114.574 292.334C114.105 294.948 113.772 297.584 113.578 300.233C113.578 300.741 114.574 302.593 114.574 303.599V307.473" stroke="white" stroke-width="0.75" stroke-linecap="round" stroke-linejoin="round"/>
<path d="M118.438 195.216C118.438 195.216 128.538 196.56 133.079 196.212C137.621 195.863 138.288 194.031 138.796 192.347C139.304 190.664 132.741 150.635 132.402 148.275C132.063 145.914 132.571 142.05 129.414 140.705C126.257 139.361 119.454 141.701 118.309 146.263C117.163 150.825 120.839 177.208 119.823 182.925C119.147 186.995 118.685 191.098 118.438 195.216Z" fill="white" stroke="#263238" stroke-linecap="round" stroke-linejoin="round"/>
<path d="M127.184 148.624L129.713 153.166L130.55 190.844L133.578 198.075L136.098 189.16L131.227 152.827L131.895 147.449L129.883 143.076L127.184 148.624Z" fill="#263238" stroke="#263238" stroke-linecap="round" stroke-linejoin="round"/>
<path d="M130.55 146.771L133.578 151.99L132.064 142.398L129.036 144.251L130.55 146.771Z" fill="white" stroke="#263238" stroke-linecap="round" stroke-linejoin="round"/>
<path d="M123.149 131.97L122.312 135.834L129.205 148.115C129.205 148.115 131.266 143.533 132.063 142.398C132.86 141.262 136.047 136.273 136.047 136.273C136.047 136.273 130.938 136.681 130.071 133.653C129.205 130.625 130.071 126.422 126.874 126.084C123.677 125.745 123.149 131.97 123.149 131.97Z" fill="white" stroke="#263238" stroke-linecap="round" stroke-linejoin="round"/>
<path d="M126.496 129.591L126.824 130.726C126.643 131.286 126.591 131.879 126.67 132.461C126.749 133.044 126.959 133.601 127.282 134.092C128.398 135.517 134.663 138.953 137.402 138.146C140.141 137.339 140.977 129.391 140.977 129.391C140.977 129.391 143.597 129.332 143.328 127.828C143.059 126.324 141.535 124.68 141.336 122.967C141.137 121.254 142.103 120.816 141.704 118.834C141.452 116.862 140.428 115.071 138.856 113.854C137.043 112.46 127.133 116.932 124.195 120.069C121.257 123.206 120.649 126.533 121.376 128.425C122.103 130.318 126.496 129.591 126.496 129.591Z" fill="white" stroke="#263238" stroke-linecap="round" stroke-linejoin="round"/>
<path d="M139.165 123.723C139.165 124.341 138.896 124.819 138.647 124.809C138.398 124.799 138.239 124.281 138.279 123.674C138.318 123.066 138.547 122.578 138.796 122.588C139.045 122.598 139.205 123.116 139.165 123.723Z" fill="#263238"/>
<path d="M139.862 120.884C139.862 120.884 138.607 119.729 137.332 121.621" stroke="#263238" stroke-linecap="round" stroke-linejoin="round"/>
<path d="M137.561 131.841C136.94 131.673 136.398 131.292 136.027 130.766" stroke="#263238" stroke-linecap="round" stroke-linejoin="round"/>
<path d="M127.722 122.399L127.393 125.476L129.335 124.909C129.335 124.909 128.339 127.319 129.713 126.203C131.088 125.088 133.03 121.373 133.638 121.024C134.245 120.676 137.622 117.399 139.972 115.138C142.323 112.877 143.319 109.79 142.522 108.266C141.725 106.742 132.084 100.099 123.279 104.77C114.475 109.441 112.095 116.273 113.021 120.038C113.947 123.803 120.989 133.643 122.293 133.793C123.598 133.942 126.496 129.59 126.496 129.59C126.496 129.59 122.702 128.594 123.509 126.97C124.315 125.347 127.722 122.399 127.722 122.399Z" fill="#263238" stroke="#263238" stroke-linecap="round" stroke-linejoin="round"/>
<path d="M121.974 123.234C120.823 124.053 119.611 124.782 118.349 125.416" stroke="white" stroke-width="0.75" stroke-linecap="round" stroke-linejoin="round"/>
<path d="M137.681 106.99C134.138 111.851 130.099 116.33 125.63 120.356" stroke="white" stroke-width="0.75" stroke-linecap="round" stroke-linejoin="round"/>
<path d="M119.315 120.725C118.936 121.073 118.548 121.432 118.14 121.79" stroke="white" stroke-width="0.75" stroke-linecap="round" stroke-linejoin="round"/>
<path d="M130.42 107.408C127.822 111.573 124.744 115.417 121.247 118.862" stroke="white" stroke-width="0.75" stroke-linecap="round" stroke-linejoin="round"/>
<path d="M121.974 134.49L130.549 146.771L124.325 152.996L119.952 136.173L121.974 134.49Z" fill="white" stroke="#263238" stroke-linecap="round" stroke-linejoin="round"/>
<path d="M117.602 137.189L105.829 141.054C105.829 141.054 96.5766 185.126 95.8694 186.302C95.1623 187.477 83.0909 209.209 84.6048 211.53C86.1187 213.851 100.541 221.629 101.756 221.121C102.971 220.613 111.516 204.299 116.696 199.588C121.875 194.877 127.183 188.991 127.851 182.437L123.309 163.085L122.801 150.974L117.602 137.189Z" fill="#92E3A9" stroke="#263238" stroke-linecap="round" stroke-linejoin="round"/>
<path d="M120.968 136.174L117.601 137.19L116.755 153.673L122.482 156.87L119.115 161.91L127.86 182.437L124.324 150.646L120.968 136.174Z" fill="#92E3A9" stroke="#263238" stroke-linecap="round" stroke-linejoin="round"/>
<path d="M110.082 207.307L96.6465 219C96.6465 219 97.9711 220.593 101.786 221.121C101.786 221.121 107.762 212.954 110.082 207.307Z" fill="#92E3A9" stroke="#263238" stroke-linecap="round" stroke-linejoin="round"/>
<path d="M112.214 197.576C114.465 197.615 116.713 197.781 118.946 198.074C120.122 198.413 124.663 203.124 124.663 203.124C124.663 203.124 124.663 203.632 122.98 204.12C121.297 204.608 118.269 202.437 118.269 202.437L111.716 208.662L107.672 203.622L112.214 197.576Z" fill="white" stroke="#263238" stroke-linecap="round" stroke-linejoin="round"/>
<path d="M111.716 195.723L113.23 197.735L107.672 203.621L107.005 201.44L111.716 195.723Z" fill="white" stroke="#263238" stroke-linecap="round" stroke-linejoin="round"/>
<path d="M115.899 138.533C115.899 138.533 100.083 138.533 98.9073 139.878C97.7321 141.222 85.2822 178.901 85.2822 181.082C85.2822 183.263 106.646 203.292 106.646 203.292L112.702 195.892L100.61 176.879L110.202 156.192" fill="#92E3A9"/>
<path d="M115.899 138.533C115.899 138.533 100.083 138.533 98.9073 139.878C97.7321 141.222 85.2822 178.901 85.2822 181.082C85.2822 183.263 106.646 203.292 106.646 203.292L112.702 195.892L100.61 176.879L110.202 156.192" stroke="#263238" stroke-linecap="round" stroke-linejoin="round"/>
</svg>
